%TF.GenerationSoftware,KiCad,Pcbnew,10.0.0*%
%TF.CreationDate,2026-05-31T22:43:43-04:00*%
%TF.ProjectId,kicad_sailframes-b1,6b696361-645f-4736-9169-6c6672616d65,rev?*%
%TF.SameCoordinates,Original*%
%TF.FileFunction,Legend,Top*%
%TF.FilePolarity,Positive*%
%FSLAX46Y46*%
G04 Gerber Fmt 4.6, Leading zero omitted, Abs format (unit mm)*
G04 Created by KiCad (PCBNEW 10.0.0) date 2026-05-31 22:43:43*
%MOMM*%
%LPD*%
G01*
G04 APERTURE LIST*
%ADD10C,0.100000*%
%ADD11C,0.150000*%
%ADD12C,0.120000*%
%ADD13C,0.254001*%
G04 APERTURE END LIST*
D10*
X131000000Y-75500000D02*
X157500000Y-75500000D01*
X157500000Y-90500000D01*
X131000000Y-90500000D01*
X131000000Y-75500000D01*
D11*
X102003445Y-88050057D02*
X101908207Y-88002438D01*
X101908207Y-88002438D02*
X101812969Y-87907200D01*
X101812969Y-87907200D02*
X101670112Y-87764342D01*
X101670112Y-87764342D02*
X101574874Y-87716723D01*
X101574874Y-87716723D02*
X101479636Y-87716723D01*
X101527255Y-87954819D02*
X101432017Y-87907200D01*
X101432017Y-87907200D02*
X101336779Y-87811961D01*
X101336779Y-87811961D02*
X101289160Y-87621485D01*
X101289160Y-87621485D02*
X101289160Y-87288152D01*
X101289160Y-87288152D02*
X101336779Y-87097676D01*
X101336779Y-87097676D02*
X101432017Y-87002438D01*
X101432017Y-87002438D02*
X101527255Y-86954819D01*
X101527255Y-86954819D02*
X101717731Y-86954819D01*
X101717731Y-86954819D02*
X101812969Y-87002438D01*
X101812969Y-87002438D02*
X101908207Y-87097676D01*
X101908207Y-87097676D02*
X101955826Y-87288152D01*
X101955826Y-87288152D02*
X101955826Y-87621485D01*
X101955826Y-87621485D02*
X101908207Y-87811961D01*
X101908207Y-87811961D02*
X101812969Y-87907200D01*
X101812969Y-87907200D02*
X101717731Y-87954819D01*
X101717731Y-87954819D02*
X101527255Y-87954819D01*
X102384398Y-87954819D02*
X102384398Y-86954819D01*
X101908207Y-91859580D02*
X101860588Y-91907200D01*
X101860588Y-91907200D02*
X101717731Y-91954819D01*
X101717731Y-91954819D02*
X101622493Y-91954819D01*
X101622493Y-91954819D02*
X101479636Y-91907200D01*
X101479636Y-91907200D02*
X101384398Y-91811961D01*
X101384398Y-91811961D02*
X101336779Y-91716723D01*
X101336779Y-91716723D02*
X101289160Y-91526247D01*
X101289160Y-91526247D02*
X101289160Y-91383390D01*
X101289160Y-91383390D02*
X101336779Y-91192914D01*
X101336779Y-91192914D02*
X101384398Y-91097676D01*
X101384398Y-91097676D02*
X101479636Y-91002438D01*
X101479636Y-91002438D02*
X101622493Y-90954819D01*
X101622493Y-90954819D02*
X101717731Y-90954819D01*
X101717731Y-90954819D02*
X101860588Y-91002438D01*
X101860588Y-91002438D02*
X101908207Y-91050057D01*
X102336779Y-91954819D02*
X102336779Y-90954819D01*
X102336779Y-91431009D02*
X102908207Y-91431009D01*
X102908207Y-91954819D02*
X102908207Y-90954819D01*
X103955826Y-91954819D02*
X103622493Y-91478628D01*
X103384398Y-91954819D02*
X103384398Y-90954819D01*
X103384398Y-90954819D02*
X103765350Y-90954819D01*
X103765350Y-90954819D02*
X103860588Y-91002438D01*
X103860588Y-91002438D02*
X103908207Y-91050057D01*
X103908207Y-91050057D02*
X103955826Y-91145295D01*
X103955826Y-91145295D02*
X103955826Y-91288152D01*
X103955826Y-91288152D02*
X103908207Y-91383390D01*
X103908207Y-91383390D02*
X103860588Y-91431009D01*
X103860588Y-91431009D02*
X103765350Y-91478628D01*
X103765350Y-91478628D02*
X103384398Y-91478628D01*
X104908207Y-91002438D02*
X104812969Y-90954819D01*
X104812969Y-90954819D02*
X104670112Y-90954819D01*
X104670112Y-90954819D02*
X104527255Y-91002438D01*
X104527255Y-91002438D02*
X104432017Y-91097676D01*
X104432017Y-91097676D02*
X104384398Y-91192914D01*
X104384398Y-91192914D02*
X104336779Y-91383390D01*
X104336779Y-91383390D02*
X104336779Y-91526247D01*
X104336779Y-91526247D02*
X104384398Y-91716723D01*
X104384398Y-91716723D02*
X104432017Y-91811961D01*
X104432017Y-91811961D02*
X104527255Y-91907200D01*
X104527255Y-91907200D02*
X104670112Y-91954819D01*
X104670112Y-91954819D02*
X104765350Y-91954819D01*
X104765350Y-91954819D02*
X104908207Y-91907200D01*
X104908207Y-91907200D02*
X104955826Y-91859580D01*
X104955826Y-91859580D02*
X104955826Y-91526247D01*
X104955826Y-91526247D02*
X104765350Y-91526247D01*
X101336779Y-96454819D02*
X101336779Y-95454819D01*
X101336779Y-95454819D02*
X101574874Y-95454819D01*
X101574874Y-95454819D02*
X101717731Y-95502438D01*
X101717731Y-95502438D02*
X101812969Y-95597676D01*
X101812969Y-95597676D02*
X101860588Y-95692914D01*
X101860588Y-95692914D02*
X101908207Y-95883390D01*
X101908207Y-95883390D02*
X101908207Y-96026247D01*
X101908207Y-96026247D02*
X101860588Y-96216723D01*
X101860588Y-96216723D02*
X101812969Y-96311961D01*
X101812969Y-96311961D02*
X101717731Y-96407200D01*
X101717731Y-96407200D02*
X101574874Y-96454819D01*
X101574874Y-96454819D02*
X101336779Y-96454819D01*
X102527255Y-95454819D02*
X102717731Y-95454819D01*
X102717731Y-95454819D02*
X102812969Y-95502438D01*
X102812969Y-95502438D02*
X102908207Y-95597676D01*
X102908207Y-95597676D02*
X102955826Y-95788152D01*
X102955826Y-95788152D02*
X102955826Y-96121485D01*
X102955826Y-96121485D02*
X102908207Y-96311961D01*
X102908207Y-96311961D02*
X102812969Y-96407200D01*
X102812969Y-96407200D02*
X102717731Y-96454819D01*
X102717731Y-96454819D02*
X102527255Y-96454819D01*
X102527255Y-96454819D02*
X102432017Y-96407200D01*
X102432017Y-96407200D02*
X102336779Y-96311961D01*
X102336779Y-96311961D02*
X102289160Y-96121485D01*
X102289160Y-96121485D02*
X102289160Y-95788152D01*
X102289160Y-95788152D02*
X102336779Y-95597676D01*
X102336779Y-95597676D02*
X102432017Y-95502438D01*
X102432017Y-95502438D02*
X102527255Y-95454819D01*
X103384398Y-96454819D02*
X103384398Y-95454819D01*
X103384398Y-95454819D02*
X103955826Y-96454819D01*
X103955826Y-96454819D02*
X103955826Y-95454819D01*
X104432017Y-95931009D02*
X104765350Y-95931009D01*
X104908207Y-96454819D02*
X104432017Y-96454819D01*
X104432017Y-96454819D02*
X104432017Y-95454819D01*
X104432017Y-95454819D02*
X104908207Y-95454819D01*
X101336779Y-100954819D02*
X101336779Y-99954819D01*
X101336779Y-100431009D02*
X101908207Y-100431009D01*
X101908207Y-100954819D02*
X101908207Y-99954819D01*
X102717731Y-100431009D02*
X102860588Y-100478628D01*
X102860588Y-100478628D02*
X102908207Y-100526247D01*
X102908207Y-100526247D02*
X102955826Y-100621485D01*
X102955826Y-100621485D02*
X102955826Y-100764342D01*
X102955826Y-100764342D02*
X102908207Y-100859580D01*
X102908207Y-100859580D02*
X102860588Y-100907200D01*
X102860588Y-100907200D02*
X102765350Y-100954819D01*
X102765350Y-100954819D02*
X102384398Y-100954819D01*
X102384398Y-100954819D02*
X102384398Y-99954819D01*
X102384398Y-99954819D02*
X102717731Y-99954819D01*
X102717731Y-99954819D02*
X102812969Y-100002438D01*
X102812969Y-100002438D02*
X102860588Y-100050057D01*
X102860588Y-100050057D02*
X102908207Y-100145295D01*
X102908207Y-100145295D02*
X102908207Y-100240533D01*
X102908207Y-100240533D02*
X102860588Y-100335771D01*
X102860588Y-100335771D02*
X102812969Y-100383390D01*
X102812969Y-100383390D02*
X102717731Y-100431009D01*
X102717731Y-100431009D02*
X102384398Y-100431009D01*
X101860588Y-104002438D02*
X101765350Y-103954819D01*
X101765350Y-103954819D02*
X101622493Y-103954819D01*
X101622493Y-103954819D02*
X101479636Y-104002438D01*
X101479636Y-104002438D02*
X101384398Y-104097676D01*
X101384398Y-104097676D02*
X101336779Y-104192914D01*
X101336779Y-104192914D02*
X101289160Y-104383390D01*
X101289160Y-104383390D02*
X101289160Y-104526247D01*
X101289160Y-104526247D02*
X101336779Y-104716723D01*
X101336779Y-104716723D02*
X101384398Y-104811961D01*
X101384398Y-104811961D02*
X101479636Y-104907200D01*
X101479636Y-104907200D02*
X101622493Y-104954819D01*
X101622493Y-104954819D02*
X101717731Y-104954819D01*
X101717731Y-104954819D02*
X101860588Y-104907200D01*
X101860588Y-104907200D02*
X101908207Y-104859580D01*
X101908207Y-104859580D02*
X101908207Y-104526247D01*
X101908207Y-104526247D02*
X101717731Y-104526247D01*
X102336779Y-104954819D02*
X102336779Y-103954819D01*
X102336779Y-103954819D02*
X102717731Y-103954819D01*
X102717731Y-103954819D02*
X102812969Y-104002438D01*
X102812969Y-104002438D02*
X102860588Y-104050057D01*
X102860588Y-104050057D02*
X102908207Y-104145295D01*
X102908207Y-104145295D02*
X102908207Y-104288152D01*
X102908207Y-104288152D02*
X102860588Y-104383390D01*
X102860588Y-104383390D02*
X102812969Y-104431009D01*
X102812969Y-104431009D02*
X102717731Y-104478628D01*
X102717731Y-104478628D02*
X102336779Y-104478628D01*
X103289160Y-104907200D02*
X103432017Y-104954819D01*
X103432017Y-104954819D02*
X103670112Y-104954819D01*
X103670112Y-104954819D02*
X103765350Y-104907200D01*
X103765350Y-104907200D02*
X103812969Y-104859580D01*
X103812969Y-104859580D02*
X103860588Y-104764342D01*
X103860588Y-104764342D02*
X103860588Y-104669104D01*
X103860588Y-104669104D02*
X103812969Y-104573866D01*
X103812969Y-104573866D02*
X103765350Y-104526247D01*
X103765350Y-104526247D02*
X103670112Y-104478628D01*
X103670112Y-104478628D02*
X103479636Y-104431009D01*
X103479636Y-104431009D02*
X103384398Y-104383390D01*
X103384398Y-104383390D02*
X103336779Y-104335771D01*
X103336779Y-104335771D02*
X103289160Y-104240533D01*
X103289160Y-104240533D02*
X103289160Y-104145295D01*
X103289160Y-104145295D02*
X103336779Y-104050057D01*
X103336779Y-104050057D02*
X103384398Y-104002438D01*
X103384398Y-104002438D02*
X103479636Y-103954819D01*
X103479636Y-103954819D02*
X103717731Y-103954819D01*
X103717731Y-103954819D02*
X103860588Y-104002438D01*
X101289160Y-109407200D02*
X101432017Y-109454819D01*
X101432017Y-109454819D02*
X101670112Y-109454819D01*
X101670112Y-109454819D02*
X101765350Y-109407200D01*
X101765350Y-109407200D02*
X101812969Y-109359580D01*
X101812969Y-109359580D02*
X101860588Y-109264342D01*
X101860588Y-109264342D02*
X101860588Y-109169104D01*
X101860588Y-109169104D02*
X101812969Y-109073866D01*
X101812969Y-109073866D02*
X101765350Y-109026247D01*
X101765350Y-109026247D02*
X101670112Y-108978628D01*
X101670112Y-108978628D02*
X101479636Y-108931009D01*
X101479636Y-108931009D02*
X101384398Y-108883390D01*
X101384398Y-108883390D02*
X101336779Y-108835771D01*
X101336779Y-108835771D02*
X101289160Y-108740533D01*
X101289160Y-108740533D02*
X101289160Y-108645295D01*
X101289160Y-108645295D02*
X101336779Y-108550057D01*
X101336779Y-108550057D02*
X101384398Y-108502438D01*
X101384398Y-108502438D02*
X101479636Y-108454819D01*
X101479636Y-108454819D02*
X101717731Y-108454819D01*
X101717731Y-108454819D02*
X101860588Y-108502438D01*
X102289160Y-109454819D02*
X102289160Y-108454819D01*
X102289160Y-108454819D02*
X102527255Y-108454819D01*
X102527255Y-108454819D02*
X102670112Y-108502438D01*
X102670112Y-108502438D02*
X102765350Y-108597676D01*
X102765350Y-108597676D02*
X102812969Y-108692914D01*
X102812969Y-108692914D02*
X102860588Y-108883390D01*
X102860588Y-108883390D02*
X102860588Y-109026247D01*
X102860588Y-109026247D02*
X102812969Y-109216723D01*
X102812969Y-109216723D02*
X102765350Y-109311961D01*
X102765350Y-109311961D02*
X102670112Y-109407200D01*
X102670112Y-109407200D02*
X102527255Y-109454819D01*
X102527255Y-109454819D02*
X102289160Y-109454819D01*
D10*
X133446741Y-70434912D02*
X133732455Y-70530150D01*
X133732455Y-70530150D02*
X134208646Y-70530150D01*
X134208646Y-70530150D02*
X134399122Y-70434912D01*
X134399122Y-70434912D02*
X134494360Y-70339673D01*
X134494360Y-70339673D02*
X134589598Y-70149197D01*
X134589598Y-70149197D02*
X134589598Y-69958721D01*
X134589598Y-69958721D02*
X134494360Y-69768245D01*
X134494360Y-69768245D02*
X134399122Y-69673007D01*
X134399122Y-69673007D02*
X134208646Y-69577769D01*
X134208646Y-69577769D02*
X133827693Y-69482531D01*
X133827693Y-69482531D02*
X133637217Y-69387292D01*
X133637217Y-69387292D02*
X133541979Y-69292054D01*
X133541979Y-69292054D02*
X133446741Y-69101578D01*
X133446741Y-69101578D02*
X133446741Y-68911102D01*
X133446741Y-68911102D02*
X133541979Y-68720626D01*
X133541979Y-68720626D02*
X133637217Y-68625388D01*
X133637217Y-68625388D02*
X133827693Y-68530150D01*
X133827693Y-68530150D02*
X134303884Y-68530150D01*
X134303884Y-68530150D02*
X134589598Y-68625388D01*
X136303884Y-70530150D02*
X136303884Y-69482531D01*
X136303884Y-69482531D02*
X136208646Y-69292054D01*
X136208646Y-69292054D02*
X136018170Y-69196816D01*
X136018170Y-69196816D02*
X135637217Y-69196816D01*
X135637217Y-69196816D02*
X135446741Y-69292054D01*
X136303884Y-70434912D02*
X136113408Y-70530150D01*
X136113408Y-70530150D02*
X135637217Y-70530150D01*
X135637217Y-70530150D02*
X135446741Y-70434912D01*
X135446741Y-70434912D02*
X135351503Y-70244435D01*
X135351503Y-70244435D02*
X135351503Y-70053959D01*
X135351503Y-70053959D02*
X135446741Y-69863483D01*
X135446741Y-69863483D02*
X135637217Y-69768245D01*
X135637217Y-69768245D02*
X136113408Y-69768245D01*
X136113408Y-69768245D02*
X136303884Y-69673007D01*
X137256265Y-70530150D02*
X137256265Y-69196816D01*
X137256265Y-68530150D02*
X137161027Y-68625388D01*
X137161027Y-68625388D02*
X137256265Y-68720626D01*
X137256265Y-68720626D02*
X137351503Y-68625388D01*
X137351503Y-68625388D02*
X137256265Y-68530150D01*
X137256265Y-68530150D02*
X137256265Y-68720626D01*
X138494360Y-70530150D02*
X138303884Y-70434912D01*
X138303884Y-70434912D02*
X138208646Y-70244435D01*
X138208646Y-70244435D02*
X138208646Y-68530150D01*
X138970551Y-69196816D02*
X139732455Y-69196816D01*
X139256265Y-70530150D02*
X139256265Y-68815864D01*
X139256265Y-68815864D02*
X139351503Y-68625388D01*
X139351503Y-68625388D02*
X139541979Y-68530150D01*
X139541979Y-68530150D02*
X139732455Y-68530150D01*
X140399122Y-70530150D02*
X140399122Y-69196816D01*
X140399122Y-69577769D02*
X140494360Y-69387292D01*
X140494360Y-69387292D02*
X140589598Y-69292054D01*
X140589598Y-69292054D02*
X140780074Y-69196816D01*
X140780074Y-69196816D02*
X140970551Y-69196816D01*
X142494360Y-70530150D02*
X142494360Y-69482531D01*
X142494360Y-69482531D02*
X142399122Y-69292054D01*
X142399122Y-69292054D02*
X142208646Y-69196816D01*
X142208646Y-69196816D02*
X141827693Y-69196816D01*
X141827693Y-69196816D02*
X141637217Y-69292054D01*
X142494360Y-70434912D02*
X142303884Y-70530150D01*
X142303884Y-70530150D02*
X141827693Y-70530150D01*
X141827693Y-70530150D02*
X141637217Y-70434912D01*
X141637217Y-70434912D02*
X141541979Y-70244435D01*
X141541979Y-70244435D02*
X141541979Y-70053959D01*
X141541979Y-70053959D02*
X141637217Y-69863483D01*
X141637217Y-69863483D02*
X141827693Y-69768245D01*
X141827693Y-69768245D02*
X142303884Y-69768245D01*
X142303884Y-69768245D02*
X142494360Y-69673007D01*
X143446741Y-70530150D02*
X143446741Y-69196816D01*
X143446741Y-69387292D02*
X143541979Y-69292054D01*
X143541979Y-69292054D02*
X143732455Y-69196816D01*
X143732455Y-69196816D02*
X144018170Y-69196816D01*
X144018170Y-69196816D02*
X144208646Y-69292054D01*
X144208646Y-69292054D02*
X144303884Y-69482531D01*
X144303884Y-69482531D02*
X144303884Y-70530150D01*
X144303884Y-69482531D02*
X144399122Y-69292054D01*
X144399122Y-69292054D02*
X144589598Y-69196816D01*
X144589598Y-69196816D02*
X144875312Y-69196816D01*
X144875312Y-69196816D02*
X145065789Y-69292054D01*
X145065789Y-69292054D02*
X145161027Y-69482531D01*
X145161027Y-69482531D02*
X145161027Y-70530150D01*
X146875313Y-70434912D02*
X146684837Y-70530150D01*
X146684837Y-70530150D02*
X146303884Y-70530150D01*
X146303884Y-70530150D02*
X146113408Y-70434912D01*
X146113408Y-70434912D02*
X146018170Y-70244435D01*
X146018170Y-70244435D02*
X146018170Y-69482531D01*
X146018170Y-69482531D02*
X146113408Y-69292054D01*
X146113408Y-69292054D02*
X146303884Y-69196816D01*
X146303884Y-69196816D02*
X146684837Y-69196816D01*
X146684837Y-69196816D02*
X146875313Y-69292054D01*
X146875313Y-69292054D02*
X146970551Y-69482531D01*
X146970551Y-69482531D02*
X146970551Y-69673007D01*
X146970551Y-69673007D02*
X146018170Y-69863483D01*
X147732456Y-70434912D02*
X147922932Y-70530150D01*
X147922932Y-70530150D02*
X148303884Y-70530150D01*
X148303884Y-70530150D02*
X148494361Y-70434912D01*
X148494361Y-70434912D02*
X148589599Y-70244435D01*
X148589599Y-70244435D02*
X148589599Y-70149197D01*
X148589599Y-70149197D02*
X148494361Y-69958721D01*
X148494361Y-69958721D02*
X148303884Y-69863483D01*
X148303884Y-69863483D02*
X148018170Y-69863483D01*
X148018170Y-69863483D02*
X147827694Y-69768245D01*
X147827694Y-69768245D02*
X147732456Y-69577769D01*
X147732456Y-69577769D02*
X147732456Y-69482531D01*
X147732456Y-69482531D02*
X147827694Y-69292054D01*
X147827694Y-69292054D02*
X148018170Y-69196816D01*
X148018170Y-69196816D02*
X148303884Y-69196816D01*
X148303884Y-69196816D02*
X148494361Y-69292054D01*
X149446742Y-70339673D02*
X149541980Y-70434912D01*
X149541980Y-70434912D02*
X149446742Y-70530150D01*
X149446742Y-70530150D02*
X149351504Y-70434912D01*
X149351504Y-70434912D02*
X149446742Y-70339673D01*
X149446742Y-70339673D02*
X149446742Y-70530150D01*
X151256266Y-70434912D02*
X151065790Y-70530150D01*
X151065790Y-70530150D02*
X150684837Y-70530150D01*
X150684837Y-70530150D02*
X150494361Y-70434912D01*
X150494361Y-70434912D02*
X150399123Y-70339673D01*
X150399123Y-70339673D02*
X150303885Y-70149197D01*
X150303885Y-70149197D02*
X150303885Y-69577769D01*
X150303885Y-69577769D02*
X150399123Y-69387292D01*
X150399123Y-69387292D02*
X150494361Y-69292054D01*
X150494361Y-69292054D02*
X150684837Y-69196816D01*
X150684837Y-69196816D02*
X151065790Y-69196816D01*
X151065790Y-69196816D02*
X151256266Y-69292054D01*
X152399123Y-70530150D02*
X152208647Y-70434912D01*
X152208647Y-70434912D02*
X152113409Y-70339673D01*
X152113409Y-70339673D02*
X152018171Y-70149197D01*
X152018171Y-70149197D02*
X152018171Y-69577769D01*
X152018171Y-69577769D02*
X152113409Y-69387292D01*
X152113409Y-69387292D02*
X152208647Y-69292054D01*
X152208647Y-69292054D02*
X152399123Y-69196816D01*
X152399123Y-69196816D02*
X152684838Y-69196816D01*
X152684838Y-69196816D02*
X152875314Y-69292054D01*
X152875314Y-69292054D02*
X152970552Y-69387292D01*
X152970552Y-69387292D02*
X153065790Y-69577769D01*
X153065790Y-69577769D02*
X153065790Y-70149197D01*
X153065790Y-70149197D02*
X152970552Y-70339673D01*
X152970552Y-70339673D02*
X152875314Y-70434912D01*
X152875314Y-70434912D02*
X152684838Y-70530150D01*
X152684838Y-70530150D02*
X152399123Y-70530150D01*
X153922933Y-70530150D02*
X153922933Y-69196816D01*
X153922933Y-69387292D02*
X154018171Y-69292054D01*
X154018171Y-69292054D02*
X154208647Y-69196816D01*
X154208647Y-69196816D02*
X154494362Y-69196816D01*
X154494362Y-69196816D02*
X154684838Y-69292054D01*
X154684838Y-69292054D02*
X154780076Y-69482531D01*
X154780076Y-69482531D02*
X154780076Y-70530150D01*
X154780076Y-69482531D02*
X154875314Y-69292054D01*
X154875314Y-69292054D02*
X155065790Y-69196816D01*
X155065790Y-69196816D02*
X155351504Y-69196816D01*
X155351504Y-69196816D02*
X155541981Y-69292054D01*
X155541981Y-69292054D02*
X155637219Y-69482531D01*
X155637219Y-69482531D02*
X155637219Y-70530150D01*
X134208646Y-72702419D02*
X134494360Y-72797657D01*
X134494360Y-72797657D02*
X134589598Y-72892895D01*
X134589598Y-72892895D02*
X134684836Y-73083371D01*
X134684836Y-73083371D02*
X134684836Y-73369085D01*
X134684836Y-73369085D02*
X134589598Y-73559561D01*
X134589598Y-73559561D02*
X134494360Y-73654800D01*
X134494360Y-73654800D02*
X134303884Y-73750038D01*
X134303884Y-73750038D02*
X133541979Y-73750038D01*
X133541979Y-73750038D02*
X133541979Y-71750038D01*
X133541979Y-71750038D02*
X134208646Y-71750038D01*
X134208646Y-71750038D02*
X134399122Y-71845276D01*
X134399122Y-71845276D02*
X134494360Y-71940514D01*
X134494360Y-71940514D02*
X134589598Y-72130990D01*
X134589598Y-72130990D02*
X134589598Y-72321466D01*
X134589598Y-72321466D02*
X134494360Y-72511942D01*
X134494360Y-72511942D02*
X134399122Y-72607180D01*
X134399122Y-72607180D02*
X134208646Y-72702419D01*
X134208646Y-72702419D02*
X133541979Y-72702419D01*
X136589598Y-73750038D02*
X135446741Y-73750038D01*
X136018169Y-73750038D02*
X136018169Y-71750038D01*
X136018169Y-71750038D02*
X135827693Y-72035752D01*
X135827693Y-72035752D02*
X135637217Y-72226228D01*
X135637217Y-72226228D02*
X135446741Y-72321466D01*
X137446741Y-73559561D02*
X137541979Y-73654800D01*
X137541979Y-73654800D02*
X137446741Y-73750038D01*
X137446741Y-73750038D02*
X137351503Y-73654800D01*
X137351503Y-73654800D02*
X137446741Y-73559561D01*
X137446741Y-73559561D02*
X137446741Y-73750038D01*
X138780074Y-71750038D02*
X138970551Y-71750038D01*
X138970551Y-71750038D02*
X139161027Y-71845276D01*
X139161027Y-71845276D02*
X139256265Y-71940514D01*
X139256265Y-71940514D02*
X139351503Y-72130990D01*
X139351503Y-72130990D02*
X139446741Y-72511942D01*
X139446741Y-72511942D02*
X139446741Y-72988133D01*
X139446741Y-72988133D02*
X139351503Y-73369085D01*
X139351503Y-73369085D02*
X139256265Y-73559561D01*
X139256265Y-73559561D02*
X139161027Y-73654800D01*
X139161027Y-73654800D02*
X138970551Y-73750038D01*
X138970551Y-73750038D02*
X138780074Y-73750038D01*
X138780074Y-73750038D02*
X138589598Y-73654800D01*
X138589598Y-73654800D02*
X138494360Y-73559561D01*
X138494360Y-73559561D02*
X138399122Y-73369085D01*
X138399122Y-73369085D02*
X138303884Y-72988133D01*
X138303884Y-72988133D02*
X138303884Y-72511942D01*
X138303884Y-72511942D02*
X138399122Y-72130990D01*
X138399122Y-72130990D02*
X138494360Y-71940514D01*
X138494360Y-71940514D02*
X138589598Y-71845276D01*
X138589598Y-71845276D02*
X138780074Y-71750038D01*
D11*
X145110476Y-132002438D02*
X145015238Y-131954819D01*
X145015238Y-131954819D02*
X144872381Y-131954819D01*
X144872381Y-131954819D02*
X144729524Y-132002438D01*
X144729524Y-132002438D02*
X144634286Y-132097676D01*
X144634286Y-132097676D02*
X144586667Y-132192914D01*
X144586667Y-132192914D02*
X144539048Y-132383390D01*
X144539048Y-132383390D02*
X144539048Y-132526247D01*
X144539048Y-132526247D02*
X144586667Y-132716723D01*
X144586667Y-132716723D02*
X144634286Y-132811961D01*
X144634286Y-132811961D02*
X144729524Y-132907200D01*
X144729524Y-132907200D02*
X144872381Y-132954819D01*
X144872381Y-132954819D02*
X144967619Y-132954819D01*
X144967619Y-132954819D02*
X145110476Y-132907200D01*
X145110476Y-132907200D02*
X145158095Y-132859580D01*
X145158095Y-132859580D02*
X145158095Y-132526247D01*
X145158095Y-132526247D02*
X144967619Y-132526247D01*
X145586667Y-132954819D02*
X145586667Y-131954819D01*
X145586667Y-131954819D02*
X145967619Y-131954819D01*
X145967619Y-131954819D02*
X146062857Y-132002438D01*
X146062857Y-132002438D02*
X146110476Y-132050057D01*
X146110476Y-132050057D02*
X146158095Y-132145295D01*
X146158095Y-132145295D02*
X146158095Y-132288152D01*
X146158095Y-132288152D02*
X146110476Y-132383390D01*
X146110476Y-132383390D02*
X146062857Y-132431009D01*
X146062857Y-132431009D02*
X145967619Y-132478628D01*
X145967619Y-132478628D02*
X145586667Y-132478628D01*
X146586667Y-132954819D02*
X146586667Y-131954819D01*
X147253333Y-131954819D02*
X147443809Y-131954819D01*
X147443809Y-131954819D02*
X147539047Y-132002438D01*
X147539047Y-132002438D02*
X147634285Y-132097676D01*
X147634285Y-132097676D02*
X147681904Y-132288152D01*
X147681904Y-132288152D02*
X147681904Y-132621485D01*
X147681904Y-132621485D02*
X147634285Y-132811961D01*
X147634285Y-132811961D02*
X147539047Y-132907200D01*
X147539047Y-132907200D02*
X147443809Y-132954819D01*
X147443809Y-132954819D02*
X147253333Y-132954819D01*
X147253333Y-132954819D02*
X147158095Y-132907200D01*
X147158095Y-132907200D02*
X147062857Y-132811961D01*
X147062857Y-132811961D02*
X147015238Y-132621485D01*
X147015238Y-132621485D02*
X147015238Y-132288152D01*
X147015238Y-132288152D02*
X147062857Y-132097676D01*
X147062857Y-132097676D02*
X147158095Y-132002438D01*
X147158095Y-132002438D02*
X147253333Y-131954819D01*
X147872381Y-133050057D02*
X148634285Y-133050057D01*
X148872381Y-132431009D02*
X149205714Y-132431009D01*
X149348571Y-132954819D02*
X148872381Y-132954819D01*
X148872381Y-132954819D02*
X148872381Y-131954819D01*
X148872381Y-131954819D02*
X149348571Y-131954819D01*
X149681905Y-131954819D02*
X150348571Y-132954819D01*
X150348571Y-131954819D02*
X149681905Y-132954819D01*
X150729524Y-132954819D02*
X150729524Y-131954819D01*
X150729524Y-131954819D02*
X151110476Y-131954819D01*
X151110476Y-131954819D02*
X151205714Y-132002438D01*
X151205714Y-132002438D02*
X151253333Y-132050057D01*
X151253333Y-132050057D02*
X151300952Y-132145295D01*
X151300952Y-132145295D02*
X151300952Y-132288152D01*
X151300952Y-132288152D02*
X151253333Y-132383390D01*
X151253333Y-132383390D02*
X151205714Y-132431009D01*
X151205714Y-132431009D02*
X151110476Y-132478628D01*
X151110476Y-132478628D02*
X150729524Y-132478628D01*
X101454819Y-84857142D02*
X102264342Y-84857142D01*
X102264342Y-84857142D02*
X102359580Y-84809523D01*
X102359580Y-84809523D02*
X102407200Y-84761904D01*
X102407200Y-84761904D02*
X102454819Y-84666666D01*
X102454819Y-84666666D02*
X102454819Y-84476190D01*
X102454819Y-84476190D02*
X102407200Y-84380952D01*
X102407200Y-84380952D02*
X102359580Y-84333333D01*
X102359580Y-84333333D02*
X102264342Y-84285714D01*
X102264342Y-84285714D02*
X101454819Y-84285714D01*
X102359580Y-83809523D02*
X102407200Y-83761904D01*
X102407200Y-83761904D02*
X102454819Y-83809523D01*
X102454819Y-83809523D02*
X102407200Y-83857142D01*
X102407200Y-83857142D02*
X102359580Y-83809523D01*
X102359580Y-83809523D02*
X102454819Y-83809523D01*
X101931009Y-83000000D02*
X101931009Y-83333333D01*
X102454819Y-83333333D02*
X101454819Y-83333333D01*
X101454819Y-83333333D02*
X101454819Y-82857143D01*
X102454819Y-82000000D02*
X102454819Y-82476190D01*
X102454819Y-82476190D02*
X101454819Y-82476190D01*
X154994819Y-128309523D02*
X155709104Y-128309523D01*
X155709104Y-128309523D02*
X155851961Y-128357142D01*
X155851961Y-128357142D02*
X155947200Y-128452380D01*
X155947200Y-128452380D02*
X155994819Y-128595237D01*
X155994819Y-128595237D02*
X155994819Y-128690475D01*
X155994819Y-127309523D02*
X155994819Y-127880951D01*
X155994819Y-127595237D02*
X154994819Y-127595237D01*
X154994819Y-127595237D02*
X155137676Y-127690475D01*
X155137676Y-127690475D02*
X155232914Y-127785713D01*
X155232914Y-127785713D02*
X155280533Y-127880951D01*
X155994819Y-126357142D02*
X155994819Y-126928570D01*
X155994819Y-126642856D02*
X154994819Y-126642856D01*
X154994819Y-126642856D02*
X155137676Y-126738094D01*
X155137676Y-126738094D02*
X155232914Y-126833332D01*
X155232914Y-126833332D02*
X155280533Y-126928570D01*
X168738095Y-127954819D02*
X168738095Y-126954819D01*
X169166666Y-127050057D02*
X169214285Y-127002438D01*
X169214285Y-127002438D02*
X169309523Y-126954819D01*
X169309523Y-126954819D02*
X169547618Y-126954819D01*
X169547618Y-126954819D02*
X169642856Y-127002438D01*
X169642856Y-127002438D02*
X169690475Y-127050057D01*
X169690475Y-127050057D02*
X169738094Y-127145295D01*
X169738094Y-127145295D02*
X169738094Y-127240533D01*
X169738094Y-127240533D02*
X169690475Y-127383390D01*
X169690475Y-127383390D02*
X169119047Y-127954819D01*
X169119047Y-127954819D02*
X169738094Y-127954819D01*
X170738094Y-127859580D02*
X170690475Y-127907200D01*
X170690475Y-127907200D02*
X170547618Y-127954819D01*
X170547618Y-127954819D02*
X170452380Y-127954819D01*
X170452380Y-127954819D02*
X170309523Y-127907200D01*
X170309523Y-127907200D02*
X170214285Y-127811961D01*
X170214285Y-127811961D02*
X170166666Y-127716723D01*
X170166666Y-127716723D02*
X170119047Y-127526247D01*
X170119047Y-127526247D02*
X170119047Y-127383390D01*
X170119047Y-127383390D02*
X170166666Y-127192914D01*
X170166666Y-127192914D02*
X170214285Y-127097676D01*
X170214285Y-127097676D02*
X170309523Y-127002438D01*
X170309523Y-127002438D02*
X170452380Y-126954819D01*
X170452380Y-126954819D02*
X170547618Y-126954819D01*
X170547618Y-126954819D02*
X170690475Y-127002438D01*
X170690475Y-127002438D02*
X170738094Y-127050057D01*
X170928571Y-128050057D02*
X171690475Y-128050057D01*
X171928571Y-127431009D02*
X172261904Y-127431009D01*
X172404761Y-127954819D02*
X171928571Y-127954819D01*
X171928571Y-127954819D02*
X171928571Y-126954819D01*
X171928571Y-126954819D02*
X172404761Y-126954819D01*
X172738095Y-126954819D02*
X173404761Y-127954819D01*
X173404761Y-126954819D02*
X172738095Y-127954819D01*
X173785714Y-127954819D02*
X173785714Y-126954819D01*
X173785714Y-126954819D02*
X174166666Y-126954819D01*
X174166666Y-126954819D02*
X174261904Y-127002438D01*
X174261904Y-127002438D02*
X174309523Y-127050057D01*
X174309523Y-127050057D02*
X174357142Y-127145295D01*
X174357142Y-127145295D02*
X174357142Y-127288152D01*
X174357142Y-127288152D02*
X174309523Y-127383390D01*
X174309523Y-127383390D02*
X174261904Y-127431009D01*
X174261904Y-127431009D02*
X174166666Y-127478628D01*
X174166666Y-127478628D02*
X173785714Y-127478628D01*
X174738095Y-127050057D02*
X174785714Y-127002438D01*
X174785714Y-127002438D02*
X174880952Y-126954819D01*
X174880952Y-126954819D02*
X175119047Y-126954819D01*
X175119047Y-126954819D02*
X175214285Y-127002438D01*
X175214285Y-127002438D02*
X175261904Y-127050057D01*
X175261904Y-127050057D02*
X175309523Y-127145295D01*
X175309523Y-127145295D02*
X175309523Y-127240533D01*
X175309523Y-127240533D02*
X175261904Y-127383390D01*
X175261904Y-127383390D02*
X174690476Y-127954819D01*
X174690476Y-127954819D02*
X175309523Y-127954819D01*
X119337895Y-71454819D02*
X119337895Y-72264342D01*
X119337895Y-72264342D02*
X119385514Y-72359580D01*
X119385514Y-72359580D02*
X119433133Y-72407200D01*
X119433133Y-72407200D02*
X119528371Y-72454819D01*
X119528371Y-72454819D02*
X119718847Y-72454819D01*
X119718847Y-72454819D02*
X119814085Y-72407200D01*
X119814085Y-72407200D02*
X119861704Y-72359580D01*
X119861704Y-72359580D02*
X119909323Y-72264342D01*
X119909323Y-72264342D02*
X119909323Y-71454819D01*
X120909323Y-72454819D02*
X120337895Y-72454819D01*
X120623609Y-72454819D02*
X120623609Y-71454819D01*
X120623609Y-71454819D02*
X120528371Y-71597676D01*
X120528371Y-71597676D02*
X120433133Y-71692914D01*
X120433133Y-71692914D02*
X120337895Y-71740533D01*
X116480740Y-68954819D02*
X116004550Y-68954819D01*
X116004550Y-68954819D02*
X116004550Y-67954819D01*
X117385502Y-68859580D02*
X117337883Y-68907200D01*
X117337883Y-68907200D02*
X117195026Y-68954819D01*
X117195026Y-68954819D02*
X117099788Y-68954819D01*
X117099788Y-68954819D02*
X116956931Y-68907200D01*
X116956931Y-68907200D02*
X116861693Y-68811961D01*
X116861693Y-68811961D02*
X116814074Y-68716723D01*
X116814074Y-68716723D02*
X116766455Y-68526247D01*
X116766455Y-68526247D02*
X116766455Y-68383390D01*
X116766455Y-68383390D02*
X116814074Y-68192914D01*
X116814074Y-68192914D02*
X116861693Y-68097676D01*
X116861693Y-68097676D02*
X116956931Y-68002438D01*
X116956931Y-68002438D02*
X117099788Y-67954819D01*
X117099788Y-67954819D02*
X117195026Y-67954819D01*
X117195026Y-67954819D02*
X117337883Y-68002438D01*
X117337883Y-68002438D02*
X117385502Y-68050057D01*
X117766455Y-68050057D02*
X117814074Y-68002438D01*
X117814074Y-68002438D02*
X117909312Y-67954819D01*
X117909312Y-67954819D02*
X118147407Y-67954819D01*
X118147407Y-67954819D02*
X118242645Y-68002438D01*
X118242645Y-68002438D02*
X118290264Y-68050057D01*
X118290264Y-68050057D02*
X118337883Y-68145295D01*
X118337883Y-68145295D02*
X118337883Y-68240533D01*
X118337883Y-68240533D02*
X118290264Y-68383390D01*
X118290264Y-68383390D02*
X117718836Y-68954819D01*
X117718836Y-68954819D02*
X118337883Y-68954819D01*
X118814074Y-68954819D02*
X119004550Y-68954819D01*
X119004550Y-68954819D02*
X119099788Y-68907200D01*
X119099788Y-68907200D02*
X119147407Y-68859580D01*
X119147407Y-68859580D02*
X119242645Y-68716723D01*
X119242645Y-68716723D02*
X119290264Y-68526247D01*
X119290264Y-68526247D02*
X119290264Y-68145295D01*
X119290264Y-68145295D02*
X119242645Y-68050057D01*
X119242645Y-68050057D02*
X119195026Y-68002438D01*
X119195026Y-68002438D02*
X119099788Y-67954819D01*
X119099788Y-67954819D02*
X118909312Y-67954819D01*
X118909312Y-67954819D02*
X118814074Y-68002438D01*
X118814074Y-68002438D02*
X118766455Y-68050057D01*
X118766455Y-68050057D02*
X118718836Y-68145295D01*
X118718836Y-68145295D02*
X118718836Y-68383390D01*
X118718836Y-68383390D02*
X118766455Y-68478628D01*
X118766455Y-68478628D02*
X118814074Y-68526247D01*
X118814074Y-68526247D02*
X118909312Y-68573866D01*
X118909312Y-68573866D02*
X119099788Y-68573866D01*
X119099788Y-68573866D02*
X119195026Y-68526247D01*
X119195026Y-68526247D02*
X119242645Y-68478628D01*
X119242645Y-68478628D02*
X119290264Y-68383390D01*
X119718836Y-68954819D02*
X119718836Y-67954819D01*
X119718836Y-68431009D02*
X120290264Y-68431009D01*
X120290264Y-68954819D02*
X120290264Y-67954819D01*
X120766455Y-68431009D02*
X121099788Y-68431009D01*
X121242645Y-68954819D02*
X120766455Y-68954819D01*
X120766455Y-68954819D02*
X120766455Y-67954819D01*
X120766455Y-67954819D02*
X121242645Y-67954819D01*
X121623598Y-68669104D02*
X122099788Y-68669104D01*
X121528360Y-68954819D02*
X121861693Y-67954819D01*
X121861693Y-67954819D02*
X122195026Y-68954819D01*
X122528360Y-68954819D02*
X122528360Y-67954819D01*
X122528360Y-67954819D02*
X122861693Y-68669104D01*
X122861693Y-68669104D02*
X123195026Y-67954819D01*
X123195026Y-67954819D02*
X123195026Y-68954819D01*
X123671217Y-68954819D02*
X123671217Y-67954819D01*
X123671217Y-67954819D02*
X123909312Y-67954819D01*
X123909312Y-67954819D02*
X124052169Y-68002438D01*
X124052169Y-68002438D02*
X124147407Y-68097676D01*
X124147407Y-68097676D02*
X124195026Y-68192914D01*
X124195026Y-68192914D02*
X124242645Y-68383390D01*
X124242645Y-68383390D02*
X124242645Y-68526247D01*
X124242645Y-68526247D02*
X124195026Y-68716723D01*
X124195026Y-68716723D02*
X124147407Y-68811961D01*
X124147407Y-68811961D02*
X124052169Y-68907200D01*
X124052169Y-68907200D02*
X123909312Y-68954819D01*
X123909312Y-68954819D02*
X123671217Y-68954819D01*
X101002438Y-78595238D02*
X100954819Y-78690476D01*
X100954819Y-78690476D02*
X100954819Y-78833333D01*
X100954819Y-78833333D02*
X101002438Y-78976190D01*
X101002438Y-78976190D02*
X101097676Y-79071428D01*
X101097676Y-79071428D02*
X101192914Y-79119047D01*
X101192914Y-79119047D02*
X101383390Y-79166666D01*
X101383390Y-79166666D02*
X101526247Y-79166666D01*
X101526247Y-79166666D02*
X101716723Y-79119047D01*
X101716723Y-79119047D02*
X101811961Y-79071428D01*
X101811961Y-79071428D02*
X101907200Y-78976190D01*
X101907200Y-78976190D02*
X101954819Y-78833333D01*
X101954819Y-78833333D02*
X101954819Y-78738095D01*
X101954819Y-78738095D02*
X101907200Y-78595238D01*
X101907200Y-78595238D02*
X101859580Y-78547619D01*
X101859580Y-78547619D02*
X101526247Y-78547619D01*
X101526247Y-78547619D02*
X101526247Y-78738095D01*
X101954819Y-78119047D02*
X100954819Y-78119047D01*
X100954819Y-78119047D02*
X101954819Y-77547619D01*
X101954819Y-77547619D02*
X100954819Y-77547619D01*
X101907200Y-77119047D02*
X101954819Y-76976190D01*
X101954819Y-76976190D02*
X101954819Y-76738095D01*
X101954819Y-76738095D02*
X101907200Y-76642857D01*
X101907200Y-76642857D02*
X101859580Y-76595238D01*
X101859580Y-76595238D02*
X101764342Y-76547619D01*
X101764342Y-76547619D02*
X101669104Y-76547619D01*
X101669104Y-76547619D02*
X101573866Y-76595238D01*
X101573866Y-76595238D02*
X101526247Y-76642857D01*
X101526247Y-76642857D02*
X101478628Y-76738095D01*
X101478628Y-76738095D02*
X101431009Y-76928571D01*
X101431009Y-76928571D02*
X101383390Y-77023809D01*
X101383390Y-77023809D02*
X101335771Y-77071428D01*
X101335771Y-77071428D02*
X101240533Y-77119047D01*
X101240533Y-77119047D02*
X101145295Y-77119047D01*
X101145295Y-77119047D02*
X101050057Y-77071428D01*
X101050057Y-77071428D02*
X101002438Y-77023809D01*
X101002438Y-77023809D02*
X100954819Y-76928571D01*
X100954819Y-76928571D02*
X100954819Y-76690476D01*
X100954819Y-76690476D02*
X101002438Y-76547619D01*
X101907200Y-76166666D02*
X101954819Y-76023809D01*
X101954819Y-76023809D02*
X101954819Y-75785714D01*
X101954819Y-75785714D02*
X101907200Y-75690476D01*
X101907200Y-75690476D02*
X101859580Y-75642857D01*
X101859580Y-75642857D02*
X101764342Y-75595238D01*
X101764342Y-75595238D02*
X101669104Y-75595238D01*
X101669104Y-75595238D02*
X101573866Y-75642857D01*
X101573866Y-75642857D02*
X101526247Y-75690476D01*
X101526247Y-75690476D02*
X101478628Y-75785714D01*
X101478628Y-75785714D02*
X101431009Y-75976190D01*
X101431009Y-75976190D02*
X101383390Y-76071428D01*
X101383390Y-76071428D02*
X101335771Y-76119047D01*
X101335771Y-76119047D02*
X101240533Y-76166666D01*
X101240533Y-76166666D02*
X101145295Y-76166666D01*
X101145295Y-76166666D02*
X101050057Y-76119047D01*
X101050057Y-76119047D02*
X101002438Y-76071428D01*
X101002438Y-76071428D02*
X100954819Y-75976190D01*
X100954819Y-75976190D02*
X100954819Y-75738095D01*
X100954819Y-75738095D02*
X101002438Y-75595238D01*
X102050057Y-75404762D02*
X102050057Y-74642857D01*
X101954819Y-74404761D02*
X100954819Y-74404761D01*
X100954819Y-74404761D02*
X100954819Y-74166666D01*
X100954819Y-74166666D02*
X101002438Y-74023809D01*
X101002438Y-74023809D02*
X101097676Y-73928571D01*
X101097676Y-73928571D02*
X101192914Y-73880952D01*
X101192914Y-73880952D02*
X101383390Y-73833333D01*
X101383390Y-73833333D02*
X101526247Y-73833333D01*
X101526247Y-73833333D02*
X101716723Y-73880952D01*
X101716723Y-73880952D02*
X101811961Y-73928571D01*
X101811961Y-73928571D02*
X101907200Y-74023809D01*
X101907200Y-74023809D02*
X101954819Y-74166666D01*
X101954819Y-74166666D02*
X101954819Y-74404761D01*
X101431009Y-73071428D02*
X101478628Y-72928571D01*
X101478628Y-72928571D02*
X101526247Y-72880952D01*
X101526247Y-72880952D02*
X101621485Y-72833333D01*
X101621485Y-72833333D02*
X101764342Y-72833333D01*
X101764342Y-72833333D02*
X101859580Y-72880952D01*
X101859580Y-72880952D02*
X101907200Y-72928571D01*
X101907200Y-72928571D02*
X101954819Y-73023809D01*
X101954819Y-73023809D02*
X101954819Y-73404761D01*
X101954819Y-73404761D02*
X100954819Y-73404761D01*
X100954819Y-73404761D02*
X100954819Y-73071428D01*
X100954819Y-73071428D02*
X101002438Y-72976190D01*
X101002438Y-72976190D02*
X101050057Y-72928571D01*
X101050057Y-72928571D02*
X101145295Y-72880952D01*
X101145295Y-72880952D02*
X101240533Y-72880952D01*
X101240533Y-72880952D02*
X101335771Y-72928571D01*
X101335771Y-72928571D02*
X101383390Y-72976190D01*
X101383390Y-72976190D02*
X101431009Y-73071428D01*
X101431009Y-73071428D02*
X101431009Y-73404761D01*
X101002438Y-71880952D02*
X100954819Y-71976190D01*
X100954819Y-71976190D02*
X100954819Y-72119047D01*
X100954819Y-72119047D02*
X101002438Y-72261904D01*
X101002438Y-72261904D02*
X101097676Y-72357142D01*
X101097676Y-72357142D02*
X101192914Y-72404761D01*
X101192914Y-72404761D02*
X101383390Y-72452380D01*
X101383390Y-72452380D02*
X101526247Y-72452380D01*
X101526247Y-72452380D02*
X101716723Y-72404761D01*
X101716723Y-72404761D02*
X101811961Y-72357142D01*
X101811961Y-72357142D02*
X101907200Y-72261904D01*
X101907200Y-72261904D02*
X101954819Y-72119047D01*
X101954819Y-72119047D02*
X101954819Y-72023809D01*
X101954819Y-72023809D02*
X101907200Y-71880952D01*
X101907200Y-71880952D02*
X101859580Y-71833333D01*
X101859580Y-71833333D02*
X101526247Y-71833333D01*
X101526247Y-71833333D02*
X101526247Y-72023809D01*
X154954819Y-132309523D02*
X155669104Y-132309523D01*
X155669104Y-132309523D02*
X155811961Y-132357142D01*
X155811961Y-132357142D02*
X155907200Y-132452380D01*
X155907200Y-132452380D02*
X155954819Y-132595237D01*
X155954819Y-132595237D02*
X155954819Y-132690475D01*
X155954819Y-131309523D02*
X155954819Y-131880951D01*
X155954819Y-131595237D02*
X154954819Y-131595237D01*
X154954819Y-131595237D02*
X155097676Y-131690475D01*
X155097676Y-131690475D02*
X155192914Y-131785713D01*
X155192914Y-131785713D02*
X155240533Y-131880951D01*
X155050057Y-130928570D02*
X155002438Y-130880951D01*
X155002438Y-130880951D02*
X154954819Y-130785713D01*
X154954819Y-130785713D02*
X154954819Y-130547618D01*
X154954819Y-130547618D02*
X155002438Y-130452380D01*
X155002438Y-130452380D02*
X155050057Y-130404761D01*
X155050057Y-130404761D02*
X155145295Y-130357142D01*
X155145295Y-130357142D02*
X155240533Y-130357142D01*
X155240533Y-130357142D02*
X155383390Y-130404761D01*
X155383390Y-130404761D02*
X155954819Y-130976189D01*
X155954819Y-130976189D02*
X155954819Y-130357142D01*
X168738095Y-132454819D02*
X168738095Y-131454819D01*
X169166666Y-131550057D02*
X169214285Y-131502438D01*
X169214285Y-131502438D02*
X169309523Y-131454819D01*
X169309523Y-131454819D02*
X169547618Y-131454819D01*
X169547618Y-131454819D02*
X169642856Y-131502438D01*
X169642856Y-131502438D02*
X169690475Y-131550057D01*
X169690475Y-131550057D02*
X169738094Y-131645295D01*
X169738094Y-131645295D02*
X169738094Y-131740533D01*
X169738094Y-131740533D02*
X169690475Y-131883390D01*
X169690475Y-131883390D02*
X169119047Y-132454819D01*
X169119047Y-132454819D02*
X169738094Y-132454819D01*
X170738094Y-132359580D02*
X170690475Y-132407200D01*
X170690475Y-132407200D02*
X170547618Y-132454819D01*
X170547618Y-132454819D02*
X170452380Y-132454819D01*
X170452380Y-132454819D02*
X170309523Y-132407200D01*
X170309523Y-132407200D02*
X170214285Y-132311961D01*
X170214285Y-132311961D02*
X170166666Y-132216723D01*
X170166666Y-132216723D02*
X170119047Y-132026247D01*
X170119047Y-132026247D02*
X170119047Y-131883390D01*
X170119047Y-131883390D02*
X170166666Y-131692914D01*
X170166666Y-131692914D02*
X170214285Y-131597676D01*
X170214285Y-131597676D02*
X170309523Y-131502438D01*
X170309523Y-131502438D02*
X170452380Y-131454819D01*
X170452380Y-131454819D02*
X170547618Y-131454819D01*
X170547618Y-131454819D02*
X170690475Y-131502438D01*
X170690475Y-131502438D02*
X170738094Y-131550057D01*
X170928571Y-132550057D02*
X171690475Y-132550057D01*
X171928571Y-131931009D02*
X172261904Y-131931009D01*
X172404761Y-132454819D02*
X171928571Y-132454819D01*
X171928571Y-132454819D02*
X171928571Y-131454819D01*
X171928571Y-131454819D02*
X172404761Y-131454819D01*
X172738095Y-131454819D02*
X173404761Y-132454819D01*
X173404761Y-131454819D02*
X172738095Y-132454819D01*
X173785714Y-132454819D02*
X173785714Y-131454819D01*
X173785714Y-131454819D02*
X174166666Y-131454819D01*
X174166666Y-131454819D02*
X174261904Y-131502438D01*
X174261904Y-131502438D02*
X174309523Y-131550057D01*
X174309523Y-131550057D02*
X174357142Y-131645295D01*
X174357142Y-131645295D02*
X174357142Y-131788152D01*
X174357142Y-131788152D02*
X174309523Y-131883390D01*
X174309523Y-131883390D02*
X174261904Y-131931009D01*
X174261904Y-131931009D02*
X174166666Y-131978628D01*
X174166666Y-131978628D02*
X173785714Y-131978628D01*
X174690476Y-131454819D02*
X175309523Y-131454819D01*
X175309523Y-131454819D02*
X174976190Y-131835771D01*
X174976190Y-131835771D02*
X175119047Y-131835771D01*
X175119047Y-131835771D02*
X175214285Y-131883390D01*
X175214285Y-131883390D02*
X175261904Y-131931009D01*
X175261904Y-131931009D02*
X175309523Y-132026247D01*
X175309523Y-132026247D02*
X175309523Y-132264342D01*
X175309523Y-132264342D02*
X175261904Y-132359580D01*
X175261904Y-132359580D02*
X175214285Y-132407200D01*
X175214285Y-132407200D02*
X175119047Y-132454819D01*
X175119047Y-132454819D02*
X174833333Y-132454819D01*
X174833333Y-132454819D02*
X174738095Y-132407200D01*
X174738095Y-132407200D02*
X174690476Y-132359580D01*
X154954819Y-124809523D02*
X155669104Y-124809523D01*
X155669104Y-124809523D02*
X155811961Y-124857142D01*
X155811961Y-124857142D02*
X155907200Y-124952380D01*
X155907200Y-124952380D02*
X155954819Y-125095237D01*
X155954819Y-125095237D02*
X155954819Y-125190475D01*
X155954819Y-123809523D02*
X155954819Y-124380951D01*
X155954819Y-124095237D02*
X154954819Y-124095237D01*
X154954819Y-124095237D02*
X155097676Y-124190475D01*
X155097676Y-124190475D02*
X155192914Y-124285713D01*
X155192914Y-124285713D02*
X155240533Y-124380951D01*
X154954819Y-123190475D02*
X154954819Y-123095237D01*
X154954819Y-123095237D02*
X155002438Y-122999999D01*
X155002438Y-122999999D02*
X155050057Y-122952380D01*
X155050057Y-122952380D02*
X155145295Y-122904761D01*
X155145295Y-122904761D02*
X155335771Y-122857142D01*
X155335771Y-122857142D02*
X155573866Y-122857142D01*
X155573866Y-122857142D02*
X155764342Y-122904761D01*
X155764342Y-122904761D02*
X155859580Y-122952380D01*
X155859580Y-122952380D02*
X155907200Y-122999999D01*
X155907200Y-122999999D02*
X155954819Y-123095237D01*
X155954819Y-123095237D02*
X155954819Y-123190475D01*
X155954819Y-123190475D02*
X155907200Y-123285713D01*
X155907200Y-123285713D02*
X155859580Y-123333332D01*
X155859580Y-123333332D02*
X155764342Y-123380951D01*
X155764342Y-123380951D02*
X155573866Y-123428570D01*
X155573866Y-123428570D02*
X155335771Y-123428570D01*
X155335771Y-123428570D02*
X155145295Y-123380951D01*
X155145295Y-123380951D02*
X155050057Y-123333332D01*
X155050057Y-123333332D02*
X155002438Y-123285713D01*
X155002438Y-123285713D02*
X154954819Y-123190475D01*
X168738095Y-124454819D02*
X168738095Y-123454819D01*
X169166666Y-123550057D02*
X169214285Y-123502438D01*
X169214285Y-123502438D02*
X169309523Y-123454819D01*
X169309523Y-123454819D02*
X169547618Y-123454819D01*
X169547618Y-123454819D02*
X169642856Y-123502438D01*
X169642856Y-123502438D02*
X169690475Y-123550057D01*
X169690475Y-123550057D02*
X169738094Y-123645295D01*
X169738094Y-123645295D02*
X169738094Y-123740533D01*
X169738094Y-123740533D02*
X169690475Y-123883390D01*
X169690475Y-123883390D02*
X169119047Y-124454819D01*
X169119047Y-124454819D02*
X169738094Y-124454819D01*
X170738094Y-124359580D02*
X170690475Y-124407200D01*
X170690475Y-124407200D02*
X170547618Y-124454819D01*
X170547618Y-124454819D02*
X170452380Y-124454819D01*
X170452380Y-124454819D02*
X170309523Y-124407200D01*
X170309523Y-124407200D02*
X170214285Y-124311961D01*
X170214285Y-124311961D02*
X170166666Y-124216723D01*
X170166666Y-124216723D02*
X170119047Y-124026247D01*
X170119047Y-124026247D02*
X170119047Y-123883390D01*
X170119047Y-123883390D02*
X170166666Y-123692914D01*
X170166666Y-123692914D02*
X170214285Y-123597676D01*
X170214285Y-123597676D02*
X170309523Y-123502438D01*
X170309523Y-123502438D02*
X170452380Y-123454819D01*
X170452380Y-123454819D02*
X170547618Y-123454819D01*
X170547618Y-123454819D02*
X170690475Y-123502438D01*
X170690475Y-123502438D02*
X170738094Y-123550057D01*
X170928571Y-124550057D02*
X171690475Y-124550057D01*
X171928571Y-123931009D02*
X172261904Y-123931009D01*
X172404761Y-124454819D02*
X171928571Y-124454819D01*
X171928571Y-124454819D02*
X171928571Y-123454819D01*
X171928571Y-123454819D02*
X172404761Y-123454819D01*
X172738095Y-123454819D02*
X173404761Y-124454819D01*
X173404761Y-123454819D02*
X172738095Y-124454819D01*
X173785714Y-124454819D02*
X173785714Y-123454819D01*
X173785714Y-123454819D02*
X174166666Y-123454819D01*
X174166666Y-123454819D02*
X174261904Y-123502438D01*
X174261904Y-123502438D02*
X174309523Y-123550057D01*
X174309523Y-123550057D02*
X174357142Y-123645295D01*
X174357142Y-123645295D02*
X174357142Y-123788152D01*
X174357142Y-123788152D02*
X174309523Y-123883390D01*
X174309523Y-123883390D02*
X174261904Y-123931009D01*
X174261904Y-123931009D02*
X174166666Y-123978628D01*
X174166666Y-123978628D02*
X173785714Y-123978628D01*
X175309523Y-124454819D02*
X174738095Y-124454819D01*
X175023809Y-124454819D02*
X175023809Y-123454819D01*
X175023809Y-123454819D02*
X174928571Y-123597676D01*
X174928571Y-123597676D02*
X174833333Y-123692914D01*
X174833333Y-123692914D02*
X174738095Y-123740533D01*
X126443809Y-131954819D02*
X126443809Y-132764342D01*
X126443809Y-132764342D02*
X126491428Y-132859580D01*
X126491428Y-132859580D02*
X126539047Y-132907200D01*
X126539047Y-132907200D02*
X126634285Y-132954819D01*
X126634285Y-132954819D02*
X126824761Y-132954819D01*
X126824761Y-132954819D02*
X126919999Y-132907200D01*
X126919999Y-132907200D02*
X126967618Y-132859580D01*
X126967618Y-132859580D02*
X127015237Y-132764342D01*
X127015237Y-132764342D02*
X127015237Y-131954819D01*
X127443809Y-132669104D02*
X127919999Y-132669104D01*
X127348571Y-132954819D02*
X127681904Y-131954819D01*
X127681904Y-131954819D02*
X128015237Y-132954819D01*
X128919999Y-132954819D02*
X128586666Y-132478628D01*
X128348571Y-132954819D02*
X128348571Y-131954819D01*
X128348571Y-131954819D02*
X128729523Y-131954819D01*
X128729523Y-131954819D02*
X128824761Y-132002438D01*
X128824761Y-132002438D02*
X128872380Y-132050057D01*
X128872380Y-132050057D02*
X128919999Y-132145295D01*
X128919999Y-132145295D02*
X128919999Y-132288152D01*
X128919999Y-132288152D02*
X128872380Y-132383390D01*
X128872380Y-132383390D02*
X128824761Y-132431009D01*
X128824761Y-132431009D02*
X128729523Y-132478628D01*
X128729523Y-132478628D02*
X128348571Y-132478628D01*
X129205714Y-131954819D02*
X129777142Y-131954819D01*
X129491428Y-132954819D02*
X129491428Y-131954819D01*
X129872381Y-133050057D02*
X130634285Y-133050057D01*
X130872381Y-132954819D02*
X130872381Y-131954819D01*
X130872381Y-131954819D02*
X131110476Y-131954819D01*
X131110476Y-131954819D02*
X131253333Y-132002438D01*
X131253333Y-132002438D02*
X131348571Y-132097676D01*
X131348571Y-132097676D02*
X131396190Y-132192914D01*
X131396190Y-132192914D02*
X131443809Y-132383390D01*
X131443809Y-132383390D02*
X131443809Y-132526247D01*
X131443809Y-132526247D02*
X131396190Y-132716723D01*
X131396190Y-132716723D02*
X131348571Y-132811961D01*
X131348571Y-132811961D02*
X131253333Y-132907200D01*
X131253333Y-132907200D02*
X131110476Y-132954819D01*
X131110476Y-132954819D02*
X130872381Y-132954819D01*
X132205714Y-132431009D02*
X132348571Y-132478628D01*
X132348571Y-132478628D02*
X132396190Y-132526247D01*
X132396190Y-132526247D02*
X132443809Y-132621485D01*
X132443809Y-132621485D02*
X132443809Y-132764342D01*
X132443809Y-132764342D02*
X132396190Y-132859580D01*
X132396190Y-132859580D02*
X132348571Y-132907200D01*
X132348571Y-132907200D02*
X132253333Y-132954819D01*
X132253333Y-132954819D02*
X131872381Y-132954819D01*
X131872381Y-132954819D02*
X131872381Y-131954819D01*
X131872381Y-131954819D02*
X132205714Y-131954819D01*
X132205714Y-131954819D02*
X132300952Y-132002438D01*
X132300952Y-132002438D02*
X132348571Y-132050057D01*
X132348571Y-132050057D02*
X132396190Y-132145295D01*
X132396190Y-132145295D02*
X132396190Y-132240533D01*
X132396190Y-132240533D02*
X132348571Y-132335771D01*
X132348571Y-132335771D02*
X132300952Y-132383390D01*
X132300952Y-132383390D02*
X132205714Y-132431009D01*
X132205714Y-132431009D02*
X131872381Y-132431009D01*
X133396190Y-132002438D02*
X133300952Y-131954819D01*
X133300952Y-131954819D02*
X133158095Y-131954819D01*
X133158095Y-131954819D02*
X133015238Y-132002438D01*
X133015238Y-132002438D02*
X132920000Y-132097676D01*
X132920000Y-132097676D02*
X132872381Y-132192914D01*
X132872381Y-132192914D02*
X132824762Y-132383390D01*
X132824762Y-132383390D02*
X132824762Y-132526247D01*
X132824762Y-132526247D02*
X132872381Y-132716723D01*
X132872381Y-132716723D02*
X132920000Y-132811961D01*
X132920000Y-132811961D02*
X133015238Y-132907200D01*
X133015238Y-132907200D02*
X133158095Y-132954819D01*
X133158095Y-132954819D02*
X133253333Y-132954819D01*
X133253333Y-132954819D02*
X133396190Y-132907200D01*
X133396190Y-132907200D02*
X133443809Y-132859580D01*
X133443809Y-132859580D02*
X133443809Y-132526247D01*
X133443809Y-132526247D02*
X133253333Y-132526247D01*
X166833333Y-82954819D02*
X166833333Y-83669104D01*
X166833333Y-83669104D02*
X166785714Y-83811961D01*
X166785714Y-83811961D02*
X166690476Y-83907200D01*
X166690476Y-83907200D02*
X166547619Y-83954819D01*
X166547619Y-83954819D02*
X166452381Y-83954819D01*
X167071429Y-84050057D02*
X167833333Y-84050057D01*
X168023810Y-83669104D02*
X168500000Y-83669104D01*
X167928572Y-83954819D02*
X168261905Y-82954819D01*
X168261905Y-82954819D02*
X168595238Y-83954819D01*
X168928572Y-82954819D02*
X168928572Y-83764342D01*
X168928572Y-83764342D02*
X168976191Y-83859580D01*
X168976191Y-83859580D02*
X169023810Y-83907200D01*
X169023810Y-83907200D02*
X169119048Y-83954819D01*
X169119048Y-83954819D02*
X169309524Y-83954819D01*
X169309524Y-83954819D02*
X169404762Y-83907200D01*
X169404762Y-83907200D02*
X169452381Y-83859580D01*
X169452381Y-83859580D02*
X169500000Y-83764342D01*
X169500000Y-83764342D02*
X169500000Y-82954819D01*
X169880953Y-82954819D02*
X170547619Y-83954819D01*
X170547619Y-82954819D02*
X169880953Y-83954819D01*
X136404761Y-81431002D02*
X136547618Y-81478621D01*
X136547618Y-81478621D02*
X136595237Y-81526240D01*
X136595237Y-81526240D02*
X136642856Y-81621478D01*
X136642856Y-81621478D02*
X136642856Y-81764335D01*
X136642856Y-81764335D02*
X136595237Y-81859573D01*
X136595237Y-81859573D02*
X136547618Y-81907193D01*
X136547618Y-81907193D02*
X136452380Y-81954812D01*
X136452380Y-81954812D02*
X136071428Y-81954812D01*
X136071428Y-81954812D02*
X136071428Y-80954812D01*
X136071428Y-80954812D02*
X136404761Y-80954812D01*
X136404761Y-80954812D02*
X136499999Y-81002431D01*
X136499999Y-81002431D02*
X136547618Y-81050050D01*
X136547618Y-81050050D02*
X136595237Y-81145288D01*
X136595237Y-81145288D02*
X136595237Y-81240526D01*
X136595237Y-81240526D02*
X136547618Y-81335764D01*
X136547618Y-81335764D02*
X136499999Y-81383383D01*
X136499999Y-81383383D02*
X136404761Y-81431002D01*
X136404761Y-81431002D02*
X136071428Y-81431002D01*
X137071428Y-81954812D02*
X137071428Y-80954812D01*
X137071428Y-80954812D02*
X137642856Y-81954812D01*
X137642856Y-81954812D02*
X137642856Y-80954812D01*
X138309523Y-80954812D02*
X138499999Y-80954812D01*
X138499999Y-80954812D02*
X138595237Y-81002431D01*
X138595237Y-81002431D02*
X138690475Y-81097669D01*
X138690475Y-81097669D02*
X138738094Y-81288145D01*
X138738094Y-81288145D02*
X138738094Y-81621478D01*
X138738094Y-81621478D02*
X138690475Y-81811954D01*
X138690475Y-81811954D02*
X138595237Y-81907193D01*
X138595237Y-81907193D02*
X138499999Y-81954812D01*
X138499999Y-81954812D02*
X138309523Y-81954812D01*
X138309523Y-81954812D02*
X138214285Y-81907193D01*
X138214285Y-81907193D02*
X138119047Y-81811954D01*
X138119047Y-81811954D02*
X138071428Y-81621478D01*
X138071428Y-81621478D02*
X138071428Y-81288145D01*
X138071428Y-81288145D02*
X138119047Y-81097669D01*
X138119047Y-81097669D02*
X138214285Y-81002431D01*
X138214285Y-81002431D02*
X138309523Y-80954812D01*
X139357142Y-80954812D02*
X139452380Y-80954812D01*
X139452380Y-80954812D02*
X139547618Y-81002431D01*
X139547618Y-81002431D02*
X139595237Y-81050050D01*
X139595237Y-81050050D02*
X139642856Y-81145288D01*
X139642856Y-81145288D02*
X139690475Y-81335764D01*
X139690475Y-81335764D02*
X139690475Y-81573859D01*
X139690475Y-81573859D02*
X139642856Y-81764335D01*
X139642856Y-81764335D02*
X139595237Y-81859573D01*
X139595237Y-81859573D02*
X139547618Y-81907193D01*
X139547618Y-81907193D02*
X139452380Y-81954812D01*
X139452380Y-81954812D02*
X139357142Y-81954812D01*
X139357142Y-81954812D02*
X139261904Y-81907193D01*
X139261904Y-81907193D02*
X139214285Y-81859573D01*
X139214285Y-81859573D02*
X139166666Y-81764335D01*
X139166666Y-81764335D02*
X139119047Y-81573859D01*
X139119047Y-81573859D02*
X139119047Y-81335764D01*
X139119047Y-81335764D02*
X139166666Y-81145288D01*
X139166666Y-81145288D02*
X139214285Y-81050050D01*
X139214285Y-81050050D02*
X139261904Y-81002431D01*
X139261904Y-81002431D02*
X139357142Y-80954812D01*
X140261904Y-81383383D02*
X140166666Y-81335764D01*
X140166666Y-81335764D02*
X140119047Y-81288145D01*
X140119047Y-81288145D02*
X140071428Y-81192907D01*
X140071428Y-81192907D02*
X140071428Y-81145288D01*
X140071428Y-81145288D02*
X140119047Y-81050050D01*
X140119047Y-81050050D02*
X140166666Y-81002431D01*
X140166666Y-81002431D02*
X140261904Y-80954812D01*
X140261904Y-80954812D02*
X140452380Y-80954812D01*
X140452380Y-80954812D02*
X140547618Y-81002431D01*
X140547618Y-81002431D02*
X140595237Y-81050050D01*
X140595237Y-81050050D02*
X140642856Y-81145288D01*
X140642856Y-81145288D02*
X140642856Y-81192907D01*
X140642856Y-81192907D02*
X140595237Y-81288145D01*
X140595237Y-81288145D02*
X140547618Y-81335764D01*
X140547618Y-81335764D02*
X140452380Y-81383383D01*
X140452380Y-81383383D02*
X140261904Y-81383383D01*
X140261904Y-81383383D02*
X140166666Y-81431002D01*
X140166666Y-81431002D02*
X140119047Y-81478621D01*
X140119047Y-81478621D02*
X140071428Y-81573859D01*
X140071428Y-81573859D02*
X140071428Y-81764335D01*
X140071428Y-81764335D02*
X140119047Y-81859573D01*
X140119047Y-81859573D02*
X140166666Y-81907193D01*
X140166666Y-81907193D02*
X140261904Y-81954812D01*
X140261904Y-81954812D02*
X140452380Y-81954812D01*
X140452380Y-81954812D02*
X140547618Y-81907193D01*
X140547618Y-81907193D02*
X140595237Y-81859573D01*
X140595237Y-81859573D02*
X140642856Y-81764335D01*
X140642856Y-81764335D02*
X140642856Y-81573859D01*
X140642856Y-81573859D02*
X140595237Y-81478621D01*
X140595237Y-81478621D02*
X140547618Y-81431002D01*
X140547618Y-81431002D02*
X140452380Y-81383383D01*
X141547618Y-80954812D02*
X141071428Y-80954812D01*
X141071428Y-80954812D02*
X141023809Y-81431002D01*
X141023809Y-81431002D02*
X141071428Y-81383383D01*
X141071428Y-81383383D02*
X141166666Y-81335764D01*
X141166666Y-81335764D02*
X141404761Y-81335764D01*
X141404761Y-81335764D02*
X141499999Y-81383383D01*
X141499999Y-81383383D02*
X141547618Y-81431002D01*
X141547618Y-81431002D02*
X141595237Y-81526240D01*
X141595237Y-81526240D02*
X141595237Y-81764335D01*
X141595237Y-81764335D02*
X141547618Y-81859573D01*
X141547618Y-81859573D02*
X141499999Y-81907193D01*
X141499999Y-81907193D02*
X141404761Y-81954812D01*
X141404761Y-81954812D02*
X141166666Y-81954812D01*
X141166666Y-81954812D02*
X141071428Y-81907193D01*
X141071428Y-81907193D02*
X141023809Y-81859573D01*
X141785714Y-82050050D02*
X142547618Y-82050050D01*
X142785714Y-81954812D02*
X142785714Y-80954812D01*
X142785714Y-80954812D02*
X143023809Y-80954812D01*
X143023809Y-80954812D02*
X143166666Y-81002431D01*
X143166666Y-81002431D02*
X143261904Y-81097669D01*
X143261904Y-81097669D02*
X143309523Y-81192907D01*
X143309523Y-81192907D02*
X143357142Y-81383383D01*
X143357142Y-81383383D02*
X143357142Y-81526240D01*
X143357142Y-81526240D02*
X143309523Y-81716716D01*
X143309523Y-81716716D02*
X143261904Y-81811954D01*
X143261904Y-81811954D02*
X143166666Y-81907193D01*
X143166666Y-81907193D02*
X143023809Y-81954812D01*
X143023809Y-81954812D02*
X142785714Y-81954812D01*
X143785714Y-81954812D02*
X143785714Y-80954812D01*
X144833332Y-81954812D02*
X144499999Y-81478621D01*
X144261904Y-81954812D02*
X144261904Y-80954812D01*
X144261904Y-80954812D02*
X144642856Y-80954812D01*
X144642856Y-80954812D02*
X144738094Y-81002431D01*
X144738094Y-81002431D02*
X144785713Y-81050050D01*
X144785713Y-81050050D02*
X144833332Y-81145288D01*
X144833332Y-81145288D02*
X144833332Y-81288145D01*
X144833332Y-81288145D02*
X144785713Y-81383383D01*
X144785713Y-81383383D02*
X144738094Y-81431002D01*
X144738094Y-81431002D02*
X144642856Y-81478621D01*
X144642856Y-81478621D02*
X144261904Y-81478621D01*
X145261904Y-81431002D02*
X145595237Y-81431002D01*
X145738094Y-81954812D02*
X145261904Y-81954812D01*
X145261904Y-81954812D02*
X145261904Y-80954812D01*
X145261904Y-80954812D02*
X145738094Y-80954812D01*
X146738094Y-81859573D02*
X146690475Y-81907193D01*
X146690475Y-81907193D02*
X146547618Y-81954812D01*
X146547618Y-81954812D02*
X146452380Y-81954812D01*
X146452380Y-81954812D02*
X146309523Y-81907193D01*
X146309523Y-81907193D02*
X146214285Y-81811954D01*
X146214285Y-81811954D02*
X146166666Y-81716716D01*
X146166666Y-81716716D02*
X146119047Y-81526240D01*
X146119047Y-81526240D02*
X146119047Y-81383383D01*
X146119047Y-81383383D02*
X146166666Y-81192907D01*
X146166666Y-81192907D02*
X146214285Y-81097669D01*
X146214285Y-81097669D02*
X146309523Y-81002431D01*
X146309523Y-81002431D02*
X146452380Y-80954812D01*
X146452380Y-80954812D02*
X146547618Y-80954812D01*
X146547618Y-80954812D02*
X146690475Y-81002431D01*
X146690475Y-81002431D02*
X146738094Y-81050050D01*
X147023809Y-80954812D02*
X147595237Y-80954812D01*
X147309523Y-81954812D02*
X147309523Y-80954812D01*
X147690476Y-82050050D02*
X148452380Y-82050050D01*
X148642857Y-81907193D02*
X148785714Y-81954812D01*
X148785714Y-81954812D02*
X149023809Y-81954812D01*
X149023809Y-81954812D02*
X149119047Y-81907193D01*
X149119047Y-81907193D02*
X149166666Y-81859573D01*
X149166666Y-81859573D02*
X149214285Y-81764335D01*
X149214285Y-81764335D02*
X149214285Y-81669097D01*
X149214285Y-81669097D02*
X149166666Y-81573859D01*
X149166666Y-81573859D02*
X149119047Y-81526240D01*
X149119047Y-81526240D02*
X149023809Y-81478621D01*
X149023809Y-81478621D02*
X148833333Y-81431002D01*
X148833333Y-81431002D02*
X148738095Y-81383383D01*
X148738095Y-81383383D02*
X148690476Y-81335764D01*
X148690476Y-81335764D02*
X148642857Y-81240526D01*
X148642857Y-81240526D02*
X148642857Y-81145288D01*
X148642857Y-81145288D02*
X148690476Y-81050050D01*
X148690476Y-81050050D02*
X148738095Y-81002431D01*
X148738095Y-81002431D02*
X148833333Y-80954812D01*
X148833333Y-80954812D02*
X149071428Y-80954812D01*
X149071428Y-80954812D02*
X149214285Y-81002431D01*
X149833333Y-80954812D02*
X150023809Y-80954812D01*
X150023809Y-80954812D02*
X150119047Y-81002431D01*
X150119047Y-81002431D02*
X150214285Y-81097669D01*
X150214285Y-81097669D02*
X150261904Y-81288145D01*
X150261904Y-81288145D02*
X150261904Y-81621478D01*
X150261904Y-81621478D02*
X150214285Y-81811954D01*
X150214285Y-81811954D02*
X150119047Y-81907193D01*
X150119047Y-81907193D02*
X150023809Y-81954812D01*
X150023809Y-81954812D02*
X149833333Y-81954812D01*
X149833333Y-81954812D02*
X149738095Y-81907193D01*
X149738095Y-81907193D02*
X149642857Y-81811954D01*
X149642857Y-81811954D02*
X149595238Y-81621478D01*
X149595238Y-81621478D02*
X149595238Y-81288145D01*
X149595238Y-81288145D02*
X149642857Y-81097669D01*
X149642857Y-81097669D02*
X149738095Y-81002431D01*
X149738095Y-81002431D02*
X149833333Y-80954812D01*
X151166666Y-81954812D02*
X150690476Y-81954812D01*
X150690476Y-81954812D02*
X150690476Y-80954812D01*
X151500000Y-81954812D02*
X151500000Y-80954812D01*
X151500000Y-80954812D02*
X151738095Y-80954812D01*
X151738095Y-80954812D02*
X151880952Y-81002431D01*
X151880952Y-81002431D02*
X151976190Y-81097669D01*
X151976190Y-81097669D02*
X152023809Y-81192907D01*
X152023809Y-81192907D02*
X152071428Y-81383383D01*
X152071428Y-81383383D02*
X152071428Y-81526240D01*
X152071428Y-81526240D02*
X152023809Y-81716716D01*
X152023809Y-81716716D02*
X151976190Y-81811954D01*
X151976190Y-81811954D02*
X151880952Y-81907193D01*
X151880952Y-81907193D02*
X151738095Y-81954812D01*
X151738095Y-81954812D02*
X151500000Y-81954812D01*
X152500000Y-81431002D02*
X152833333Y-81431002D01*
X152976190Y-81954812D02*
X152500000Y-81954812D01*
X152500000Y-81954812D02*
X152500000Y-80954812D01*
X152500000Y-80954812D02*
X152976190Y-80954812D01*
X153976190Y-81954812D02*
X153642857Y-81478621D01*
X153404762Y-81954812D02*
X153404762Y-80954812D01*
X153404762Y-80954812D02*
X153785714Y-80954812D01*
X153785714Y-80954812D02*
X153880952Y-81002431D01*
X153880952Y-81002431D02*
X153928571Y-81050050D01*
X153928571Y-81050050D02*
X153976190Y-81145288D01*
X153976190Y-81145288D02*
X153976190Y-81288145D01*
X153976190Y-81288145D02*
X153928571Y-81383383D01*
X153928571Y-81383383D02*
X153880952Y-81431002D01*
X153880952Y-81431002D02*
X153785714Y-81478621D01*
X153785714Y-81478621D02*
X153404762Y-81478621D01*
X121454819Y-107046427D02*
X120454819Y-107046427D01*
X120454819Y-107046427D02*
X121169104Y-106713094D01*
X121169104Y-106713094D02*
X120454819Y-106379761D01*
X120454819Y-106379761D02*
X121454819Y-106379761D01*
X121454819Y-105903570D02*
X120454819Y-105903570D01*
X121359580Y-104855952D02*
X121407200Y-104903571D01*
X121407200Y-104903571D02*
X121454819Y-105046428D01*
X121454819Y-105046428D02*
X121454819Y-105141666D01*
X121454819Y-105141666D02*
X121407200Y-105284523D01*
X121407200Y-105284523D02*
X121311961Y-105379761D01*
X121311961Y-105379761D02*
X121216723Y-105427380D01*
X121216723Y-105427380D02*
X121026247Y-105474999D01*
X121026247Y-105474999D02*
X120883390Y-105474999D01*
X120883390Y-105474999D02*
X120692914Y-105427380D01*
X120692914Y-105427380D02*
X120597676Y-105379761D01*
X120597676Y-105379761D02*
X120502438Y-105284523D01*
X120502438Y-105284523D02*
X120454819Y-105141666D01*
X120454819Y-105141666D02*
X120454819Y-105046428D01*
X120454819Y-105046428D02*
X120502438Y-104903571D01*
X120502438Y-104903571D02*
X120550057Y-104855952D01*
X121454819Y-103855952D02*
X120978628Y-104189285D01*
X121454819Y-104427380D02*
X120454819Y-104427380D01*
X120454819Y-104427380D02*
X120454819Y-104046428D01*
X120454819Y-104046428D02*
X120502438Y-103951190D01*
X120502438Y-103951190D02*
X120550057Y-103903571D01*
X120550057Y-103903571D02*
X120645295Y-103855952D01*
X120645295Y-103855952D02*
X120788152Y-103855952D01*
X120788152Y-103855952D02*
X120883390Y-103903571D01*
X120883390Y-103903571D02*
X120931009Y-103951190D01*
X120931009Y-103951190D02*
X120978628Y-104046428D01*
X120978628Y-104046428D02*
X120978628Y-104427380D01*
X120454819Y-103236904D02*
X120454819Y-103046428D01*
X120454819Y-103046428D02*
X120502438Y-102951190D01*
X120502438Y-102951190D02*
X120597676Y-102855952D01*
X120597676Y-102855952D02*
X120788152Y-102808333D01*
X120788152Y-102808333D02*
X121121485Y-102808333D01*
X121121485Y-102808333D02*
X121311961Y-102855952D01*
X121311961Y-102855952D02*
X121407200Y-102951190D01*
X121407200Y-102951190D02*
X121454819Y-103046428D01*
X121454819Y-103046428D02*
X121454819Y-103236904D01*
X121454819Y-103236904D02*
X121407200Y-103332142D01*
X121407200Y-103332142D02*
X121311961Y-103427380D01*
X121311961Y-103427380D02*
X121121485Y-103474999D01*
X121121485Y-103474999D02*
X120788152Y-103474999D01*
X120788152Y-103474999D02*
X120597676Y-103427380D01*
X120597676Y-103427380D02*
X120502438Y-103332142D01*
X120502438Y-103332142D02*
X120454819Y-103236904D01*
X121407200Y-102427380D02*
X121454819Y-102284523D01*
X121454819Y-102284523D02*
X121454819Y-102046428D01*
X121454819Y-102046428D02*
X121407200Y-101951190D01*
X121407200Y-101951190D02*
X121359580Y-101903571D01*
X121359580Y-101903571D02*
X121264342Y-101855952D01*
X121264342Y-101855952D02*
X121169104Y-101855952D01*
X121169104Y-101855952D02*
X121073866Y-101903571D01*
X121073866Y-101903571D02*
X121026247Y-101951190D01*
X121026247Y-101951190D02*
X120978628Y-102046428D01*
X120978628Y-102046428D02*
X120931009Y-102236904D01*
X120931009Y-102236904D02*
X120883390Y-102332142D01*
X120883390Y-102332142D02*
X120835771Y-102379761D01*
X120835771Y-102379761D02*
X120740533Y-102427380D01*
X120740533Y-102427380D02*
X120645295Y-102427380D01*
X120645295Y-102427380D02*
X120550057Y-102379761D01*
X120550057Y-102379761D02*
X120502438Y-102332142D01*
X120502438Y-102332142D02*
X120454819Y-102236904D01*
X120454819Y-102236904D02*
X120454819Y-101998809D01*
X120454819Y-101998809D02*
X120502438Y-101855952D01*
X121454819Y-101427380D02*
X120454819Y-101427380D01*
X120454819Y-101427380D02*
X120454819Y-101189285D01*
X120454819Y-101189285D02*
X120502438Y-101046428D01*
X120502438Y-101046428D02*
X120597676Y-100951190D01*
X120597676Y-100951190D02*
X120692914Y-100903571D01*
X120692914Y-100903571D02*
X120883390Y-100855952D01*
X120883390Y-100855952D02*
X121026247Y-100855952D01*
X121026247Y-100855952D02*
X121216723Y-100903571D01*
X121216723Y-100903571D02*
X121311961Y-100951190D01*
X121311961Y-100951190D02*
X121407200Y-101046428D01*
X121407200Y-101046428D02*
X121454819Y-101189285D01*
X121454819Y-101189285D02*
X121454819Y-101427380D01*
%TO.C,U3*%
D12*
X159227500Y-141390000D02*
X161047500Y-141390000D01*
X159227500Y-141440000D02*
X159227500Y-141390000D01*
X159227500Y-144510000D02*
X159227500Y-144460000D01*
X161047500Y-141390000D02*
X161047500Y-141440000D01*
X161047500Y-144460000D02*
X161047500Y-144510000D01*
X161047500Y-144510000D02*
X159227500Y-144510000D01*
X158687500Y-141440000D02*
X158447500Y-141110000D01*
X158927500Y-141110000D01*
X158687500Y-141440000D01*
G36*
X158687500Y-141440000D02*
G01*
X158447500Y-141110000D01*
X158927500Y-141110000D01*
X158687500Y-141440000D01*
G37*
%TO.C,R8*%
X107762742Y-92477500D02*
X108237258Y-92477500D01*
X107762742Y-93522500D02*
X108237258Y-93522500D01*
%TO.C,R14*%
X110262742Y-125977500D02*
X110737258Y-125977500D01*
X110262742Y-127022500D02*
X110737258Y-127022500D01*
%TO.C,J9*%
X127920000Y-125380000D02*
X127920000Y-124000000D01*
X129300000Y-125380000D02*
X127920000Y-125380000D01*
X130570000Y-122620000D02*
X153540000Y-122620000D01*
X130570000Y-125380000D02*
X130570000Y-122620000D01*
X130570000Y-125380000D02*
X153540000Y-125380000D01*
X153540000Y-125380000D02*
X153540000Y-122620000D01*
%TO.C,J13*%
X140460000Y-130880000D02*
X140460000Y-129500000D01*
X141840000Y-130880000D02*
X140460000Y-130880000D01*
X143110000Y-128120000D02*
X153380000Y-128120000D01*
X143110000Y-130880000D02*
X143110000Y-128120000D01*
X143110000Y-130880000D02*
X153380000Y-130880000D01*
X153380000Y-130880000D02*
X153380000Y-128120000D01*
%TO.C,C16*%
X162359420Y-89990000D02*
X162640580Y-89990000D01*
X162359420Y-91010000D02*
X162640580Y-91010000D01*
%TO.C,J3*%
X104140000Y-84875000D02*
X104140000Y-82175000D01*
X106860000Y-82125000D02*
X106860000Y-82765000D01*
X106860000Y-84285000D02*
X107490000Y-84285000D01*
X106860000Y-84925000D02*
X106860000Y-84285000D01*
%TO.C,R13*%
X112262742Y-133977500D02*
X112737258Y-133977500D01*
X112262742Y-135022500D02*
X112737258Y-135022500D01*
%TO.C,C15*%
X127990000Y-71365580D02*
X127990000Y-71084420D01*
X129010000Y-71365580D02*
X129010000Y-71084420D01*
%TO.C,R10*%
X156762742Y-149477500D02*
X157237258Y-149477500D01*
X156762742Y-150522500D02*
X157237258Y-150522500D01*
%TO.C,C8*%
X165490000Y-135859420D02*
X165490000Y-136140580D01*
X166510000Y-135859420D02*
X166510000Y-136140580D01*
%TO.C,U_HALL1*%
X102802500Y-124440000D02*
X104322500Y-124440000D01*
X102802500Y-124490000D02*
X102802500Y-124440000D01*
X102802500Y-126390000D02*
X102802500Y-125610000D01*
X102802500Y-127560000D02*
X102802500Y-127510000D01*
X104322500Y-124440000D02*
X104322500Y-125440000D01*
X104322500Y-126560000D02*
X104322500Y-127560000D01*
X104322500Y-127560000D02*
X102802500Y-127560000D01*
X102502500Y-125950000D02*
X102022500Y-125950000D01*
X102262500Y-125620000D01*
X102502500Y-125950000D01*
G36*
X102502500Y-125950000D02*
G01*
X102022500Y-125950000D01*
X102262500Y-125620000D01*
X102502500Y-125950000D01*
G37*
%TO.C,J11*%
X156540000Y-128880000D02*
X156540000Y-127500000D01*
X157920000Y-128880000D02*
X156540000Y-128880000D01*
X159190000Y-126120000D02*
X166920000Y-126120000D01*
X159190000Y-128880000D02*
X159190000Y-126120000D01*
X159190000Y-128880000D02*
X166920000Y-128880000D01*
X166920000Y-128880000D02*
X166920000Y-126120000D01*
%TO.C,J4*%
X129810000Y-118165000D02*
X131140000Y-118165000D01*
X129810000Y-119495000D02*
X129810000Y-118165000D01*
X132410000Y-118165000D02*
X168030000Y-118165000D01*
X132410000Y-120825000D02*
X132410000Y-118165000D01*
X132410000Y-120825000D02*
X168030000Y-120825000D01*
X168030000Y-120825000D02*
X168030000Y-118165000D01*
%TO.C,C3*%
X124634420Y-117990000D02*
X124915580Y-117990000D01*
X124634420Y-119010000D02*
X124915580Y-119010000D01*
%TO.C,R20*%
X107762742Y-88477500D02*
X108237258Y-88477500D01*
X107762742Y-89522500D02*
X108237258Y-89522500D01*
%TO.C,R2*%
X159587742Y-97977500D02*
X160062258Y-97977500D01*
X159587742Y-99022500D02*
X160062258Y-99022500D01*
%TO.C,C17*%
X122859420Y-88990000D02*
X123140580Y-88990000D01*
X122859420Y-90010000D02*
X123140580Y-90010000D01*
%TO.C,R15*%
X103262742Y-132977500D02*
X103737258Y-132977500D01*
X103262742Y-134022500D02*
X103737258Y-134022500D01*
%TO.C,R9*%
X107762742Y-96977500D02*
X108237258Y-96977500D01*
X107762742Y-98022500D02*
X108237258Y-98022500D01*
%TO.C,R12*%
X106762742Y-125977500D02*
X107237258Y-125977500D01*
X106762742Y-127022500D02*
X107237258Y-127022500D01*
%TO.C,R19*%
X107762742Y-109977500D02*
X108237258Y-109977500D01*
X107762742Y-111022500D02*
X108237258Y-111022500D01*
%TO.C,C4*%
X103134420Y-119490000D02*
X103415580Y-119490000D01*
X103134420Y-120510000D02*
X103415580Y-120510000D01*
%TO.C,C1*%
X159634420Y-99990000D02*
X159915580Y-99990000D01*
X159634420Y-101010000D02*
X159915580Y-101010000D01*
%TO.C,D4*%
X102515000Y-101265000D02*
X102515000Y-102735000D01*
X102515000Y-102735000D02*
X104800000Y-102735000D01*
X104800000Y-101265000D02*
X102515000Y-101265000D01*
%TO.C,D7*%
X120510000Y-117850000D02*
X115000000Y-117850000D01*
X120510000Y-121150000D02*
X115000000Y-121150000D01*
X120510000Y-121150000D02*
X120510000Y-117850000D01*
%TO.C,D11*%
X115890000Y-131150000D02*
X115890000Y-132850000D01*
X115890000Y-131150000D02*
X118550000Y-131150000D01*
X115890000Y-132850000D02*
X118550000Y-132850000D01*
%TO.C,R25*%
X138087742Y-102477500D02*
X138562258Y-102477500D01*
X138087742Y-103522500D02*
X138562258Y-103522500D01*
%TO.C,D3*%
X102515000Y-96765000D02*
X102515000Y-98235000D01*
X102515000Y-98235000D02*
X104800000Y-98235000D01*
X104800000Y-96765000D02*
X102515000Y-96765000D01*
%TO.C,C11*%
X109912164Y-83140000D02*
X110127836Y-83140000D01*
X109912164Y-83860000D02*
X110127836Y-83860000D01*
%TO.C,J2*%
X143440000Y-145590000D02*
X143440000Y-153410000D01*
X143440000Y-151810000D02*
X144360000Y-151810000D01*
X143440000Y-153410000D02*
X144360000Y-153410000D01*
X144360000Y-151810000D02*
X144640000Y-151810000D01*
X144360000Y-153410000D02*
X144360000Y-151810000D01*
X146000000Y-149950000D02*
X146000000Y-145590000D01*
X147000000Y-145590000D02*
X147000000Y-149950000D01*
X147000000Y-149950000D02*
X146000000Y-149950000D01*
X147800000Y-147850000D02*
X147800000Y-145590000D01*
X148300000Y-147850000D02*
X148300000Y-145590000D01*
X148360000Y-151810000D02*
X148360000Y-153025000D01*
X148360000Y-151810000D02*
X148640000Y-151810000D01*
X148640000Y-151810000D02*
X148640000Y-153410000D01*
X148640000Y-153410000D02*
X149560000Y-153410000D01*
X149560000Y-145590000D02*
X143440000Y-145590000D01*
X149560000Y-151810000D02*
X148640000Y-151810000D01*
X149560000Y-153410000D02*
X149560000Y-145590000D01*
X144200000Y-147850000D02*
X145200000Y-147850000D01*
X145200000Y-149450000D01*
X144200000Y-149450000D01*
X144200000Y-147850000D01*
X147800000Y-147850000D02*
X148800000Y-147850000D01*
X148800000Y-149450000D01*
X147800000Y-149450000D01*
X147800000Y-147850000D01*
%TO.C,U1*%
D13*
X113999800Y-69868987D02*
X113999800Y-69500127D01*
X113999800Y-79469037D02*
X113999800Y-77731267D01*
X113999800Y-85500178D02*
X113999800Y-85131344D01*
X126199775Y-69500127D02*
X113999800Y-69500127D01*
X126199775Y-69868987D02*
X126199775Y-69500127D01*
X126199775Y-79469037D02*
X126199775Y-77731267D01*
X126199775Y-85500178D02*
X113999800Y-85500178D01*
X126199775Y-85500178D02*
X126199775Y-85131344D01*
X113538205Y-69580264D02*
G75*
G02*
X112961115Y-69580264I-288545J0D01*
G01*
X112961115Y-69580264D02*
G75*
G02*
X113538205Y-69580264I288545J0D01*
G01*
%TO.C,R18*%
D12*
X107762742Y-105477500D02*
X108237258Y-105477500D01*
X107762742Y-106522500D02*
X108237258Y-106522500D01*
%TO.C,Q_INV1*%
X103302500Y-128940000D02*
X104822500Y-128940000D01*
X103302500Y-128990000D02*
X103302500Y-128940000D01*
X103302500Y-130890000D02*
X103302500Y-130110000D01*
X103302500Y-132060000D02*
X103302500Y-132010000D01*
X104822500Y-128940000D02*
X104822500Y-129940000D01*
X104822500Y-131060000D02*
X104822500Y-132060000D01*
X104822500Y-132060000D02*
X103302500Y-132060000D01*
X103002500Y-130450000D02*
X102522500Y-130450000D01*
X102762500Y-130120000D01*
X103002500Y-130450000D01*
G36*
X103002500Y-130450000D02*
G01*
X102522500Y-130450000D01*
X102762500Y-130120000D01*
X103002500Y-130450000D01*
G37*
%TO.C,Q_PWR1*%
X108177500Y-128890000D02*
X109697500Y-128890000D01*
X108177500Y-128940000D02*
X108177500Y-128890000D01*
X108177500Y-130840000D02*
X108177500Y-130060000D01*
X108177500Y-132010000D02*
X108177500Y-131960000D01*
X109697500Y-128890000D02*
X109697500Y-129890000D01*
X109697500Y-131010000D02*
X109697500Y-132010000D01*
X109697500Y-132010000D02*
X108177500Y-132010000D01*
X107877500Y-130400000D02*
X107397500Y-130400000D01*
X107637500Y-130070000D01*
X107877500Y-130400000D01*
G36*
X107877500Y-130400000D02*
G01*
X107397500Y-130400000D01*
X107637500Y-130070000D01*
X107877500Y-130400000D01*
G37*
%TO.C,L1*%
X153400000Y-134400000D02*
X153400000Y-134850000D01*
X153400000Y-134400000D02*
X159600000Y-134400000D01*
X153400000Y-140600000D02*
X153400000Y-140150000D01*
X159600000Y-134400000D02*
X159600000Y-134850000D01*
X159600000Y-140600000D02*
X153400000Y-140600000D01*
X159600000Y-140600000D02*
X159600000Y-140150000D01*
%TO.C,R6*%
X105762742Y-117477500D02*
X106237258Y-117477500D01*
X105762742Y-118522500D02*
X106237258Y-118522500D01*
%TO.C,U2*%
X106790000Y-119440000D02*
X110910000Y-119440000D01*
X106790000Y-119535000D02*
X106790000Y-119440000D01*
X106790000Y-124560000D02*
X106790000Y-124465000D01*
X110910000Y-119440000D02*
X110910000Y-119535000D01*
X110910000Y-124465000D02*
X110910000Y-124560000D01*
X110910000Y-124560000D02*
X106790000Y-124560000D01*
X106250000Y-119530000D02*
X106010000Y-119200000D01*
X106490000Y-119200000D01*
X106250000Y-119530000D01*
G36*
X106250000Y-119530000D02*
G01*
X106010000Y-119200000D01*
X106490000Y-119200000D01*
X106250000Y-119530000D01*
G37*
%TO.C,U_FF1*%
X112075000Y-129650000D02*
X112075000Y-130950000D01*
X114975000Y-129650000D02*
X114975000Y-130950000D01*
X111925000Y-131600000D02*
G75*
G02*
X111625000Y-131600000I-150000J0D01*
G01*
X111625000Y-131600000D02*
G75*
G02*
X111925000Y-131600000I150000J0D01*
G01*
%TO.C,D6*%
X102015000Y-109765000D02*
X102015000Y-111235000D01*
X102015000Y-111235000D02*
X104300000Y-111235000D01*
X104300000Y-109765000D02*
X102015000Y-109765000D01*
%TO.C,U_RST1*%
X107677500Y-133390000D02*
X109197500Y-133390000D01*
X107677500Y-133440000D02*
X107677500Y-133390000D01*
X107677500Y-135340000D02*
X107677500Y-134560000D01*
X107677500Y-136510000D02*
X107677500Y-136460000D01*
X109197500Y-133390000D02*
X109197500Y-134390000D01*
X109197500Y-135510000D02*
X109197500Y-136510000D01*
X109197500Y-136510000D02*
X107677500Y-136510000D01*
X107377500Y-134900000D02*
X106897500Y-134900000D01*
X107137500Y-134570000D01*
X107377500Y-134900000D01*
G36*
X107377500Y-134900000D02*
G01*
X106897500Y-134900000D01*
X107137500Y-134570000D01*
X107377500Y-134900000D01*
G37*
%TO.C,C14*%
X132584420Y-115990000D02*
X132865580Y-115990000D01*
X132584420Y-117010000D02*
X132865580Y-117010000D01*
%TO.C,R26*%
X138087742Y-99977500D02*
X138562258Y-99977500D01*
X138087742Y-101022500D02*
X138562258Y-101022500D01*
%TO.C,C7*%
X160490000Y-147140580D02*
X160490000Y-146859420D01*
X161510000Y-147140580D02*
X161510000Y-146859420D01*
%TO.C,J1*%
X129810000Y-92915000D02*
X129810000Y-95575000D01*
X165430000Y-92915000D02*
X129810000Y-92915000D01*
X165430000Y-92915000D02*
X165430000Y-95575000D01*
X165430000Y-95575000D02*
X129810000Y-95575000D01*
X168030000Y-94245000D02*
X168030000Y-95575000D01*
X168030000Y-95575000D02*
X166700000Y-95575000D01*
%TO.C,D8*%
X113490000Y-122350000D02*
X113490000Y-125650000D01*
X113490000Y-122350000D02*
X119000000Y-122350000D01*
X113490000Y-125650000D02*
X119000000Y-125650000D01*
%TO.C,R27*%
X138087742Y-97477500D02*
X138562258Y-97477500D01*
X138087742Y-98522500D02*
X138562258Y-98522500D01*
%TO.C,R16*%
X110237258Y-71977500D02*
X109762742Y-71977500D01*
X110237258Y-73022500D02*
X109762742Y-73022500D01*
%TO.C,J17*%
X106960000Y-116380000D02*
X106960000Y-115000000D01*
X108340000Y-116380000D02*
X106960000Y-116380000D01*
X109610000Y-113620000D02*
X119880000Y-113620000D01*
X109610000Y-116380000D02*
X109610000Y-113620000D01*
X109610000Y-116380000D02*
X119880000Y-116380000D01*
X119880000Y-116380000D02*
X119880000Y-113620000D01*
%TO.C,R28*%
X116762742Y-127977500D02*
X117237258Y-127977500D01*
X116762742Y-129022500D02*
X117237258Y-129022500D01*
%TO.C,D2*%
X102515000Y-92265000D02*
X102515000Y-93735000D01*
X102515000Y-93735000D02*
X104800000Y-93735000D01*
X104800000Y-92265000D02*
X102515000Y-92265000D01*
%TO.C,J16*%
X103120000Y-76810000D02*
X103120000Y-69080000D01*
X105880000Y-69080000D02*
X103120000Y-69080000D01*
X105880000Y-76810000D02*
X103120000Y-76810000D01*
X105880000Y-76810000D02*
X105880000Y-69080000D01*
X105880000Y-78080000D02*
X105880000Y-79460000D01*
X105880000Y-79460000D02*
X104500000Y-79460000D01*
%TO.C,C10*%
X111607836Y-81140000D02*
X111392164Y-81140000D01*
X111607836Y-81860000D02*
X111392164Y-81860000D01*
%TO.C,R17*%
X107762742Y-101477500D02*
X108237258Y-101477500D01*
X107762742Y-102522500D02*
X108237258Y-102522500D01*
%TO.C,R24*%
X138087742Y-104977500D02*
X138562258Y-104977500D01*
X138087742Y-106022500D02*
X138562258Y-106022500D01*
%TO.C,R7*%
X110237258Y-117477500D02*
X109762742Y-117477500D01*
X110237258Y-118522500D02*
X109762742Y-118522500D01*
%TO.C,R21*%
X172437742Y-132977500D02*
X172912258Y-132977500D01*
X172437742Y-134022500D02*
X172912258Y-134022500D01*
%TO.C,R22*%
X173762742Y-129477500D02*
X174237258Y-129477500D01*
X173762742Y-130522500D02*
X174237258Y-130522500D01*
%TO.C,J12*%
X156500000Y-132880000D02*
X156500000Y-131500000D01*
X157880000Y-132880000D02*
X156500000Y-132880000D01*
X159150000Y-130120000D02*
X166880000Y-130120000D01*
X159150000Y-132880000D02*
X159150000Y-130120000D01*
X159150000Y-132880000D02*
X166880000Y-132880000D01*
X166880000Y-132880000D02*
X166880000Y-130120000D01*
%TO.C,J10*%
X156540000Y-124880000D02*
X156540000Y-123500000D01*
X157920000Y-124880000D02*
X156540000Y-124880000D01*
X159190000Y-122120000D02*
X166920000Y-122120000D01*
X159190000Y-124880000D02*
X159190000Y-122120000D01*
X159190000Y-124880000D02*
X166920000Y-124880000D01*
X166920000Y-124880000D02*
X166920000Y-122120000D01*
%TO.C,C5*%
X103134420Y-122490000D02*
X103415580Y-122490000D01*
X103134420Y-123510000D02*
X103415580Y-123510000D01*
%TO.C,C9*%
X102859420Y-134990000D02*
X103140580Y-134990000D01*
X102859420Y-136010000D02*
X103140580Y-136010000D01*
%TO.C,J14*%
X126500000Y-130880000D02*
X126500000Y-129500000D01*
X127880000Y-130880000D02*
X126500000Y-130880000D01*
X129150000Y-128120000D02*
X136880000Y-128120000D01*
X129150000Y-130880000D02*
X129150000Y-128120000D01*
X129150000Y-130880000D02*
X136880000Y-130880000D01*
X136880000Y-130880000D02*
X136880000Y-128120000D01*
%TO.C,C2*%
X124634420Y-119990000D02*
X124915580Y-119990000D01*
X124634420Y-121010000D02*
X124915580Y-121010000D01*
%TO.C,R1*%
X156087742Y-97977500D02*
X156562258Y-97977500D01*
X156087742Y-99022500D02*
X156562258Y-99022500D01*
%TO.C,D5*%
X102515000Y-105265000D02*
X102515000Y-106735000D01*
X102515000Y-106735000D02*
X104800000Y-106735000D01*
X104800000Y-105265000D02*
X102515000Y-105265000D01*
%TO.C,D10*%
X120510000Y-87850000D02*
X115000000Y-87850000D01*
X120510000Y-91150000D02*
X115000000Y-91150000D01*
X120510000Y-91150000D02*
X120510000Y-87850000D01*
%TO.C,C13*%
X158634420Y-151990000D02*
X158915580Y-151990000D01*
X158634420Y-153010000D02*
X158915580Y-153010000D01*
%TO.C,J15*%
X161460000Y-88380000D02*
X161460000Y-87000000D01*
X162840000Y-88380000D02*
X161460000Y-88380000D01*
X164110000Y-85620000D02*
X176920000Y-85620000D01*
X164110000Y-88380000D02*
X164110000Y-85620000D01*
X164110000Y-88380000D02*
X176920000Y-88380000D01*
X176920000Y-88380000D02*
X176920000Y-85620000D01*
%TO.C,J8*%
X131460000Y-86595400D02*
X131460000Y-89355400D01*
X154430000Y-86595400D02*
X131460000Y-86595400D01*
X154430000Y-86595400D02*
X154430000Y-89355400D01*
X154430000Y-89355400D02*
X131460000Y-89355400D01*
X155700000Y-86595400D02*
X157080000Y-86595400D01*
X157080000Y-86595400D02*
X157080000Y-87975400D01*
%TO.C,R11*%
X160262742Y-149477500D02*
X160737258Y-149477500D01*
X160262742Y-150522500D02*
X160737258Y-150522500D01*
%TO.C,J5*%
X130375000Y-97565000D02*
X124775000Y-97565000D01*
X131075000Y-110435000D02*
X124775000Y-110435000D01*
X133625000Y-97565000D02*
X134785000Y-97565000D01*
X134785000Y-97565000D02*
X134785000Y-108825000D01*
X134785000Y-110325000D02*
X134785000Y-110435000D01*
X134785000Y-110435000D02*
X132975000Y-110435000D01*
%TO.C,R23*%
X138087742Y-107477500D02*
X138562258Y-107477500D01*
X138087742Y-108522500D02*
X138562258Y-108522500D01*
%TO.C,D1*%
X102515000Y-88265000D02*
X102515000Y-89735000D01*
X102515000Y-89735000D02*
X104800000Y-89735000D01*
X104800000Y-88265000D02*
X102515000Y-88265000D01*
%TO.C,D9*%
X160850000Y-133490000D02*
X160850000Y-139000000D01*
X164150000Y-133490000D02*
X160850000Y-133490000D01*
X164150000Y-133490000D02*
X164150000Y-139000000D01*
%TO.C,C12*%
X157990000Y-147140580D02*
X157990000Y-146859420D01*
X159010000Y-147140580D02*
X159010000Y-146859420D01*
%TD*%
M02*
