%TF.GenerationSoftware,KiCad,Pcbnew,10.0.0*%
%TF.CreationDate,2026-05-31T22:43:43-04:00*%
%TF.ProjectId,kicad_sailframes-b1,6b696361-645f-4736-9169-6c6672616d65,rev?*%
%TF.SameCoordinates,Original*%
%TF.FileFunction,Other,User*%
%FSLAX46Y46*%
G04 Gerber Fmt 4.6, Leading zero omitted, Abs format (unit mm)*
G04 Created by KiCad (PCBNEW 10.0.0) date 2026-05-31 22:43:43*
%MOMM*%
%LPD*%
G01*
G04 APERTURE LIST*
%ADD10C,0.050000*%
G04 APERTURE END LIST*
%TO.C,U3*%
D10*
X158087500Y-141450000D02*
X159087500Y-141450000D01*
X158087500Y-144450000D02*
X158087500Y-141450000D01*
X159087500Y-141250000D02*
X161187500Y-141250000D01*
X159087500Y-141450000D02*
X159087500Y-141250000D01*
X159087500Y-144450000D02*
X158087500Y-144450000D01*
X159087500Y-144650000D02*
X159087500Y-144450000D01*
X161187500Y-141250000D02*
X161187500Y-141450000D01*
X161187500Y-141450000D02*
X162187500Y-141450000D01*
X161187500Y-144450000D02*
X161187500Y-144650000D01*
X161187500Y-144650000D02*
X159087500Y-144650000D01*
X162187500Y-141450000D02*
X162187500Y-144450000D01*
X162187500Y-144450000D02*
X161187500Y-144450000D01*
%TO.C,R8*%
X106520000Y-92270000D02*
X109480000Y-92270000D01*
X109480000Y-93730000D01*
X106520000Y-93730000D01*
X106520000Y-92270000D01*
%TO.C,R14*%
X109020000Y-125770000D02*
X111980000Y-125770000D01*
X111980000Y-127230000D01*
X109020000Y-127230000D01*
X109020000Y-125770000D01*
%TO.C,J9*%
X127530000Y-122230000D02*
X153930000Y-122230000D01*
X153930000Y-125770000D01*
X127530000Y-125770000D01*
X127530000Y-122230000D01*
%TO.C,J13*%
X140070000Y-127730000D02*
X153770000Y-127730000D01*
X153770000Y-131270000D01*
X140070000Y-131270000D01*
X140070000Y-127730000D01*
%TO.C,C16*%
X161020000Y-89770000D02*
X163980000Y-89770000D01*
X163980000Y-91230000D01*
X161020000Y-91230000D01*
X161020000Y-89770000D01*
%TO.C,J3*%
X107100000Y-81725000D02*
X107300000Y-81725000D01*
X107300000Y-82525000D01*
X108050000Y-82525000D01*
X108050000Y-84525000D01*
X107300000Y-84525000D01*
X107300000Y-85325000D01*
X107100000Y-85325000D01*
X107100000Y-86025000D01*
X103900000Y-86025000D01*
X103900000Y-85325000D01*
X103700000Y-85325000D01*
X103700000Y-81725000D01*
X103900000Y-81725000D01*
X103900000Y-81025000D01*
X107100000Y-81025000D01*
X107100000Y-81725000D01*
%TO.C,R13*%
X111020000Y-133770000D02*
X113980000Y-133770000D01*
X113980000Y-135230000D01*
X111020000Y-135230000D01*
X111020000Y-133770000D01*
%TO.C,C15*%
X127770000Y-69745000D02*
X129230000Y-69745000D01*
X129230000Y-72705000D01*
X127770000Y-72705000D01*
X127770000Y-69745000D01*
%TO.C,R10*%
X155520000Y-149270000D02*
X158480000Y-149270000D01*
X158480000Y-150730000D01*
X155520000Y-150730000D01*
X155520000Y-149270000D01*
%TO.C,C8*%
X165270000Y-134520000D02*
X166730000Y-134520000D01*
X166730000Y-137480000D01*
X165270000Y-137480000D01*
X165270000Y-134520000D01*
%TO.C,U_HALL1*%
X101632500Y-124500000D02*
X102662500Y-124500000D01*
X101632500Y-125610000D02*
X101632500Y-124500000D01*
X101632500Y-126390000D02*
X102662500Y-126390000D01*
X101632500Y-127500000D02*
X101632500Y-126390000D01*
X102662500Y-124300000D02*
X104462500Y-124300000D01*
X102662500Y-124500000D02*
X102662500Y-124300000D01*
X102662500Y-125610000D02*
X101632500Y-125610000D01*
X102662500Y-126390000D02*
X102662500Y-125610000D01*
X102662500Y-127500000D02*
X101632500Y-127500000D01*
X102662500Y-127700000D02*
X102662500Y-127500000D01*
X104462500Y-124300000D02*
X104462500Y-125450000D01*
X104462500Y-125450000D02*
X105492500Y-125450000D01*
X104462500Y-126550000D02*
X104462500Y-127700000D01*
X104462500Y-127700000D02*
X102662500Y-127700000D01*
X105492500Y-125450000D02*
X105492500Y-126550000D01*
X105492500Y-126550000D02*
X104462500Y-126550000D01*
%TO.C,J11*%
X156150000Y-125730000D02*
X167310000Y-125730000D01*
X167310000Y-129270000D01*
X156150000Y-129270000D01*
X156150000Y-125730000D01*
%TO.C,J4*%
X129370000Y-117725000D02*
X168470000Y-117725000D01*
X129370000Y-121265000D02*
X129370000Y-117725000D01*
X168470000Y-117725000D02*
X168470000Y-121265000D01*
X168470000Y-121265000D02*
X129370000Y-121265000D01*
%TO.C,C3*%
X123295000Y-117770000D02*
X126255000Y-117770000D01*
X126255000Y-119230000D01*
X123295000Y-119230000D01*
X123295000Y-117770000D01*
%TO.C,R20*%
X106520000Y-88270000D02*
X109480000Y-88270000D01*
X109480000Y-89730000D01*
X106520000Y-89730000D01*
X106520000Y-88270000D01*
%TO.C,R2*%
X158345000Y-97770000D02*
X161305000Y-97770000D01*
X161305000Y-99230000D01*
X158345000Y-99230000D01*
X158345000Y-97770000D01*
%TO.C,C17*%
X121520000Y-88770000D02*
X124480000Y-88770000D01*
X124480000Y-90230000D01*
X121520000Y-90230000D01*
X121520000Y-88770000D01*
%TO.C,R15*%
X102020000Y-132770000D02*
X104980000Y-132770000D01*
X104980000Y-134230000D01*
X102020000Y-134230000D01*
X102020000Y-132770000D01*
%TO.C,R9*%
X106520000Y-96770000D02*
X109480000Y-96770000D01*
X109480000Y-98230000D01*
X106520000Y-98230000D01*
X106520000Y-96770000D01*
%TO.C,R12*%
X105520000Y-125770000D02*
X108480000Y-125770000D01*
X108480000Y-127230000D01*
X105520000Y-127230000D01*
X105520000Y-125770000D01*
%TO.C,R19*%
X106520000Y-109770000D02*
X109480000Y-109770000D01*
X109480000Y-111230000D01*
X106520000Y-111230000D01*
X106520000Y-109770000D01*
%TO.C,C4*%
X101795000Y-119270000D02*
X104755000Y-119270000D01*
X104755000Y-120730000D01*
X101795000Y-120730000D01*
X101795000Y-119270000D01*
%TO.C,C1*%
X158295000Y-99770000D02*
X161255000Y-99770000D01*
X161255000Y-101230000D01*
X158295000Y-101230000D01*
X158295000Y-99770000D01*
%TO.C,D4*%
X102520000Y-101270000D02*
X105480000Y-101270000D01*
X105480000Y-102730000D01*
X102520000Y-102730000D01*
X102520000Y-101270000D01*
%TO.C,D7*%
X113500000Y-117750000D02*
X120500000Y-117750000D01*
X113500000Y-121250000D02*
X113500000Y-117750000D01*
X120500000Y-117750000D02*
X120500000Y-121250000D01*
X120500000Y-121250000D02*
X113500000Y-121250000D01*
%TO.C,D11*%
X115900000Y-131050000D02*
X115900000Y-132950000D01*
X115900000Y-131050000D02*
X119100000Y-131050000D01*
X115900000Y-132950000D02*
X119100000Y-132950000D01*
X119100000Y-131050000D02*
X119100000Y-132950000D01*
%TO.C,R25*%
X136845000Y-102270000D02*
X139805000Y-102270000D01*
X139805000Y-103730000D01*
X136845000Y-103730000D01*
X136845000Y-102270000D01*
%TO.C,D3*%
X102520000Y-96770000D02*
X105480000Y-96770000D01*
X105480000Y-98230000D01*
X102520000Y-98230000D01*
X102520000Y-96770000D01*
%TO.C,C11*%
X109110000Y-83040000D02*
X110930000Y-83040000D01*
X110930000Y-83960000D01*
X109110000Y-83960000D01*
X109110000Y-83040000D01*
%TO.C,J2*%
X143050000Y-145200000D02*
X149950000Y-145200000D01*
X149950000Y-153800000D01*
X143050000Y-153800000D01*
X143050000Y-145200000D01*
%TO.C,R18*%
X106520000Y-105270000D02*
X109480000Y-105270000D01*
X109480000Y-106730000D01*
X106520000Y-106730000D01*
X106520000Y-105270000D01*
%TO.C,Q_INV1*%
X102132500Y-129000000D02*
X103162500Y-129000000D01*
X102132500Y-130110000D02*
X102132500Y-129000000D01*
X102132500Y-130890000D02*
X103162500Y-130890000D01*
X102132500Y-132000000D02*
X102132500Y-130890000D01*
X103162500Y-128800000D02*
X104962500Y-128800000D01*
X103162500Y-129000000D02*
X103162500Y-128800000D01*
X103162500Y-130110000D02*
X102132500Y-130110000D01*
X103162500Y-130890000D02*
X103162500Y-130110000D01*
X103162500Y-132000000D02*
X102132500Y-132000000D01*
X103162500Y-132200000D02*
X103162500Y-132000000D01*
X104962500Y-128800000D02*
X104962500Y-129950000D01*
X104962500Y-129950000D02*
X105992500Y-129950000D01*
X104962500Y-131050000D02*
X104962500Y-132200000D01*
X104962500Y-132200000D02*
X103162500Y-132200000D01*
X105992500Y-129950000D02*
X105992500Y-131050000D01*
X105992500Y-131050000D02*
X104962500Y-131050000D01*
%TO.C,Q_PWR1*%
X107007500Y-128950000D02*
X108037500Y-128950000D01*
X107007500Y-130060000D02*
X107007500Y-128950000D01*
X107007500Y-130840000D02*
X108037500Y-130840000D01*
X107007500Y-131950000D02*
X107007500Y-130840000D01*
X108037500Y-128750000D02*
X109837500Y-128750000D01*
X108037500Y-128950000D02*
X108037500Y-128750000D01*
X108037500Y-130060000D02*
X107007500Y-130060000D01*
X108037500Y-130840000D02*
X108037500Y-130060000D01*
X108037500Y-131950000D02*
X107007500Y-131950000D01*
X108037500Y-132150000D02*
X108037500Y-131950000D01*
X109837500Y-128750000D02*
X109837500Y-129900000D01*
X109837500Y-129900000D02*
X110867500Y-129900000D01*
X109837500Y-131000000D02*
X109837500Y-132150000D01*
X109837500Y-132150000D02*
X108037500Y-132150000D01*
X110867500Y-129900000D02*
X110867500Y-131000000D01*
X110867500Y-131000000D02*
X109837500Y-131000000D01*
%TO.C,L1*%
X153000000Y-134250000D02*
X153000000Y-140750000D01*
X153000000Y-140750000D02*
X160000000Y-140750000D01*
X160000000Y-134250000D02*
X153000000Y-134250000D01*
X160000000Y-140750000D02*
X160000000Y-134250000D01*
%TO.C,R6*%
X104520000Y-117270000D02*
X107480000Y-117270000D01*
X107480000Y-118730000D01*
X104520000Y-118730000D01*
X104520000Y-117270000D01*
%TO.C,U2*%
X105150000Y-119540000D02*
X106650000Y-119540000D01*
X105150000Y-124460000D02*
X105150000Y-119540000D01*
X106650000Y-119300000D02*
X111050000Y-119300000D01*
X106650000Y-119540000D02*
X106650000Y-119300000D01*
X106650000Y-124460000D02*
X105150000Y-124460000D01*
X106650000Y-124700000D02*
X106650000Y-124460000D01*
X111050000Y-119300000D02*
X111050000Y-119540000D01*
X111050000Y-119540000D02*
X112550000Y-119540000D01*
X111050000Y-124460000D02*
X111050000Y-124700000D01*
X111050000Y-124700000D02*
X106650000Y-124700000D01*
X112550000Y-119540000D02*
X112550000Y-124460000D01*
X112550000Y-124460000D02*
X111050000Y-124460000D01*
%TO.C,U_FF1*%
X111725000Y-128350000D02*
X115325000Y-128350000D01*
X111725000Y-132250000D02*
X111725000Y-128350000D01*
X115325000Y-128350000D02*
X115325000Y-132250000D01*
X115325000Y-132250000D02*
X111725000Y-132250000D01*
%TO.C,D6*%
X102020000Y-109770000D02*
X104980000Y-109770000D01*
X104980000Y-111230000D01*
X102020000Y-111230000D01*
X102020000Y-109770000D01*
%TO.C,U_RST1*%
X106507500Y-133450000D02*
X107537500Y-133450000D01*
X106507500Y-134560000D02*
X106507500Y-133450000D01*
X106507500Y-135340000D02*
X107537500Y-135340000D01*
X106507500Y-136450000D02*
X106507500Y-135340000D01*
X107537500Y-133250000D02*
X109337500Y-133250000D01*
X107537500Y-133450000D02*
X107537500Y-133250000D01*
X107537500Y-134560000D02*
X106507500Y-134560000D01*
X107537500Y-135340000D02*
X107537500Y-134560000D01*
X107537500Y-136450000D02*
X106507500Y-136450000D01*
X107537500Y-136650000D02*
X107537500Y-136450000D01*
X109337500Y-133250000D02*
X109337500Y-134400000D01*
X109337500Y-134400000D02*
X110367500Y-134400000D01*
X109337500Y-135500000D02*
X109337500Y-136650000D01*
X109337500Y-136650000D02*
X107537500Y-136650000D01*
X110367500Y-134400000D02*
X110367500Y-135500000D01*
X110367500Y-135500000D02*
X109337500Y-135500000D01*
%TO.C,C14*%
X131245000Y-115770000D02*
X134205000Y-115770000D01*
X134205000Y-117230000D01*
X131245000Y-117230000D01*
X131245000Y-115770000D01*
%TO.C,R26*%
X136845000Y-99770000D02*
X139805000Y-99770000D01*
X139805000Y-101230000D01*
X136845000Y-101230000D01*
X136845000Y-99770000D01*
%TO.C,C7*%
X160270000Y-145520000D02*
X161730000Y-145520000D01*
X161730000Y-148480000D01*
X160270000Y-148480000D01*
X160270000Y-145520000D01*
%TO.C,J1*%
X129370000Y-92475000D02*
X168470000Y-92475000D01*
X129370000Y-96015000D02*
X129370000Y-92475000D01*
X168470000Y-92475000D02*
X168470000Y-96015000D01*
X168470000Y-96015000D02*
X129370000Y-96015000D01*
%TO.C,D8*%
X113500000Y-122250000D02*
X120500000Y-122250000D01*
X113500000Y-125750000D02*
X113500000Y-122250000D01*
X120500000Y-122250000D02*
X120500000Y-125750000D01*
X120500000Y-125750000D02*
X113500000Y-125750000D01*
%TO.C,R27*%
X136845000Y-97270000D02*
X139805000Y-97270000D01*
X139805000Y-98730000D01*
X136845000Y-98730000D01*
X136845000Y-97270000D01*
%TO.C,R16*%
X108520000Y-71770000D02*
X111480000Y-71770000D01*
X111480000Y-73230000D01*
X108520000Y-73230000D01*
X108520000Y-71770000D01*
%TO.C,J17*%
X106570000Y-113230000D02*
X120270000Y-113230000D01*
X120270000Y-116770000D01*
X106570000Y-116770000D01*
X106570000Y-113230000D01*
%TO.C,R28*%
X115520000Y-127770000D02*
X118480000Y-127770000D01*
X118480000Y-129230000D01*
X115520000Y-129230000D01*
X115520000Y-127770000D01*
%TO.C,D2*%
X102520000Y-92270000D02*
X105480000Y-92270000D01*
X105480000Y-93730000D01*
X102520000Y-93730000D01*
X102520000Y-92270000D01*
%TO.C,J16*%
X102730000Y-68690000D02*
X106270000Y-68690000D01*
X106270000Y-79850000D01*
X102730000Y-79850000D01*
X102730000Y-68690000D01*
%TO.C,C10*%
X110590000Y-81040000D02*
X112410000Y-81040000D01*
X112410000Y-81960000D01*
X110590000Y-81960000D01*
X110590000Y-81040000D01*
%TO.C,R17*%
X106520000Y-101270000D02*
X109480000Y-101270000D01*
X109480000Y-102730000D01*
X106520000Y-102730000D01*
X106520000Y-101270000D01*
%TO.C,R24*%
X136845000Y-104770000D02*
X139805000Y-104770000D01*
X139805000Y-106230000D01*
X136845000Y-106230000D01*
X136845000Y-104770000D01*
%TO.C,R7*%
X108520000Y-117270000D02*
X111480000Y-117270000D01*
X111480000Y-118730000D01*
X108520000Y-118730000D01*
X108520000Y-117270000D01*
%TO.C,R21*%
X171195000Y-132770000D02*
X174155000Y-132770000D01*
X174155000Y-134230000D01*
X171195000Y-134230000D01*
X171195000Y-132770000D01*
%TO.C,R22*%
X172520000Y-129270000D02*
X175480000Y-129270000D01*
X175480000Y-130730000D01*
X172520000Y-130730000D01*
X172520000Y-129270000D01*
%TO.C,J12*%
X156110000Y-129730000D02*
X167270000Y-129730000D01*
X167270000Y-133270000D01*
X156110000Y-133270000D01*
X156110000Y-129730000D01*
%TO.C,J10*%
X156150000Y-121730000D02*
X167310000Y-121730000D01*
X167310000Y-125270000D01*
X156150000Y-125270000D01*
X156150000Y-121730000D01*
%TO.C,C5*%
X101795000Y-122270000D02*
X104755000Y-122270000D01*
X104755000Y-123730000D01*
X101795000Y-123730000D01*
X101795000Y-122270000D01*
%TO.C,C9*%
X101520000Y-134770000D02*
X104480000Y-134770000D01*
X104480000Y-136230000D01*
X101520000Y-136230000D01*
X101520000Y-134770000D01*
%TO.C,J14*%
X126110000Y-127730000D02*
X137270000Y-127730000D01*
X137270000Y-131270000D01*
X126110000Y-131270000D01*
X126110000Y-127730000D01*
%TO.C,C2*%
X123295000Y-119770000D02*
X126255000Y-119770000D01*
X126255000Y-121230000D01*
X123295000Y-121230000D01*
X123295000Y-119770000D01*
%TO.C,R1*%
X154845000Y-97770000D02*
X157805000Y-97770000D01*
X157805000Y-99230000D01*
X154845000Y-99230000D01*
X154845000Y-97770000D01*
%TO.C,L2*%
X109030000Y-84555000D02*
X109970000Y-84555000D01*
X109970000Y-86415000D01*
X109030000Y-86415000D01*
X109030000Y-84555000D01*
%TO.C,D5*%
X102520000Y-105270000D02*
X105480000Y-105270000D01*
X105480000Y-106730000D01*
X102520000Y-106730000D01*
X102520000Y-105270000D01*
%TO.C,D10*%
X113500000Y-87750000D02*
X120500000Y-87750000D01*
X113500000Y-91250000D02*
X113500000Y-87750000D01*
X120500000Y-87750000D02*
X120500000Y-91250000D01*
X120500000Y-91250000D02*
X113500000Y-91250000D01*
%TO.C,C13*%
X157295000Y-151770000D02*
X160255000Y-151770000D01*
X160255000Y-153230000D01*
X157295000Y-153230000D01*
X157295000Y-151770000D01*
%TO.C,J15*%
X161070000Y-85230000D02*
X177310000Y-85230000D01*
X177310000Y-88770000D01*
X161070000Y-88770000D01*
X161070000Y-85230000D01*
%TO.C,J8*%
X131070000Y-86205400D02*
X157470000Y-86205400D01*
X157470000Y-89745400D01*
X131070000Y-89745400D01*
X131070000Y-86205400D01*
%TO.C,R11*%
X159020000Y-149270000D02*
X161980000Y-149270000D01*
X161980000Y-150730000D01*
X159020000Y-150730000D01*
X159020000Y-149270000D01*
%TO.C,J5*%
X122720000Y-97080000D02*
X135720000Y-97080000D01*
X122720000Y-110880000D02*
X122720000Y-97080000D01*
X135720000Y-97080000D02*
X135720000Y-110880000D01*
X135720000Y-110880000D02*
X122720000Y-110880000D01*
%TO.C,R23*%
X136845000Y-107270000D02*
X139805000Y-107270000D01*
X139805000Y-108730000D01*
X136845000Y-108730000D01*
X136845000Y-107270000D01*
%TO.C,D1*%
X102520000Y-88270000D02*
X105480000Y-88270000D01*
X105480000Y-89730000D01*
X102520000Y-89730000D01*
X102520000Y-88270000D01*
%TO.C,D9*%
X160750000Y-133500000D02*
X164250000Y-133500000D01*
X160750000Y-140500000D02*
X160750000Y-133500000D01*
X164250000Y-133500000D02*
X164250000Y-140500000D01*
X164250000Y-140500000D02*
X160750000Y-140500000D01*
%TO.C,C12*%
X157770000Y-145520000D02*
X159230000Y-145520000D01*
X159230000Y-148480000D01*
X157770000Y-148480000D01*
X157770000Y-145520000D01*
%TO.C,J_QI1*%
X131390000Y-145900000D02*
X134990000Y-145900000D01*
X134990000Y-149500000D01*
X131390000Y-149500000D01*
X131390000Y-145900000D01*
X131390000Y-150500000D02*
X134990000Y-150500000D01*
X134990000Y-154100000D01*
X131390000Y-154100000D01*
X131390000Y-150500000D01*
%TD*%
M02*
