%TF.GenerationSoftware,KiCad,Pcbnew,10.0.0*%
%TF.CreationDate,2026-05-31T22:43:43-04:00*%
%TF.ProjectId,kicad_sailframes-b1,6b696361-645f-4736-9169-6c6672616d65,rev?*%
%TF.SameCoordinates,Original*%
%TF.FileFunction,Paste,Top*%
%TF.FilePolarity,Positive*%
%FSLAX46Y46*%
G04 Gerber Fmt 4.6, Leading zero omitted, Abs format (unit mm)*
G04 Created by KiCad (PCBNEW 10.0.0) date 2026-05-31 22:43:43*
%MOMM*%
%LPD*%
G01*
G04 APERTURE LIST*
G04 Aperture macros list*
%AMRoundRect*
0 Rectangle with rounded corners*
0 $1 Rounding radius*
0 $2 $3 $4 $5 $6 $7 $8 $9 X,Y pos of 4 corners*
0 Add a 4 corners polygon primitive as box body*
4,1,4,$2,$3,$4,$5,$6,$7,$8,$9,$2,$3,0*
0 Add four circle primitives for the rounded corners*
1,1,$1+$1,$2,$3*
1,1,$1+$1,$4,$5*
1,1,$1+$1,$6,$7*
1,1,$1+$1,$8,$9*
0 Add four rect primitives between the rounded corners*
20,1,$1+$1,$2,$3,$4,$5,0*
20,1,$1+$1,$4,$5,$6,$7,0*
20,1,$1+$1,$6,$7,$8,$9,0*
20,1,$1+$1,$8,$9,$2,$3,0*%
G04 Aperture macros list end*
%ADD10RoundRect,0.150000X-0.512500X-0.150000X0.512500X-0.150000X0.512500X0.150000X-0.512500X0.150000X0*%
%ADD11RoundRect,0.200000X-0.200000X-0.275000X0.200000X-0.275000X0.200000X0.275000X-0.200000X0.275000X0*%
%ADD12RoundRect,0.225000X-0.225000X-0.250000X0.225000X-0.250000X0.225000X0.250000X-0.225000X0.250000X0*%
%ADD13RoundRect,0.250000X0.275000X0.250000X-0.275000X0.250000X-0.275000X-0.250000X0.275000X-0.250000X0*%
%ADD14RoundRect,0.250000X0.850000X0.275000X-0.850000X0.275000X-0.850000X-0.275000X0.850000X-0.275000X0*%
%ADD15RoundRect,0.225000X0.250000X-0.225000X0.250000X0.225000X-0.250000X0.225000X-0.250000X-0.225000X0*%
%ADD16RoundRect,0.225000X-0.250000X0.225000X-0.250000X-0.225000X0.250000X-0.225000X0.250000X0.225000X0*%
%ADD17RoundRect,0.150000X-0.587500X-0.150000X0.587500X-0.150000X0.587500X0.150000X-0.587500X0.150000X0*%
%ADD18RoundRect,0.218750X-0.218750X-0.256250X0.218750X-0.256250X0.218750X0.256250X-0.218750X0.256250X0*%
%ADD19RoundRect,0.250000X1.000000X0.650000X-1.000000X0.650000X-1.000000X-0.650000X1.000000X-0.650000X0*%
%ADD20RoundRect,0.112500X-0.187500X-0.112500X0.187500X-0.112500X0.187500X0.112500X-0.187500X0.112500X0*%
%ADD21RoundRect,0.140000X-0.140000X-0.170000X0.140000X-0.170000X0.140000X0.170000X-0.140000X0.170000X0*%
%ADD22R,1.800000X0.800000*%
%ADD23R,2.350000X5.100000*%
%ADD24RoundRect,0.240000X-0.240000X-0.385000X0.240000X-0.385000X0.240000X0.385000X-0.240000X0.385000X0*%
%ADD25RoundRect,0.150000X-0.825000X-0.150000X0.825000X-0.150000X0.825000X0.150000X-0.825000X0.150000X0*%
%ADD26RoundRect,0.112500X-0.112500X0.312500X-0.112500X-0.312500X0.112500X-0.312500X0.112500X0.312500X0*%
%ADD27RoundRect,0.250000X-1.000000X-0.650000X1.000000X-0.650000X1.000000X0.650000X-1.000000X0.650000X0*%
%ADD28RoundRect,0.200000X0.200000X0.275000X-0.200000X0.275000X-0.200000X-0.275000X0.200000X-0.275000X0*%
%ADD29RoundRect,0.140000X0.140000X0.170000X-0.140000X0.170000X-0.140000X-0.170000X0.140000X-0.170000X0*%
%ADD30RoundRect,0.147500X0.172500X-0.147500X0.172500X0.147500X-0.172500X0.147500X-0.172500X-0.147500X0*%
%ADD31R,1.750000X0.700000*%
%ADD32R,1.000000X1.450000*%
%ADD33R,1.550000X1.000000*%
%ADD34R,1.500000X0.800000*%
%ADD35R,1.500000X1.300000*%
%ADD36R,1.500000X1.500000*%
%ADD37R,1.400000X0.800000*%
%ADD38RoundRect,0.250000X-0.650000X1.000000X-0.650000X-1.000000X0.650000X-1.000000X0.650000X1.000000X0*%
G04 APERTURE END LIST*
D10*
%TO.C,U3*%
X159000000Y-142000000D03*
X159000000Y-142950000D03*
X159000000Y-143900000D03*
X161275000Y-143900000D03*
X161275000Y-142950000D03*
X161275000Y-142000000D03*
%TD*%
D11*
%TO.C,R8*%
X107175000Y-93000000D03*
X108825000Y-93000000D03*
%TD*%
%TO.C,R14*%
X109675000Y-126500000D03*
X111325000Y-126500000D03*
%TD*%
D12*
%TO.C,C16*%
X161725000Y-90500000D03*
X163275000Y-90500000D03*
%TD*%
D13*
%TO.C,J3*%
X107025000Y-83525000D03*
D14*
X105500000Y-85000000D03*
X105500000Y-82050000D03*
%TD*%
D11*
%TO.C,R13*%
X111675000Y-134500000D03*
X113325000Y-134500000D03*
%TD*%
D15*
%TO.C,C15*%
X128500000Y-72000000D03*
X128500000Y-70450000D03*
%TD*%
D11*
%TO.C,R10*%
X156175000Y-150000000D03*
X157825000Y-150000000D03*
%TD*%
D16*
%TO.C,C8*%
X166000000Y-135225000D03*
X166000000Y-136775000D03*
%TD*%
D17*
%TO.C,U_HALL1*%
X102625000Y-125050000D03*
X102625000Y-126950000D03*
X104500000Y-126000000D03*
%TD*%
D12*
%TO.C,C3*%
X124000000Y-118500000D03*
X125550000Y-118500000D03*
%TD*%
D11*
%TO.C,R20*%
X107175000Y-89000000D03*
X108825000Y-89000000D03*
%TD*%
%TO.C,R2*%
X159000000Y-98500000D03*
X160650000Y-98500000D03*
%TD*%
D12*
%TO.C,C17*%
X122225000Y-89500000D03*
X123775000Y-89500000D03*
%TD*%
D11*
%TO.C,R15*%
X102675000Y-133500000D03*
X104325000Y-133500000D03*
%TD*%
%TO.C,R9*%
X107175000Y-97500000D03*
X108825000Y-97500000D03*
%TD*%
%TO.C,R12*%
X106175000Y-126500000D03*
X107825000Y-126500000D03*
%TD*%
%TO.C,R19*%
X107175000Y-110500000D03*
X108825000Y-110500000D03*
%TD*%
D12*
%TO.C,C4*%
X102500000Y-120000000D03*
X104050000Y-120000000D03*
%TD*%
%TO.C,C1*%
X159000000Y-100500000D03*
X160550000Y-100500000D03*
%TD*%
D18*
%TO.C,D4*%
X103212500Y-102000000D03*
X104787500Y-102000000D03*
%TD*%
D19*
%TO.C,D7*%
X119000000Y-119500000D03*
X115000000Y-119500000D03*
%TD*%
D20*
%TO.C,D11*%
X116450000Y-132000000D03*
X118550000Y-132000000D03*
%TD*%
D11*
%TO.C,R25*%
X137500000Y-103000000D03*
X139150000Y-103000000D03*
%TD*%
D18*
%TO.C,D3*%
X103212500Y-97500000D03*
X104787500Y-97500000D03*
%TD*%
D21*
%TO.C,C11*%
X109540000Y-83500000D03*
X110500000Y-83500000D03*
%TD*%
D22*
%TO.C,U1*%
X113999978Y-70500000D03*
X113999978Y-71600076D03*
X113999978Y-72700152D03*
X113999978Y-73799975D03*
X113999978Y-74900051D03*
X113999978Y-76000127D03*
X113999978Y-77099949D03*
X113999978Y-80099949D03*
X113999978Y-81200025D03*
X113999978Y-82300102D03*
X113999978Y-83400178D03*
X113999978Y-84500000D03*
X126199622Y-84500000D03*
X126199622Y-83400178D03*
X126199622Y-82300102D03*
X126199622Y-81200025D03*
X126199622Y-80099949D03*
X126199622Y-77099949D03*
X126199622Y-76000127D03*
X126199622Y-74900051D03*
X126199622Y-73799975D03*
X126199622Y-72700152D03*
X126199622Y-71600076D03*
X126199622Y-70500000D03*
%TD*%
D11*
%TO.C,R18*%
X107175000Y-106000000D03*
X108825000Y-106000000D03*
%TD*%
D17*
%TO.C,Q_INV1*%
X103125000Y-129550000D03*
X103125000Y-131450000D03*
X105000000Y-130500000D03*
%TD*%
%TO.C,Q_PWR1*%
X108000000Y-129500000D03*
X108000000Y-131400000D03*
X109875000Y-130450000D03*
%TD*%
D23*
%TO.C,L1*%
X154425000Y-137500000D03*
X158575000Y-137500000D03*
%TD*%
D11*
%TO.C,R6*%
X105175000Y-118000000D03*
X106825000Y-118000000D03*
%TD*%
D24*
%TO.C,U2*%
X108280000Y-121250000D03*
X108280000Y-122750000D03*
X109420000Y-121250000D03*
X109420000Y-122750000D03*
D25*
X106375000Y-120095000D03*
X106375000Y-121365000D03*
X106375000Y-122635000D03*
X106375000Y-123905000D03*
X111325000Y-123905000D03*
X111325000Y-122635000D03*
X111325000Y-121365000D03*
X111325000Y-120095000D03*
%TD*%
D26*
%TO.C,U_FF1*%
X112550000Y-131600000D03*
X113200000Y-131600000D03*
X113850000Y-131600000D03*
X114500000Y-131600000D03*
X114500000Y-129000000D03*
X113850000Y-129000000D03*
X113200000Y-129000000D03*
X112550000Y-129000000D03*
%TD*%
D18*
%TO.C,D6*%
X102712500Y-110500000D03*
X104287500Y-110500000D03*
%TD*%
D17*
%TO.C,U_RST1*%
X107500000Y-134000000D03*
X107500000Y-135900000D03*
X109375000Y-134950000D03*
%TD*%
D12*
%TO.C,C14*%
X131950000Y-116500000D03*
X133500000Y-116500000D03*
%TD*%
D11*
%TO.C,R26*%
X137500000Y-100500000D03*
X139150000Y-100500000D03*
%TD*%
D15*
%TO.C,C7*%
X161000000Y-147775000D03*
X161000000Y-146225000D03*
%TD*%
D27*
%TO.C,D8*%
X115000000Y-124000000D03*
X119000000Y-124000000D03*
%TD*%
D11*
%TO.C,R27*%
X137500000Y-98000000D03*
X139150000Y-98000000D03*
%TD*%
D28*
%TO.C,R16*%
X110825000Y-72500000D03*
X109175000Y-72500000D03*
%TD*%
D11*
%TO.C,R28*%
X116175000Y-128500000D03*
X117825000Y-128500000D03*
%TD*%
D18*
%TO.C,D2*%
X103212500Y-93000000D03*
X104787500Y-93000000D03*
%TD*%
D29*
%TO.C,C10*%
X111980000Y-81500000D03*
X111020000Y-81500000D03*
%TD*%
D11*
%TO.C,R17*%
X107175000Y-102000000D03*
X108825000Y-102000000D03*
%TD*%
%TO.C,R24*%
X137500000Y-105500000D03*
X139150000Y-105500000D03*
%TD*%
D28*
%TO.C,R7*%
X110825000Y-118000000D03*
X109175000Y-118000000D03*
%TD*%
D11*
%TO.C,R21*%
X171850000Y-133500000D03*
X173500000Y-133500000D03*
%TD*%
%TO.C,R22*%
X173175000Y-130000000D03*
X174825000Y-130000000D03*
%TD*%
D12*
%TO.C,C5*%
X102500000Y-123000000D03*
X104050000Y-123000000D03*
%TD*%
%TO.C,C9*%
X102225000Y-135500000D03*
X103775000Y-135500000D03*
%TD*%
%TO.C,C2*%
X124000000Y-120500000D03*
X125550000Y-120500000D03*
%TD*%
D11*
%TO.C,R1*%
X155500000Y-98500000D03*
X157150000Y-98500000D03*
%TD*%
D30*
%TO.C,L2*%
X109500000Y-85970000D03*
X109500000Y-85000000D03*
%TD*%
D18*
%TO.C,D5*%
X103212500Y-106000000D03*
X104787500Y-106000000D03*
%TD*%
D19*
%TO.C,D10*%
X119000000Y-89500000D03*
X115000000Y-89500000D03*
%TD*%
D12*
%TO.C,C13*%
X158000000Y-152500000D03*
X159550000Y-152500000D03*
%TD*%
D11*
%TO.C,R11*%
X159675000Y-150000000D03*
X161325000Y-150000000D03*
%TD*%
D31*
%TO.C,J5*%
X123650000Y-107175000D03*
X123650000Y-106075000D03*
X123650000Y-104975000D03*
X123650000Y-103875000D03*
X123650000Y-102775000D03*
X123650000Y-101675000D03*
X123650000Y-100575000D03*
X123650000Y-99475000D03*
D32*
X132875000Y-98350000D03*
D33*
X134450000Y-109575000D03*
D34*
X131375000Y-98025000D03*
D35*
X123775000Y-98275000D03*
D36*
X123775000Y-109625000D03*
D37*
X132025000Y-109975000D03*
%TD*%
D11*
%TO.C,R23*%
X137500000Y-108000000D03*
X139150000Y-108000000D03*
%TD*%
D18*
%TO.C,D1*%
X103212500Y-89000000D03*
X104787500Y-89000000D03*
%TD*%
D38*
%TO.C,D9*%
X162500000Y-135000000D03*
X162500000Y-139000000D03*
%TD*%
D15*
%TO.C,C12*%
X158500000Y-147775000D03*
X158500000Y-146225000D03*
%TD*%
M02*
