M48
; DRILL file KiCad 10.0.0 date 2026-05-31T22:46:21
; FORMAT={-:-/ absolute / metric / decimal}
; #@! TF.CreationDate,2026-05-31T22:46:21-04:00
; #@! TF.GenerationSoftware,Kicad,Pcbnew,10.0.0
; #@! TF.FileFunction,Plated,1,2,PTH
FMAT,2
METRIC
; #@! TA.AperFunction,Plated,PTH,ComponentDrill
T1C0.200
; #@! TA.AperFunction,Plated,PTH,ViaDrill
T2C0.300
; #@! TA.AperFunction,Plated,PTH,ComponentDrill
T3C0.750
; #@! TA.AperFunction,Plated,PTH,ComponentDrill
T4C1.000
; #@! TA.AperFunction,Plated,PTH,ComponentDrill
T5C1.150
%
G90
G05
T1
X108.2Y-121.0
X108.2Y-122.0
X108.2Y-123.0
X109.5Y-121.0
X109.5Y-122.0
X109.5Y-123.0
T2
X100.85Y-108.883
X101.734Y-101.0
X101.934Y-116.979
X102.15Y-126.0
X102.5Y-136.5
X102.558Y-103.942
X103.212Y-100.5
X103.217Y-103.175
X103.5Y-130.988
X104.0Y-88.0
X104.0Y-119.5
X104.0Y-122.0
X104.0Y-135.0
X104.147Y-128.53
X104.5Y-117.0
X104.798Y-129.179
X104.979Y-99.08
X105.5Y-122.5
X106.5Y-133.5
X106.553Y-129.944
X107.0Y-81.5
X107.0Y-85.5
X107.973Y-127.498
X108.039Y-104.699
X108.417Y-128.46
X108.931Y-98.954
X108.955Y-111.901
X109.517Y-119.648
X109.755Y-124.38
X109.996Y-99.788
X110.454Y-128.708
X110.706Y-102.864
X110.819Y-135.688
X110.875Y-80.875
X110.878Y-132.468
X111.5Y-117.5
X111.833Y-115.994
X112.0Y-82.5
X112.0Y-85.97
X112.0Y-130.077
X112.368Y-71.95
X112.842Y-123.728
X113.07Y-121.061
X113.954Y-129.748
X114.221Y-122.438
X114.5Y-132.5
X115.021Y-82.085
X115.124Y-84.247
X115.25Y-128.685
X115.5Y-131.5
X115.901Y-118.061
X116.221Y-78.359
X117.717Y-117.699
X118.383Y-131.238
X119.018Y-71.95
X119.238Y-128.331
X120.5Y-145.5
X121.0Y-124.0
X122.098Y-132.221
X123.864Y-116.793
X124.373Y-75.609
X124.388Y-88.888
X124.5Y-101.5
X124.575Y-72.148
X125.324Y-117.105
X125.46Y-105.541
X125.462Y-107.539
X126.0Y-118.0
X126.0Y-120.0
X126.149Y-99.682
X127.0Y-70.0
X127.0Y-84.3
X129.0Y-70.0
X130.827Y-96.36
X131.0Y-130.5
X132.394Y-92.18
X134.0Y-116.0
X134.25Y-118.613
X136.177Y-102.909
X140.182Y-108.523
X140.311Y-101.794
X145.878Y-131.078
X150.272Y-128.261
X150.5Y-125.0
X150.51Y-132.221
X153.5Y-84.0
X153.602Y-126.438
X155.0Y-150.0
X157.424Y-121.237
X157.5Y-149.425
X157.719Y-151.046
X158.0Y-143.85
X158.25Y-140.5
X158.25Y-142.0
X159.0Y-142.95
X159.0Y-146.0
X159.814Y-147.804
X160.0Y-152.0
X160.5Y-136.5
X161.0Y-98.0
X161.0Y-100.0
X161.5Y-149.5
X161.638Y-145.857
X164.0Y-90.0
X165.5Y-137.5
X166.0Y-84.0
X167.5Y-89.0
X168.71Y-119.788
X169.207Y-129.237
X174.838Y-128.132
X175.781Y-120.285
X175.83Y-108.398
T3
X145.5Y-151.95
X147.5Y-151.95
T4
X104.5Y-70.46
X104.5Y-73.0
X104.5Y-75.54
X104.5Y-78.08
X108.34Y-115.0
X110.88Y-115.0
X113.42Y-115.0
X115.96Y-115.0
X118.5Y-115.0
X127.88Y-129.5
X129.3Y-124.0
X130.42Y-129.5
X131.14Y-94.245
X131.14Y-119.495
X131.84Y-124.0
X132.84Y-87.975
X132.96Y-129.5
X133.68Y-94.245
X133.68Y-119.495
X134.38Y-124.0
X135.38Y-87.975
X135.5Y-129.5
X136.22Y-94.245
X136.22Y-119.495
X136.92Y-124.0
X137.92Y-87.975
X138.76Y-94.245
X138.76Y-119.495
X139.46Y-124.0
X140.46Y-87.975
X141.3Y-94.245
X141.3Y-119.495
X141.84Y-129.5
X142.0Y-124.0
X143.0Y-87.975
X143.84Y-94.245
X143.84Y-119.495
X144.38Y-129.5
X144.54Y-124.0
X145.54Y-87.975
X146.38Y-94.245
X146.38Y-119.495
X146.92Y-129.5
X147.08Y-124.0
X148.08Y-87.975
X148.92Y-94.245
X148.92Y-119.495
X149.46Y-129.5
X149.62Y-124.0
X150.62Y-87.975
X151.46Y-94.245
X151.46Y-119.495
X152.0Y-129.5
X152.16Y-124.0
X153.16Y-87.975
X154.0Y-94.245
X154.0Y-119.495
X155.7Y-87.975
X156.54Y-94.245
X156.54Y-119.495
X157.88Y-131.5
X157.92Y-123.5
X157.92Y-127.5
X159.08Y-94.245
X159.08Y-119.495
X160.42Y-131.5
X160.46Y-123.5
X160.46Y-127.5
X161.62Y-94.245
X161.62Y-119.495
X162.84Y-87.0
X162.96Y-131.5
X163.0Y-123.5
X163.0Y-127.5
X164.16Y-94.245
X164.16Y-119.495
X165.38Y-87.0
X165.5Y-131.5
X165.54Y-123.5
X165.54Y-127.5
X166.7Y-94.245
X166.7Y-119.495
X167.92Y-87.0
X170.46Y-87.0
X173.0Y-87.0
X175.54Y-87.0
T5
X120.59Y-147.7
X120.59Y-152.3
M30
