%TF.GenerationSoftware,KiCad,Pcbnew,10.0.0*%
%TF.CreationDate,2026-05-31T22:43:43-04:00*%
%TF.ProjectId,kicad_sailframes-b1,6b696361-645f-4736-9169-6c6672616d65,rev?*%
%TF.SameCoordinates,Original*%
%TF.FileFunction,Profile,NP*%
%FSLAX46Y46*%
G04 Gerber Fmt 4.6, Leading zero omitted, Abs format (unit mm)*
G04 Created by KiCad (PCBNEW 10.0.0) date 2026-05-31 22:43:43*
%MOMM*%
%LPD*%
G01*
G04 APERTURE LIST*
%ADD10C,0.050000*%
%TA.AperFunction,Profile*%
%ADD11C,0.050000*%
%TD*%
G04 APERTURE END LIST*
D10*
X99930000Y-129210000D02*
X99930000Y-132410000D01*
D11*
X99930000Y-129210000D02*
X100000000Y-75000000D01*
D10*
X99930000Y-132410000D02*
X99929962Y-132471335D01*
X99929843Y-132536974D01*
X99929638Y-132608243D01*
X99929334Y-132687416D01*
X99928909Y-132779084D01*
X99928298Y-132895994D01*
X99928118Y-132929513D01*
X99927523Y-133041104D01*
X99927242Y-133097003D01*
X99926981Y-133152961D01*
X99926746Y-133208969D01*
X99926544Y-133265019D01*
X99926382Y-133321103D01*
X99926267Y-133377214D01*
X99926204Y-133433342D01*
X99926202Y-133489480D01*
X99926266Y-133545620D01*
X99926403Y-133601754D01*
X99926502Y-133629816D01*
X99926621Y-133657873D01*
X99926762Y-133685925D01*
X99926925Y-133713970D01*
X99927112Y-133742007D01*
X99927323Y-133770036D01*
X99927559Y-133798055D01*
X99927821Y-133826064D01*
X99928109Y-133854061D01*
X99928425Y-133882045D01*
X99928770Y-133910015D01*
X99929144Y-133937970D01*
X99929547Y-133965910D01*
X99929982Y-133993833D01*
X99930449Y-134021739D01*
X99930948Y-134049625D01*
X99931480Y-134077492D01*
X99932047Y-134105338D01*
X99932649Y-134133162D01*
X99933286Y-134160963D01*
X99933961Y-134188741D01*
X99934673Y-134216493D01*
X99935424Y-134244220D01*
X99936214Y-134271920D01*
X99937044Y-134299592D01*
X99937915Y-134327235D01*
X99938827Y-134354848D01*
X99939783Y-134382431D01*
X99940782Y-134409981D01*
X99941825Y-134437498D01*
X99942913Y-134464982D01*
X99944048Y-134492430D01*
X99945229Y-134519843D01*
X99946458Y-134547218D01*
X99947735Y-134574556D01*
X99949062Y-134601854D01*
X99950439Y-134629113D01*
X99951867Y-134656330D01*
X99953347Y-134683506D01*
X99954879Y-134710638D01*
X99956465Y-134737726D01*
X99958106Y-134764769D01*
X99959801Y-134791766D01*
X99961553Y-134818716D01*
X99963362Y-134845618D01*
X99965228Y-134872471D01*
X99967153Y-134899274D01*
X99969137Y-134926025D01*
X99971182Y-134952724D01*
X99973287Y-134979370D01*
X99975455Y-135005962D01*
X99977685Y-135032499D01*
X99979979Y-135058979D01*
X99982338Y-135085403D01*
X99984761Y-135111768D01*
X99987251Y-135138073D01*
X99989808Y-135164319D01*
X99992432Y-135190503D01*
X99995125Y-135216625D01*
X99997888Y-135242684D01*
X100000721Y-135268678D01*
X100003625Y-135294607D01*
X100006601Y-135320470D01*
X100008116Y-135333376D01*
X100009650Y-135346265D01*
X100011202Y-135359137D01*
X100012772Y-135371992D01*
X100014361Y-135384830D01*
X100015969Y-135397650D01*
X100017596Y-135410452D01*
X100019242Y-135423237D01*
X100020906Y-135436004D01*
X100022590Y-135448753D01*
X100024293Y-135461484D01*
X100026016Y-135474197D01*
X100027758Y-135486891D01*
X100029519Y-135499567D01*
X100031300Y-135512224D01*
X100033101Y-135524862D01*
X100034922Y-135537482D01*
X100036763Y-135550082D01*
X100038624Y-135562664D01*
X100040505Y-135575226D01*
X100042406Y-135587769D01*
X100044328Y-135600293D01*
X100046270Y-135612796D01*
X100048233Y-135625280D01*
X100050217Y-135637745D01*
X100052221Y-135650189D01*
X100054247Y-135662613D01*
X100056293Y-135675017D01*
X100058361Y-135687400D01*
X100060449Y-135699763D01*
X100062560Y-135712105D01*
X100064691Y-135724427D01*
X100066844Y-135736727D01*
X100069019Y-135749007D01*
X100071216Y-135761265D01*
X100073434Y-135773503D01*
X100075675Y-135785719D01*
X100077937Y-135797913D01*
X100080222Y-135810086D01*
X100082529Y-135822237D01*
X100084858Y-135834366D01*
X100087210Y-135846473D01*
X100089585Y-135858557D01*
X100091982Y-135870620D01*
X100094402Y-135882660D01*
X100096845Y-135894678D01*
X100099311Y-135906673D01*
X100101800Y-135918645D01*
X100104313Y-135930595D01*
X100106848Y-135942521D01*
X100109407Y-135954424D01*
X100111990Y-135966304D01*
X100114596Y-135978160D01*
X100117227Y-135989993D01*
X100119880Y-136001802D01*
X100122558Y-136013588D01*
X100125260Y-136025349D01*
X100127987Y-136037087D01*
X100130737Y-136048800D01*
X100133512Y-136060489D01*
X100136311Y-136072154D01*
X100139135Y-136083794D01*
X100141984Y-136095409D01*
X100144857Y-136107000D01*
X100147756Y-136118565D01*
X100150679Y-136130106D01*
X100153628Y-136141621D01*
X100156601Y-136153111D01*
X100159600Y-136164576D01*
X100162625Y-136176015D01*
X100165675Y-136187429D01*
X100168751Y-136198816D01*
X100171852Y-136210178D01*
X100174979Y-136221513D01*
X100178133Y-136232823D01*
X100181312Y-136244106D01*
X100184518Y-136255362D01*
X100187749Y-136266592D01*
X100191007Y-136277796D01*
X100194292Y-136288972D01*
X100197603Y-136300122D01*
X100200941Y-136311244D01*
X100204306Y-136322340D01*
X100207698Y-136333407D01*
X100211116Y-136344448D01*
X100214562Y-136355461D01*
X100218035Y-136366446D01*
X100221535Y-136377403D01*
X100225063Y-136388333D01*
X100228618Y-136399234D01*
X100232201Y-136410107D01*
X100235811Y-136420952D01*
X100239450Y-136431768D01*
X100243116Y-136442556D01*
X100246811Y-136453315D01*
X100250533Y-136464045D01*
X100254284Y-136474746D01*
X100258064Y-136485418D01*
X100261871Y-136496061D01*
X100265708Y-136506674D01*
X100269573Y-136517258D01*
X100273466Y-136527812D01*
X100277389Y-136538337D01*
X100281341Y-136548832D01*
X100285321Y-136559296D01*
X100289331Y-136569731D01*
X100293371Y-136580135D01*
X100297439Y-136590509D01*
X100301538Y-136600853D01*
X100305666Y-136611166D01*
X100309823Y-136621448D01*
X100314011Y-136631699D01*
X100318228Y-136641920D01*
X100322475Y-136652109D01*
X100326753Y-136662267D01*
X100331061Y-136672393D01*
X100335399Y-136682488D01*
X100339768Y-136692552D01*
X100344167Y-136702583D01*
X100348597Y-136712583D01*
X100353057Y-136722551D01*
X100357549Y-136732486D01*
X100362071Y-136742390D01*
X100366625Y-136752261D01*
X100371210Y-136762099D01*
X100375826Y-136771905D01*
X100380474Y-136781678D01*
X100385153Y-136791418D01*
X100389863Y-136801125D01*
X100394606Y-136810799D01*
X100399380Y-136820439D01*
X100404186Y-136830047D01*
X100409025Y-136839620D01*
X100413895Y-136849161D01*
X100418797Y-136858667D01*
X100423732Y-136868139D01*
X100428700Y-136877578D01*
X100433700Y-136886982D01*
X100438732Y-136896352D01*
X100443798Y-136905687D01*
X100448896Y-136914988D01*
X100454027Y-136924254D01*
X100459192Y-136933486D01*
X100464389Y-136942682D01*
X100469620Y-136951844D01*
X100474884Y-136960970D01*
X100480182Y-136970061D01*
X100485513Y-136979117D01*
X100490879Y-136988137D01*
X100496277Y-136997121D01*
X100501710Y-137006070D01*
X100507177Y-137014982D01*
X100512678Y-137023859D01*
X100518213Y-137032699D01*
X100523783Y-137041503D01*
X100529387Y-137050271D01*
X100535025Y-137059002D01*
X100540699Y-137067696D01*
X100546406Y-137076354D01*
X100552149Y-137084975D01*
X100557927Y-137093558D01*
X100563740Y-137102105D01*
X100569588Y-137110614D01*
X100575471Y-137119085D01*
X100581390Y-137127519D01*
X100587344Y-137135915D01*
X100593334Y-137144274D01*
X100599360Y-137152594D01*
X100605421Y-137160877D01*
X100611518Y-137169121D01*
X100617652Y-137177327D01*
X100623821Y-137185494D01*
X100630027Y-137193623D01*
X100636269Y-137201713D01*
X100642547Y-137209765D01*
X100648862Y-137217777D01*
X100655214Y-137225750D01*
X100661602Y-137233684D01*
X100668027Y-137241579D01*
X100674489Y-137249434D01*
X100680989Y-137257250D01*
X100687525Y-137265025D01*
X100694099Y-137272761D01*
X100700710Y-137280457D01*
X100707358Y-137288113D01*
X100714045Y-137295729D01*
X100720768Y-137303304D01*
X100727530Y-137310839D01*
X100734330Y-137318333D01*
X100741167Y-137325787D01*
X100748043Y-137333200D01*
X100754957Y-137340571D01*
X100761909Y-137347902D01*
X100768900Y-137355191D01*
X100775929Y-137362439D01*
X100782997Y-137369645D01*
X100790103Y-137376810D01*
X100797249Y-137383933D01*
X100804433Y-137391014D01*
X100811656Y-137398053D01*
X100818919Y-137405050D01*
X100826221Y-137412005D01*
X100833562Y-137418917D01*
X100840943Y-137425787D01*
X100848363Y-137432615D01*
X100855823Y-137439399D01*
X100863323Y-137446141D01*
X100870863Y-137452839D01*
X100878442Y-137459495D01*
X100886062Y-137466107D01*
X100893722Y-137472676D01*
X100901422Y-137479201D01*
X100909163Y-137485682D01*
X100916944Y-137492120D01*
X100924766Y-137498514D01*
X100932629Y-137504864D01*
X100940532Y-137511170D01*
X100948477Y-137517431D01*
X100956462Y-137523648D01*
X100964489Y-137529821D01*
X100972557Y-137535949D01*
X100980666Y-137542032D01*
X100988817Y-137548070D01*
X100997009Y-137554063D01*
X101005243Y-137560011D01*
X101013518Y-137565914D01*
X101021836Y-137571771D01*
X101030196Y-137577583D01*
X101038597Y-137583349D01*
X101047041Y-137589069D01*
X101055528Y-137594743D01*
X101064056Y-137600372D01*
X101072627Y-137605954D01*
X101081241Y-137611490D01*
X101089898Y-137616979D01*
X101098597Y-137622422D01*
X101107339Y-137627818D01*
X101116124Y-137633167D01*
X101124953Y-137638470D01*
X101133825Y-137643725D01*
X101142740Y-137648933D01*
X101151698Y-137654094D01*
X101160700Y-137659207D01*
X101169746Y-137664273D01*
X101178835Y-137669291D01*
X101187969Y-137674261D01*
X101197146Y-137679184D01*
X101206368Y-137684058D01*
X101215633Y-137688884D01*
X101224943Y-137693662D01*
X101234298Y-137698391D01*
X101243697Y-137703072D01*
X101253140Y-137707704D01*
X101262628Y-137712287D01*
X101272161Y-137716821D01*
X101281739Y-137721306D01*
X101291362Y-137725742D01*
X101301030Y-137730129D01*
X101310744Y-137734466D01*
X101320502Y-137738754D01*
X101330306Y-137742991D01*
X101340156Y-137747179D01*
X101350051Y-137751317D01*
X101359993Y-137755405D01*
X101369980Y-137759443D01*
X101380013Y-137763430D01*
X101390092Y-137767367D01*
X101400217Y-137771253D01*
X101410388Y-137775089D01*
X101420606Y-137778874D01*
X101430871Y-137782607D01*
X101441182Y-137786290D01*
X101451539Y-137789921D01*
X101461944Y-137793501D01*
X101472395Y-137797030D01*
X101482894Y-137800507D01*
X101493440Y-137803932D01*
X101504032Y-137807305D01*
X101514673Y-137810626D01*
X101525360Y-137813895D01*
X101536095Y-137817112D01*
X101546878Y-137820277D01*
X101557709Y-137823389D01*
X101568587Y-137826448D01*
X101579514Y-137829455D01*
X101590488Y-137832409D01*
X101601511Y-137835309D01*
X101612582Y-137838157D01*
X101623701Y-137840951D01*
X101634869Y-137843692D01*
X101646085Y-137846380D01*
X101657350Y-137849014D01*
X101668664Y-137851594D01*
X101680027Y-137854120D01*
X101691439Y-137856592D01*
X101702900Y-137859010D01*
X101714410Y-137861374D01*
X101725969Y-137863683D01*
X101737578Y-137865938D01*
X101749237Y-137868138D01*
X101760945Y-137870284D01*
X101772702Y-137872374D01*
X101784510Y-137874410D01*
X101796368Y-137876390D01*
X101808276Y-137878315D01*
X101820233Y-137880185D01*
X101832242Y-137881999D01*
X101844300Y-137883757D01*
X101856409Y-137885460D01*
X101868569Y-137887106D01*
X101880779Y-137888697D01*
X101893040Y-137890232D01*
X101905352Y-137891710D01*
X101917715Y-137893132D01*
X101930129Y-137894497D01*
X101942594Y-137895806D01*
X101955111Y-137897057D01*
X101967679Y-137898252D01*
X101980299Y-137899390D01*
X101992970Y-137900471D01*
X102005693Y-137901494D01*
X102018467Y-137902460D01*
X102031294Y-137903368D01*
X102044173Y-137904219D01*
X102057104Y-137905012D01*
X102070087Y-137905747D01*
X102083123Y-137906423D01*
X102096211Y-137907042D01*
X102109351Y-137907602D01*
X102122545Y-137908104D01*
X102135791Y-137908547D01*
X102149090Y-137908932D01*
X102162442Y-137909258D01*
X102175847Y-137909525D01*
X102189305Y-137909732D01*
X102202816Y-137909881D01*
X102216381Y-137909970D01*
X102230000Y-137910000D01*
D11*
X100000000Y-75000000D02*
G75*
G02*
X109600000Y-65185666I9600770J211240D01*
G01*
D10*
X102230000Y-137910000D02*
X102262751Y-137911129D01*
X102295533Y-137912279D01*
X102328060Y-137913440D01*
X102360618Y-137914622D01*
X102392928Y-137915816D01*
X102425267Y-137917030D01*
X102457365Y-137918256D01*
X102489492Y-137919503D01*
X102521384Y-137920761D01*
X102553302Y-137922041D01*
X102584993Y-137923331D01*
X102616709Y-137924643D01*
X102648203Y-137925965D01*
X102679721Y-137927309D01*
X102711023Y-137928663D01*
X102742348Y-137930039D01*
X102773461Y-137931425D01*
X102804597Y-137932833D01*
X102835526Y-137934251D01*
X102866477Y-137935691D01*
X102897225Y-137937141D01*
X102927995Y-137938613D01*
X102958567Y-137940095D01*
X102989158Y-137941598D01*
X103019557Y-137943112D01*
X103049974Y-137944647D01*
X103080202Y-137946192D01*
X103110449Y-137947759D01*
X103140510Y-137949336D01*
X103170588Y-137950934D01*
X103200485Y-137952543D01*
X103230399Y-137954173D01*
X103260134Y-137955813D01*
X103289886Y-137957474D01*
X103319463Y-137959146D01*
X103349055Y-137960838D01*
X103378476Y-137962541D01*
X103407911Y-137964265D01*
X103437178Y-137965999D01*
X103466459Y-137967754D01*
X103495575Y-137969519D01*
X103524704Y-137971305D01*
X103553671Y-137973102D01*
X103582650Y-137974919D01*
X103611470Y-137976747D01*
X103640302Y-137978595D01*
X103668977Y-137980454D01*
X103697664Y-137982333D01*
X103726196Y-137984222D01*
X103754740Y-137986132D01*
X103783131Y-137988053D01*
X103811533Y-137989994D01*
X103839785Y-137991945D01*
X103868048Y-137993916D01*
X103896163Y-137995898D01*
X103924287Y-137997900D01*
X103952267Y-137999913D01*
X103980256Y-138001946D01*
X104008101Y-138003989D01*
X104035956Y-138006052D01*
X104063669Y-138008125D01*
X104091391Y-138010219D01*
X104118973Y-138012323D01*
X104146564Y-138014447D01*
X104174017Y-138016581D01*
X104201478Y-138018736D01*
X104228804Y-138020900D01*
X104256136Y-138023085D01*
X104283335Y-138025280D01*
X104310541Y-138027495D01*
X104337616Y-138029719D01*
X104364696Y-138031965D01*
X104391646Y-138034219D01*
X104418603Y-138036494D01*
X104445431Y-138038779D01*
X104472264Y-138041084D01*
X104498971Y-138043398D01*
X104525682Y-138045733D01*
X104552269Y-138048078D01*
X104578860Y-138050442D01*
X104605328Y-138052816D01*
X104631800Y-138055211D01*
X104658150Y-138057614D01*
X104684504Y-138060038D01*
X104710737Y-138062472D01*
X104736974Y-138064925D01*
X104763092Y-138067388D01*
X104789213Y-138069871D01*
X104815216Y-138072363D01*
X104841222Y-138074876D01*
X104867112Y-138077397D01*
X104893004Y-138079939D01*
X104918780Y-138082490D01*
X104944560Y-138085061D01*
X104970225Y-138087641D01*
X104995892Y-138090241D01*
X105021446Y-138092850D01*
X105047002Y-138095479D01*
X105072447Y-138098117D01*
X105097893Y-138100776D01*
X105123228Y-138103443D01*
X105148565Y-138106130D01*
X105173792Y-138108826D01*
X105199021Y-138111542D01*
X105224141Y-138114267D01*
X105249261Y-138117012D01*
X105274275Y-138119765D01*
X105299289Y-138122539D01*
X105324197Y-138125321D01*
X105349105Y-138128123D01*
X105373908Y-138130934D01*
X105398711Y-138133765D01*
X105423410Y-138136604D01*
X105448108Y-138139463D01*
X105472704Y-138142331D01*
X105497298Y-138145219D01*
X105521791Y-138148115D01*
X105546283Y-138151031D01*
X105570674Y-138153955D01*
X105595063Y-138156899D01*
X105619353Y-138159851D01*
X105643641Y-138162824D01*
X105667830Y-138165804D01*
X105692017Y-138168805D01*
X105716106Y-138171813D01*
X105740193Y-138174842D01*
X105764183Y-138177878D01*
X105788170Y-138180935D01*
X105812061Y-138183999D01*
X105835950Y-138187083D01*
X105859743Y-138190175D01*
X105883533Y-138193287D01*
X105907229Y-138196407D01*
X105930921Y-138199547D01*
X105954520Y-138202695D01*
X105978116Y-138205862D01*
X106001619Y-138209037D01*
X106025118Y-138212232D01*
X106048525Y-138215434D01*
X106071928Y-138218657D01*
X106095240Y-138221886D01*
X106118548Y-138225136D01*
X106141765Y-138228393D01*
X106164979Y-138231670D01*
X106188102Y-138234955D01*
X106211221Y-138238259D01*
X106234251Y-138241571D01*
X106257277Y-138244902D01*
X106280214Y-138248241D01*
X106303146Y-138251599D01*
X106325991Y-138254965D01*
X106348831Y-138258350D01*
X106371584Y-138261743D01*
X106394332Y-138265155D01*
X106416993Y-138268574D01*
X106439649Y-138272013D01*
X106462220Y-138275460D01*
X106484785Y-138278926D01*
X106507265Y-138282399D01*
X106529740Y-138285891D01*
X106552130Y-138289391D01*
X106574514Y-138292910D01*
X106596815Y-138296436D01*
X106619110Y-138299981D01*
X106641322Y-138303534D01*
X106663528Y-138307106D01*
X106685651Y-138310685D01*
X106707768Y-138314283D01*
X106729803Y-138317888D01*
X106751832Y-138321513D01*
X106773779Y-138325144D01*
X106795720Y-138328795D01*
X106817581Y-138332453D01*
X106839434Y-138336130D01*
X106861208Y-138339813D01*
X106882975Y-138343516D01*
X106904662Y-138347226D01*
X106926342Y-138350955D01*
X106947944Y-138354690D01*
X106969538Y-138358445D01*
X106991054Y-138362207D01*
X107012562Y-138365987D01*
X107033993Y-138369774D01*
X107055416Y-138373581D01*
X107076762Y-138377393D01*
X107098101Y-138381225D01*
X107119362Y-138385064D01*
X107140616Y-138388921D01*
X107161794Y-138392785D01*
X107182964Y-138396668D01*
X107204058Y-138400558D01*
X107225145Y-138404466D01*
X107246156Y-138408381D01*
X107267159Y-138412314D01*
X107288087Y-138416255D01*
X107309007Y-138420214D01*
X107329853Y-138424179D01*
X107350691Y-138428163D01*
X107371455Y-138432153D01*
X107392210Y-138436163D01*
X107412892Y-138440178D01*
X107433566Y-138444213D01*
X107454167Y-138448253D01*
X107474760Y-138452312D01*
X107495279Y-138456378D01*
X107515791Y-138460462D01*
X107536230Y-138464552D01*
X107556661Y-138468661D01*
X107577020Y-138472776D01*
X107597370Y-138476910D01*
X107617649Y-138481049D01*
X107637920Y-138485208D01*
X107658119Y-138489372D01*
X107678310Y-138493555D01*
X107698430Y-138497744D01*
X107718542Y-138501951D01*
X107738583Y-138506164D01*
X107758616Y-138510396D01*
X107778579Y-138514634D01*
X107798532Y-138518890D01*
X107818417Y-138523152D01*
X107838292Y-138527432D01*
X107858099Y-138531718D01*
X107877897Y-138536023D01*
X107897626Y-138540333D01*
X107917346Y-138544662D01*
X107936998Y-138548996D01*
X107956640Y-138553349D01*
X107976215Y-138557708D01*
X107995780Y-138562084D01*
X108015279Y-138566467D01*
X108034767Y-138570867D01*
X108054189Y-138575274D01*
X108073601Y-138579698D01*
X108092947Y-138584128D01*
X108112284Y-138588576D01*
X108131554Y-138593030D01*
X108150814Y-138597502D01*
X108170009Y-138601979D01*
X108189194Y-138606475D01*
X108208314Y-138610976D01*
X108227423Y-138615495D01*
X108246468Y-138620020D01*
X108265503Y-138624562D01*
X108284473Y-138629110D01*
X108303433Y-138633676D01*
X108322329Y-138638247D01*
X108341215Y-138642836D01*
X108360037Y-138647431D01*
X108378849Y-138652043D01*
X108397597Y-138656661D01*
X108416335Y-138661297D01*
X108435011Y-138665938D01*
X108453675Y-138670596D01*
X108472277Y-138675260D01*
X108490868Y-138679942D01*
X108509398Y-138684629D01*
X108527916Y-138689334D01*
X108546373Y-138694044D01*
X108564819Y-138698771D01*
X108583203Y-138703504D01*
X108601576Y-138708254D01*
X108619889Y-138713010D01*
X108638190Y-138717783D01*
X108656431Y-138722561D01*
X108674661Y-138727357D01*
X108692830Y-138732158D01*
X108710988Y-138736977D01*
X108729086Y-138741800D01*
X108747173Y-138746641D01*
X108765200Y-138751487D01*
X108783216Y-138756351D01*
X108801172Y-138761219D01*
X108819117Y-138766105D01*
X108837003Y-138770996D01*
X108854878Y-138775904D01*
X108872694Y-138780817D01*
X108890498Y-138785748D01*
X108908244Y-138790683D01*
X108925979Y-138795636D01*
X108943655Y-138800593D01*
X108961320Y-138805568D01*
X108978927Y-138810547D01*
X108996522Y-138815544D01*
X109014060Y-138820546D01*
X109031586Y-138825565D01*
X109049055Y-138830588D01*
X109066512Y-138835629D01*
X109083913Y-138840675D01*
X109101301Y-138845738D01*
X109118633Y-138850805D01*
X109135953Y-138855889D01*
X109153217Y-138860978D01*
X109170469Y-138866085D01*
X109187665Y-138871195D01*
X109204849Y-138876323D01*
X109221978Y-138881456D01*
X109239094Y-138886605D01*
X109256155Y-138891759D01*
X109273204Y-138896931D01*
X109290197Y-138902106D01*
X109307179Y-138907299D01*
X109324106Y-138912495D01*
X109341021Y-138917709D01*
X109357881Y-138922928D01*
X109374729Y-138928163D01*
X109391522Y-138933403D01*
X109408304Y-138938659D01*
X109425031Y-138943920D01*
X109441746Y-138949198D01*
X109458408Y-138954480D01*
X109475057Y-138959779D01*
X109491653Y-138965082D01*
X109508236Y-138970402D01*
X109524766Y-138975726D01*
X109541284Y-138981068D01*
X109557749Y-138986413D01*
X109574201Y-138991775D01*
X109590601Y-138997141D01*
X109606989Y-139002524D01*
X109623324Y-139007911D01*
X109639646Y-139013315D01*
X109655916Y-139018723D01*
X109672174Y-139024148D01*
X109688380Y-139029576D01*
X109704574Y-139035022D01*
X109720715Y-139040471D01*
X109736844Y-139045937D01*
X109752922Y-139051407D01*
X109768988Y-139056894D01*
X109785002Y-139062384D01*
X109801003Y-139067892D01*
X109816954Y-139073403D01*
X109832892Y-139078930D01*
X109848779Y-139084462D01*
X109864653Y-139090010D01*
X109880478Y-139095562D01*
X109896289Y-139101130D01*
X109912051Y-139106703D01*
X109927799Y-139112292D01*
X109943498Y-139117884D01*
X109959184Y-139123493D01*
X109974820Y-139129106D01*
X109990444Y-139134735D01*
X110006018Y-139140368D01*
X110021579Y-139146018D01*
X110037091Y-139151671D01*
X110052590Y-139157340D01*
X110068040Y-139163014D01*
X110083478Y-139168703D01*
X110098867Y-139174396D01*
X110114242Y-139180106D01*
X110129570Y-139185819D01*
X110144884Y-139191548D01*
X110160150Y-139197281D01*
X110175403Y-139203031D01*
X110190608Y-139208784D01*
X110205801Y-139214553D01*
X110220945Y-139220325D01*
X110236076Y-139226114D01*
X110251160Y-139231907D01*
X110266231Y-139237715D01*
X110281255Y-139243527D01*
X110296265Y-139249356D01*
X110311229Y-139255187D01*
X110326179Y-139261035D01*
X110341082Y-139266887D01*
X110355972Y-139272754D01*
X110370816Y-139278625D01*
X110385647Y-139284512D01*
X110400431Y-139290402D01*
X110415202Y-139296308D01*
X110429927Y-139302218D01*
X110444638Y-139308144D01*
X110459304Y-139314073D01*
X110473956Y-139320018D01*
X110488563Y-139325966D01*
X110503157Y-139331931D01*
X110517705Y-139337898D01*
X110532239Y-139343882D01*
X110546729Y-139349869D01*
X110561205Y-139355872D01*
X110575636Y-139361878D01*
X110590054Y-139367900D01*
X110604426Y-139373925D01*
X110618786Y-139379966D01*
X110633101Y-139386010D01*
X110647402Y-139392070D01*
X110661660Y-139398133D01*
X110675903Y-139404213D01*
X110690103Y-139410295D01*
X110704289Y-139416393D01*
X110718431Y-139422494D01*
X110732560Y-139428611D01*
X110746645Y-139434731D01*
X110760716Y-139440867D01*
X110774744Y-139447006D01*
X110788758Y-139453161D01*
X110802730Y-139459318D01*
X110816687Y-139465492D01*
X110830602Y-139471668D01*
X110844502Y-139477860D01*
X110858360Y-139484055D01*
X110872205Y-139490266D01*
X110886006Y-139496480D01*
X110899794Y-139502710D01*
X110913540Y-139508942D01*
X110927272Y-139515190D01*
X110940962Y-139521441D01*
X110954638Y-139527708D01*
X110968272Y-139533977D01*
X110981892Y-139540262D01*
X110995471Y-139546550D01*
X111009035Y-139552854D01*
X111022558Y-139559160D01*
X111036068Y-139565483D01*
X111049536Y-139571807D01*
X111062990Y-139578148D01*
X111076403Y-139584491D01*
X111089802Y-139590850D01*
X111103160Y-139597211D01*
X111116504Y-139603588D01*
X111129807Y-139609968D01*
X111143097Y-139616364D01*
X111156346Y-139622762D01*
X111169581Y-139629175D01*
X111182776Y-139635591D01*
X111195956Y-139642023D01*
X111209097Y-139648458D01*
X111222224Y-139654907D01*
X111235310Y-139661360D01*
X111248383Y-139667828D01*
X111261416Y-139674299D01*
X111274435Y-139680785D01*
X111287414Y-139687273D01*
X111300379Y-139693777D01*
X111313305Y-139700284D01*
X111326217Y-139706806D01*
X111339090Y-139713331D01*
X111351948Y-139719871D01*
X111364768Y-139726414D01*
X111377573Y-139732972D01*
X111390340Y-139739532D01*
X111403092Y-139746108D01*
X111415806Y-139752686D01*
X111428506Y-139759280D01*
X111441167Y-139765876D01*
X111453815Y-139772488D01*
X111466424Y-139779102D01*
X111479018Y-139785731D01*
X111491575Y-139792363D01*
X111504118Y-139799010D01*
X111516622Y-139805660D01*
X111529113Y-139812325D01*
X111541566Y-139818992D01*
X111554004Y-139825674D01*
X111566405Y-139832359D01*
X111578792Y-139839059D01*
X111591141Y-139845762D01*
X111603477Y-139852480D01*
X111615775Y-139859200D01*
X111628059Y-139865935D01*
X111640305Y-139872673D01*
X111652538Y-139879426D01*
X111664734Y-139886181D01*
X111676915Y-139892952D01*
X111689060Y-139899725D01*
X111701190Y-139906513D01*
X111713284Y-139913303D01*
X111725364Y-139920109D01*
X111737408Y-139926917D01*
X111749437Y-139933739D01*
X111761430Y-139940565D01*
X111773409Y-139947405D01*
X111785351Y-139954248D01*
X111797280Y-139961105D01*
X111809173Y-139967966D01*
X111821051Y-139974841D01*
X111832894Y-139981718D01*
X111844722Y-139988611D01*
X111856515Y-139995505D01*
X111868293Y-140002415D01*
X111880037Y-140009327D01*
X111891765Y-140016254D01*
X111903459Y-140023184D01*
X111915139Y-140030128D01*
X111926783Y-140037075D01*
X111938413Y-140044036D01*
X111950008Y-140051000D01*
X111961589Y-140057979D01*
X111973135Y-140064960D01*
X111984667Y-140071956D01*
X111996164Y-140078954D01*
X112007647Y-140085967D01*
X112019096Y-140092983D01*
X112030530Y-140100013D01*
X112041930Y-140107046D01*
X112053316Y-140114093D01*
X112064667Y-140121143D01*
X112076005Y-140128208D01*
X112087308Y-140135275D01*
X112098597Y-140142356D01*
X112109852Y-140149440D01*
X112121093Y-140156539D01*
X112132300Y-140163640D01*
X112143493Y-140170756D01*
X112154652Y-140177874D01*
X112165797Y-140185007D01*
X112176909Y-140192142D01*
X112188006Y-140199292D01*
X112199071Y-140206444D01*
X112210120Y-140213611D01*
X112221137Y-140220780D01*
X112232140Y-140227964D01*
X112243109Y-140235150D01*
X112254064Y-140242350D01*
X112264987Y-140249554D01*
X112275895Y-140256771D01*
X112286770Y-140263991D01*
X112297631Y-140271226D01*
X112308460Y-140278463D01*
X112319274Y-140285715D01*
X112330056Y-140292969D01*
X112340824Y-140300237D01*
X112351559Y-140307508D01*
X112362280Y-140314793D01*
X112372970Y-140322081D01*
X112383644Y-140329384D01*
X112394287Y-140336688D01*
X112404916Y-140344007D01*
X112415512Y-140351329D01*
X112426095Y-140358665D01*
X112436645Y-140366003D01*
X112447182Y-140373356D01*
X112457687Y-140380711D01*
X112468177Y-140388081D01*
X112478637Y-140395453D01*
X112489081Y-140402840D01*
X112499495Y-140410229D01*
X112509894Y-140417632D01*
X112520263Y-140425038D01*
X112530617Y-140432458D01*
X112540940Y-140439881D01*
X112551248Y-140447318D01*
X112561526Y-140454757D01*
X112571789Y-140462211D01*
X112582022Y-140469667D01*
X112592241Y-140477137D01*
X112602429Y-140484610D01*
X112612602Y-140492098D01*
X112622745Y-140499588D01*
X112632874Y-140507092D01*
X112642973Y-140514598D01*
X112653057Y-140522119D01*
X112663111Y-140529642D01*
X112673151Y-140537180D01*
X112683160Y-140544720D01*
X112693156Y-140552274D01*
X112703121Y-140559831D01*
X112713072Y-140567403D01*
X112722994Y-140574976D01*
X112732901Y-140582564D01*
X112742778Y-140590155D01*
X112752641Y-140597759D01*
X112762475Y-140605366D01*
X112772294Y-140612988D01*
X112782084Y-140620612D01*
X112791859Y-140628250D01*
X112801606Y-140635891D01*
X112811337Y-140643545D01*
X112821040Y-140651203D01*
X112830729Y-140658875D01*
X112840388Y-140666549D01*
X112850033Y-140674237D01*
X112859650Y-140681928D01*
X112869251Y-140689633D01*
X112878825Y-140697341D01*
X112888383Y-140705063D01*
X112897914Y-140712788D01*
X112907429Y-140720526D01*
X112916917Y-140728267D01*
X112926390Y-140736023D01*
X112935834Y-140743781D01*
X112945264Y-140751553D01*
X112954667Y-140759328D01*
X112964054Y-140767117D01*
X112973414Y-140774908D01*
X112982759Y-140782714D01*
X112992076Y-140790522D01*
X113001379Y-140798345D01*
X113010654Y-140806170D01*
X113019914Y-140814009D01*
X113029147Y-140821851D01*
X113038365Y-140829707D01*
X113047556Y-140837566D01*
X113056732Y-140845439D01*
X113065881Y-140853315D01*
X113075016Y-140861204D01*
X113084123Y-140869097D01*
X113093215Y-140877003D01*
X113102281Y-140884912D01*
X113111332Y-140892835D01*
X113120356Y-140900762D01*
X113129365Y-140908701D01*
X113138347Y-140916644D01*
X113147315Y-140924601D01*
X113156256Y-140932561D01*
X113165183Y-140940535D01*
X113174083Y-140948512D01*
X113182968Y-140956502D01*
X113191827Y-140964496D01*
X113200671Y-140972503D01*
X113209489Y-140980514D01*
X113218292Y-140988538D01*
X113227069Y-140996565D01*
X113235831Y-141004606D01*
X113244568Y-141012651D01*
X113253289Y-141020709D01*
X113261985Y-141028770D01*
X113270665Y-141036845D01*
X113279320Y-141044923D01*
X113287961Y-141053015D01*
X113296575Y-141061110D01*
X113305175Y-141069219D01*
X113313749Y-141077331D01*
X113322308Y-141085457D01*
X113330842Y-141093586D01*
X113339361Y-141101729D01*
X113347855Y-141109875D01*
X113356334Y-141118035D01*
X113364788Y-141126198D01*
X113373227Y-141134375D01*
X113381640Y-141142555D01*
X113390039Y-141150749D01*
X113398413Y-141158946D01*
X113406772Y-141167157D01*
X113415106Y-141175371D01*
X113423426Y-141183599D01*
X113431720Y-141191831D01*
X113440000Y-141200076D01*
X113448255Y-141208325D01*
X113456495Y-141216587D01*
X113464711Y-141224852D01*
X113472911Y-141233132D01*
X113481088Y-141241415D01*
X113489249Y-141249711D01*
X113497386Y-141258011D01*
X113505508Y-141266325D01*
X113513606Y-141274642D01*
X113521689Y-141282973D01*
X113529747Y-141291308D01*
X113537791Y-141299656D01*
X113545811Y-141308007D01*
X113553816Y-141316373D01*
X113561797Y-141324742D01*
X113569763Y-141333124D01*
X113577705Y-141341511D01*
X113585632Y-141349911D01*
X113593536Y-141358315D01*
X113601424Y-141366732D01*
X113609289Y-141375153D01*
X113617139Y-141383587D01*
X113624965Y-141392026D01*
X113632777Y-141400478D01*
X113640565Y-141408934D01*
X113648338Y-141417403D01*
X113656087Y-141425877D01*
X113663822Y-141434363D01*
X113671533Y-141442854D01*
X113679230Y-141451358D01*
X113686903Y-141459867D01*
X113694561Y-141468388D01*
X113702196Y-141476914D01*
X113709816Y-141485454D01*
X113717414Y-141493997D01*
X113724996Y-141502554D01*
X113732555Y-141511115D01*
X113740099Y-141519689D01*
X113747621Y-141528268D01*
X113755127Y-141536860D01*
X113762611Y-141545456D01*
X113770080Y-141554066D01*
X113777526Y-141562680D01*
X113784957Y-141571307D01*
X113792365Y-141579939D01*
X113799759Y-141588584D01*
X113807130Y-141597234D01*
X113814486Y-141605897D01*
X113821819Y-141614564D01*
X113829138Y-141623245D01*
X113836434Y-141631930D01*
X113843715Y-141640628D01*
X113850974Y-141649331D01*
X113858218Y-141658047D01*
X113865440Y-141666768D01*
X113872647Y-141675503D01*
X113879832Y-141684241D01*
X113887002Y-141692994D01*
X113894149Y-141701750D01*
X113901282Y-141710520D01*
X113908393Y-141719295D01*
X113915489Y-141728083D01*
X113922562Y-141736876D01*
X113929621Y-141745682D01*
X113936658Y-141754493D01*
X113943680Y-141763318D01*
X113950681Y-141772147D01*
X113957666Y-141780989D01*
X113964630Y-141789836D01*
X113971579Y-141798697D01*
X113978506Y-141807563D01*
X113985418Y-141816441D01*
X113992308Y-141825325D01*
X113999184Y-141834222D01*
X114006038Y-141843124D01*
X114012877Y-141852039D01*
X114019695Y-141860960D01*
X114026498Y-141869894D01*
X114033279Y-141878832D01*
X114040046Y-141887784D01*
X114046791Y-141896742D01*
X114053521Y-141905712D01*
X114060230Y-141914688D01*
X114066924Y-141923677D01*
X114073597Y-141932671D01*
X114080255Y-141941678D01*
X114086892Y-141950691D01*
X114093513Y-141959717D01*
X114100114Y-141968748D01*
X114106700Y-141977793D01*
X114113265Y-141986843D01*
X114119815Y-141995906D01*
X114126344Y-142004975D01*
X114132858Y-142014057D01*
X114139351Y-142023144D01*
X114145829Y-142032245D01*
X114152287Y-142041352D01*
X114158729Y-142050471D01*
X114165151Y-142059596D01*
X114171558Y-142068735D01*
X114177944Y-142077879D01*
X114184315Y-142087036D01*
X114190666Y-142096199D01*
X114197001Y-142105375D01*
X114203316Y-142114557D01*
X114209616Y-142123752D01*
X114215896Y-142132953D01*
X114222160Y-142142168D01*
X114228405Y-142151388D01*
X114234634Y-142160621D01*
X114240842Y-142169860D01*
X114247036Y-142179113D01*
X114253210Y-142188371D01*
X114259368Y-142197643D01*
X114265506Y-142206921D01*
X114271629Y-142216212D01*
X114277733Y-142225509D01*
X114283820Y-142234819D01*
X114289888Y-142244136D01*
X114295941Y-142253465D01*
X114301974Y-142262801D01*
X114307992Y-142272150D01*
X114313989Y-142281506D01*
X114319972Y-142290874D01*
X114325935Y-142300249D01*
X114331882Y-142309637D01*
X114337810Y-142319032D01*
X114343723Y-142328440D01*
X114349616Y-142337854D01*
X114355493Y-142347281D01*
X114361351Y-142356715D01*
X114367194Y-142366162D01*
X114373017Y-142375616D01*
X114378825Y-142385083D01*
X114384614Y-142394556D01*
X114390387Y-142404043D01*
X114396140Y-142413536D01*
X114401879Y-142423043D01*
X114407598Y-142432556D01*
X114413301Y-142442083D01*
X114418985Y-142451616D01*
X114424654Y-142461162D01*
X114430304Y-142470716D01*
X114435938Y-142480282D01*
X114441553Y-142489856D01*
X114447153Y-142499443D01*
X114452734Y-142509036D01*
X114458299Y-142518643D01*
X114463845Y-142528257D01*
X114469375Y-142537884D01*
X114474887Y-142547519D01*
X114480383Y-142557166D01*
X114485860Y-142566821D01*
X114491322Y-142576489D01*
X114496764Y-142586164D01*
X114502192Y-142595852D01*
X114507600Y-142605548D01*
X114512993Y-142615256D01*
X114518367Y-142624973D01*
X114523725Y-142634702D01*
X114529065Y-142644439D01*
X114534389Y-142654189D01*
X114539694Y-142663946D01*
X114544984Y-142673717D01*
X114550255Y-142683496D01*
X114555510Y-142693287D01*
X114560747Y-142703086D01*
X114565969Y-142712899D01*
X114571171Y-142722719D01*
X114576358Y-142732552D01*
X114581527Y-142742393D01*
X114586680Y-142752247D01*
X114591814Y-142762109D01*
X114596933Y-142771985D01*
X114602033Y-142781868D01*
X114607117Y-142791764D01*
X114612183Y-142801668D01*
X114617234Y-142811586D01*
X114622266Y-142821512D01*
X114627282Y-142831451D01*
X114632280Y-142841397D01*
X114637262Y-142851358D01*
X114642226Y-142861326D01*
X114647174Y-142871308D01*
X114652104Y-142881297D01*
X114657018Y-142891300D01*
X114661914Y-142901312D01*
X114666794Y-142911336D01*
X114671656Y-142921369D01*
X114676502Y-142931415D01*
X114681330Y-142941470D01*
X114686142Y-142951538D01*
X114690936Y-142961614D01*
X114695715Y-142971704D01*
X114700475Y-142981802D01*
X114705219Y-142991914D01*
X114709945Y-143002034D01*
X114714655Y-143012167D01*
X114719347Y-143022309D01*
X114724024Y-143032465D01*
X114728682Y-143042629D01*
X114733324Y-143052806D01*
X114737949Y-143062993D01*
X114742557Y-143073192D01*
X114747148Y-143083401D01*
X114751723Y-143093622D01*
X114756279Y-143103853D01*
X114760820Y-143114097D01*
X114765343Y-143124350D01*
X114769850Y-143134617D01*
X114774339Y-143144892D01*
X114778812Y-143155181D01*
X114783267Y-143165479D01*
X114787706Y-143175791D01*
X114792127Y-143186111D01*
X114796532Y-143196445D01*
X114800920Y-143206789D01*
X114805291Y-143217145D01*
X114809645Y-143227511D01*
X114813982Y-143237891D01*
X114818302Y-143248280D01*
X114822606Y-143258682D01*
X114826892Y-143269094D01*
X114831162Y-143279519D01*
X114835414Y-143289954D01*
X114839650Y-143300402D01*
X114843868Y-143310860D01*
X114848071Y-143321331D01*
X114852255Y-143331812D01*
X114856423Y-143342306D01*
X114860574Y-143352811D01*
X114864709Y-143363328D01*
X114868826Y-143373856D01*
X114872926Y-143384397D01*
X114877009Y-143394948D01*
X114881076Y-143405512D01*
X114885125Y-143416087D01*
X114889158Y-143426674D01*
X114893174Y-143437272D01*
X114897173Y-143447884D01*
X114901154Y-143458506D01*
X114905120Y-143469141D01*
X114909067Y-143479786D01*
X114912999Y-143490445D01*
X114916912Y-143501114D01*
X114920810Y-143511797D01*
X114924690Y-143522490D01*
X114928553Y-143533196D01*
X114932399Y-143543913D01*
X114936229Y-143554644D01*
X114940041Y-143565385D01*
X114943837Y-143576140D01*
X114947615Y-143586905D01*
X114951377Y-143597684D01*
X114955122Y-143608474D01*
X114958850Y-143619277D01*
X114962560Y-143630091D01*
X114966254Y-143640918D01*
X114969930Y-143651756D01*
X114973590Y-143662608D01*
X114977233Y-143673471D01*
X114980859Y-143684347D01*
X114984468Y-143695235D01*
X114988060Y-143706136D01*
X114991634Y-143717048D01*
X114995192Y-143727974D01*
X114998733Y-143738910D01*
X115002257Y-143749861D01*
X115005763Y-143760823D01*
X115009253Y-143771798D01*
X115012726Y-143782785D01*
X115016182Y-143793785D01*
X115019620Y-143804797D01*
X115023042Y-143815822D01*
X115026446Y-143826859D01*
X115029834Y-143837909D01*
X115033204Y-143848972D01*
X115036558Y-143860047D01*
X115039894Y-143871135D01*
X115043213Y-143882236D01*
X115046515Y-143893349D01*
X115049800Y-143904475D01*
X115053068Y-143915613D01*
X115056319Y-143926765D01*
X115059553Y-143937929D01*
X115062769Y-143949107D01*
X115065969Y-143960296D01*
X115069151Y-143971500D01*
X115072316Y-143982715D01*
X115075464Y-143993944D01*
X115078595Y-144005185D01*
X115081709Y-144016440D01*
X115084805Y-144027707D01*
X115087885Y-144038988D01*
X115090947Y-144050282D01*
X115093992Y-144061589D01*
X115097020Y-144072908D01*
X115100031Y-144084241D01*
X115103024Y-144095587D01*
X115106000Y-144106946D01*
X115108959Y-144118318D01*
X115111901Y-144129704D01*
X115114825Y-144141102D01*
X115117732Y-144152515D01*
X115120622Y-144163940D01*
X115123495Y-144175378D01*
X115126350Y-144186830D01*
X115129188Y-144198295D01*
X115132009Y-144209774D01*
X115134812Y-144221266D01*
X115137598Y-144232771D01*
X115140367Y-144244290D01*
X115143119Y-144255822D01*
X115145853Y-144267368D01*
X115148569Y-144278927D01*
X115151269Y-144290500D01*
X115153951Y-144302086D01*
X115156615Y-144313686D01*
X115159262Y-144325299D01*
X115161892Y-144336927D01*
X115164505Y-144348567D01*
X115167099Y-144360222D01*
X115167571Y-144362350D01*
D11*
X111080000Y-76975407D02*
G75*
G02*
X107900000Y-76975407I-1590000J0D01*
G01*
X107900000Y-76975407D02*
G75*
G02*
X111080000Y-76975407I1590000J0D01*
G01*
X109500000Y-67604695D02*
X109600000Y-65185667D01*
X109500000Y-67604695D02*
X170000000Y-67604696D01*
D10*
X115167571Y-144362350D02*
X115235666Y-144717867D01*
X115300406Y-145055764D01*
X115361486Y-145374452D01*
X115419420Y-145676626D01*
X115473913Y-145960745D01*
X115525468Y-146229443D01*
X115573798Y-146481231D01*
X115619395Y-146718675D01*
X115661982Y-146940340D01*
X115702038Y-147148725D01*
X115739295Y-147342451D01*
X115774219Y-147523941D01*
X115806555Y-147691877D01*
X115836752Y-147848604D01*
X115864568Y-147992866D01*
X115890435Y-148126924D01*
X115914125Y-148249589D01*
X115936053Y-148363031D01*
X115956001Y-148466132D01*
X115974370Y-148560965D01*
X115990956Y-148646488D01*
X116006137Y-148724669D01*
X116019725Y-148794545D01*
X116032079Y-148857972D01*
X116043025Y-148914070D01*
X116052900Y-148964577D01*
X116061546Y-149008697D01*
X116069276Y-149048044D01*
X116075948Y-149081909D01*
X116081852Y-149111772D01*
X116086862Y-149137016D01*
X116091241Y-149158977D01*
X116094880Y-149177131D01*
X116098013Y-149192666D01*
X116100551Y-149205148D01*
X116102697Y-149215610D01*
X116104378Y-149223711D01*
X116105770Y-149230319D01*
X116106812Y-149235180D01*
X116107652Y-149239002D01*
X116108245Y-149241610D01*
X116108706Y-149243550D01*
X116109003Y-149244720D01*
X116109224Y-149245507D01*
X116109347Y-149245877D01*
X116109435Y-149246070D01*
X116109471Y-149246107D01*
X116109496Y-149246095D01*
X116109518Y-149245981D01*
X116109509Y-149245561D01*
X116109406Y-149244484D01*
X116109165Y-149242540D01*
X116108991Y-149241136D01*
X116108959Y-149240766D01*
X116108964Y-149240701D01*
X116108986Y-149240730D01*
X116109086Y-149241110D01*
X116109276Y-149241991D01*
X116109989Y-149245584D01*
X116109989Y-149245584D02*
X116110767Y-149246874D01*
X116111556Y-149248339D01*
X116112356Y-149249995D01*
X116113166Y-149251859D01*
X116113985Y-149253948D01*
X116114813Y-149256282D01*
X116115650Y-149258881D01*
X116116493Y-149261766D01*
X116117342Y-149264959D01*
X116118196Y-149268486D01*
X116119053Y-149272372D01*
X116119914Y-149276644D01*
X116120775Y-149281334D01*
X116121638Y-149286472D01*
X116122499Y-149292094D01*
X116123359Y-149298238D01*
X116124216Y-149304946D01*
X116125070Y-149312262D01*
X116125920Y-149320240D01*
X116126766Y-149328934D01*
X116127607Y-149338411D01*
X116128443Y-149348743D01*
X116129275Y-149360015D01*
X116130104Y-149372328D01*
X116130930Y-149385800D01*
X116131757Y-149400577D01*
X116132586Y-149416837D01*
X116133424Y-149434813D01*
X116134277Y-149454810D01*
X116135155Y-149477253D01*
X116136075Y-149502769D01*
X116137065Y-149532372D01*
X116138178Y-149567927D01*
X116139542Y-149613817D01*
X116140650Y-149652034D01*
X116142370Y-149711133D01*
X116143287Y-149741908D01*
X116144251Y-149773479D01*
X116145273Y-149805828D01*
X116146358Y-149838938D01*
X116147516Y-149872793D01*
X116148753Y-149907376D01*
X116150079Y-149942670D01*
X116151501Y-149978659D01*
X116152251Y-149996909D01*
X116153027Y-150015326D01*
X116153832Y-150033909D01*
X116154665Y-150052654D01*
X116155529Y-150071561D01*
X116156423Y-150090627D01*
X116157350Y-150109850D01*
X116158309Y-150129228D01*
X116159303Y-150148758D01*
X116160331Y-150168440D01*
X116161395Y-150188269D01*
X116162497Y-150208246D01*
X116163636Y-150228367D01*
X116164814Y-150248630D01*
X116166033Y-150269033D01*
X116167292Y-150289575D01*
X116168593Y-150310252D01*
X116169937Y-150331064D01*
X116171325Y-150352007D01*
X116172758Y-150373080D01*
X116174236Y-150394281D01*
X116175762Y-150415608D01*
X116177336Y-150437058D01*
X116178958Y-150458630D01*
X116180630Y-150480321D01*
X116182354Y-150502129D01*
X116184129Y-150524052D01*
X116185957Y-150546089D01*
X116187839Y-150568236D01*
X116189776Y-150590493D01*
X116191768Y-150612856D01*
X116193818Y-150635324D01*
X116195925Y-150657895D01*
X116198092Y-150680566D01*
X116200318Y-150703336D01*
X116202605Y-150726202D01*
X116204954Y-150749162D01*
X116207365Y-150772215D01*
X116209841Y-150795358D01*
X116212381Y-150818588D01*
X116214987Y-150841905D01*
X116217660Y-150865306D01*
X116220401Y-150888788D01*
X116223211Y-150912350D01*
X116226090Y-150935989D01*
X116229040Y-150959705D01*
X116232062Y-150983493D01*
X116235157Y-151007353D01*
X116238325Y-151031282D01*
X116241569Y-151055278D01*
X116244888Y-151079339D01*
X116248284Y-151103464D01*
X116251757Y-151127649D01*
X116255310Y-151151893D01*
X116258942Y-151176193D01*
X116262655Y-151200548D01*
X116266450Y-151224956D01*
X116270327Y-151249414D01*
X116274288Y-151273921D01*
X116278334Y-151298474D01*
X116282466Y-151323070D01*
X116286684Y-151347709D01*
X116288826Y-151360044D01*
X116290990Y-151372388D01*
X116293176Y-151384742D01*
X116295385Y-151397105D01*
X116297616Y-151409477D01*
X116299869Y-151421858D01*
X116302146Y-151434247D01*
X116304445Y-151446645D01*
X116306766Y-151459050D01*
X116309111Y-151471463D01*
X116311480Y-151483883D01*
X116313871Y-151496310D01*
X116316286Y-151508745D01*
X116318724Y-151521185D01*
X116321186Y-151533633D01*
X116323672Y-151546086D01*
X116326182Y-151558545D01*
X116328716Y-151571010D01*
X116331274Y-151583480D01*
X116333856Y-151595955D01*
X116336463Y-151608434D01*
X116339094Y-151620919D01*
X116341750Y-151633407D01*
X116344431Y-151645900D01*
X116347136Y-151658396D01*
X116349867Y-151670896D01*
X116352623Y-151683399D01*
X116355404Y-151695905D01*
X116358211Y-151708413D01*
X116361043Y-151720924D01*
X116363900Y-151733438D01*
X116366784Y-151745953D01*
X116369693Y-151758469D01*
X116372629Y-151770987D01*
X116375590Y-151783507D01*
X116378578Y-151796027D01*
X116381593Y-151808547D01*
X116384634Y-151821069D01*
X116387701Y-151833590D01*
X116390795Y-151846111D01*
X116393917Y-151858631D01*
X116397065Y-151871151D01*
X116400240Y-151883670D01*
X116403443Y-151896187D01*
X116406673Y-151908703D01*
X116409931Y-151921218D01*
X116413216Y-151933730D01*
X116416529Y-151946240D01*
X116419870Y-151958748D01*
X116423239Y-151971252D01*
X116426636Y-151983754D01*
X116430061Y-151996252D01*
X116433515Y-152008747D01*
X116436997Y-152021238D01*
X116440508Y-152033725D01*
X116444048Y-152046207D01*
X116447617Y-152058685D01*
X116451214Y-152071158D01*
X116454841Y-152083626D01*
X116458497Y-152096088D01*
X116462182Y-152108545D01*
X116465897Y-152120996D01*
X116469642Y-152133441D01*
X116473416Y-152145879D01*
X116477221Y-152158310D01*
X116481055Y-152170735D01*
X116484919Y-152183152D01*
X116488814Y-152195562D01*
X116492739Y-152207964D01*
X116496695Y-152220358D01*
X116500681Y-152232744D01*
X116504698Y-152245121D01*
X116508746Y-152257489D01*
X116512825Y-152269848D01*
X116516935Y-152282198D01*
X116521076Y-152294539D01*
X116525249Y-152306869D01*
X116529453Y-152319190D01*
X116533689Y-152331500D01*
X116537956Y-152343799D01*
X116542256Y-152356088D01*
X116546587Y-152368365D01*
X116550951Y-152380632D01*
X116555347Y-152392886D01*
X116559775Y-152405128D01*
X116564236Y-152417359D01*
X116568729Y-152429576D01*
X116573255Y-152441781D01*
X116577814Y-152453973D01*
X116582406Y-152466152D01*
X116587031Y-152478318D01*
X116591689Y-152490469D01*
X116596381Y-152502607D01*
X116601106Y-152514730D01*
X116605865Y-152526839D01*
X116610658Y-152538933D01*
X116615484Y-152551012D01*
X116620345Y-152563075D01*
X116625240Y-152575123D01*
X116630168Y-152587155D01*
X116635132Y-152599171D01*
X116640129Y-152611171D01*
X116645162Y-152623154D01*
X116650229Y-152635120D01*
X116655331Y-152647069D01*
X116660468Y-152659000D01*
X116665640Y-152670914D01*
X116670847Y-152682810D01*
X116676090Y-152694688D01*
X116681368Y-152706547D01*
X116686682Y-152718388D01*
X116692031Y-152730209D01*
X116697416Y-152742012D01*
X116702838Y-152753794D01*
X116708295Y-152765557D01*
X116713789Y-152777300D01*
X116719319Y-152789023D01*
X116724886Y-152800725D01*
X116730489Y-152812407D01*
X116736129Y-152824067D01*
X116741805Y-152835706D01*
X116747519Y-152847323D01*
X116753270Y-152858919D01*
X116759058Y-152870492D01*
X116764884Y-152882043D01*
X116770746Y-152893572D01*
X116776647Y-152905077D01*
X116782585Y-152916559D01*
X116788561Y-152928018D01*
X116794575Y-152939454D01*
X116800628Y-152950865D01*
X116806718Y-152962252D01*
X116812847Y-152973615D01*
X116819014Y-152984953D01*
X116825220Y-152996265D01*
X116831464Y-153007553D01*
X116837748Y-153018815D01*
X116844070Y-153030052D01*
X116850432Y-153041262D01*
X116856832Y-153052446D01*
X116863272Y-153063604D01*
X116869752Y-153074734D01*
X116876271Y-153085838D01*
X116882830Y-153096914D01*
X116889429Y-153107963D01*
X116896067Y-153118984D01*
X116902746Y-153129976D01*
X116909465Y-153140941D01*
X116916224Y-153151876D01*
X116923024Y-153162783D01*
X116929864Y-153173661D01*
X116936745Y-153184509D01*
X116943667Y-153195327D01*
X116950630Y-153206116D01*
X116957634Y-153216874D01*
X116964679Y-153227602D01*
X116971766Y-153238299D01*
X116978894Y-153248965D01*
X116986063Y-153259600D01*
X116993275Y-153270204D01*
X117000528Y-153280775D01*
X117007823Y-153291315D01*
X117015160Y-153301822D01*
X117022539Y-153312297D01*
X117029961Y-153322739D01*
X117037425Y-153333148D01*
X117044932Y-153343523D01*
X117052481Y-153353865D01*
X117060074Y-153364173D01*
X117067709Y-153374447D01*
X117075387Y-153384686D01*
X117083109Y-153394891D01*
X117090874Y-153405061D01*
X117098682Y-153415196D01*
X117106534Y-153425295D01*
X117114429Y-153435359D01*
X117122369Y-153445387D01*
X117130352Y-153455378D01*
X117138379Y-153465333D01*
X117146451Y-153475252D01*
X117154567Y-153485133D01*
X117162727Y-153494977D01*
X117170932Y-153504783D01*
X117179182Y-153514552D01*
X117187476Y-153524283D01*
X117195816Y-153533975D01*
X117204200Y-153543629D01*
X117212630Y-153553244D01*
X117221105Y-153562820D01*
X117229625Y-153572356D01*
X117238191Y-153581853D01*
X117246803Y-153591310D01*
X117255460Y-153600727D01*
X117264164Y-153610104D01*
X117272913Y-153619440D01*
X117281709Y-153628735D01*
X117290551Y-153637989D01*
X117299440Y-153647201D01*
X117308375Y-153656372D01*
X117317356Y-153665501D01*
X117326385Y-153674587D01*
X117335460Y-153683631D01*
X117344583Y-153692632D01*
X117353752Y-153701591D01*
X117362969Y-153710506D01*
X117372234Y-153719377D01*
X117381546Y-153728205D01*
X117390906Y-153736989D01*
X117400313Y-153745728D01*
X117409768Y-153754423D01*
X117419272Y-153763073D01*
X117428824Y-153771678D01*
X117438424Y-153780237D01*
X117448072Y-153788751D01*
X117457769Y-153797219D01*
X117467514Y-153805641D01*
X117477309Y-153814017D01*
X117487152Y-153822346D01*
X117497045Y-153830628D01*
X117506986Y-153838862D01*
X117516977Y-153847050D01*
X117527017Y-153855189D01*
X117537107Y-153863281D01*
X117547247Y-153871324D01*
X117557436Y-153879319D01*
X117567675Y-153887266D01*
X117577964Y-153895163D01*
X117588304Y-153903011D01*
X117598694Y-153910809D01*
X117609134Y-153918558D01*
X117619624Y-153926256D01*
X117630166Y-153933905D01*
X117640758Y-153941502D01*
X117651401Y-153949049D01*
X117662095Y-153956545D01*
X117672840Y-153963989D01*
X117683637Y-153971382D01*
X117694485Y-153978723D01*
X117705384Y-153986012D01*
X117716336Y-153993248D01*
X117727339Y-154000432D01*
X117738393Y-154007563D01*
X117749500Y-154014640D01*
X117760659Y-154021664D01*
X117771871Y-154028635D01*
X117783135Y-154035551D01*
X117794451Y-154042414D01*
X117805820Y-154049221D01*
X117817242Y-154055974D01*
X117828716Y-154062672D01*
X117840244Y-154069315D01*
X117851825Y-154075902D01*
X117863459Y-154082434D01*
X117875146Y-154088909D01*
X117886887Y-154095328D01*
X117898682Y-154101691D01*
X117910531Y-154107996D01*
X117922433Y-154114245D01*
X117934389Y-154120436D01*
X117946400Y-154126569D01*
X117958465Y-154132645D01*
X117970584Y-154138663D01*
X117982758Y-154144622D01*
X117994986Y-154150522D01*
X118007269Y-154156364D01*
X118019607Y-154162146D01*
X118032001Y-154167869D01*
X118044449Y-154173532D01*
X118056952Y-154179135D01*
X118069511Y-154184678D01*
X118082126Y-154190161D01*
X118094796Y-154195582D01*
X118107522Y-154200943D01*
X118120303Y-154206242D01*
X118133141Y-154211480D01*
X118146035Y-154216656D01*
X118158985Y-154221770D01*
X118171992Y-154226822D01*
X118185055Y-154231811D01*
X118198174Y-154236737D01*
X118211351Y-154241601D01*
X118224584Y-154246400D01*
X118237875Y-154251136D01*
X118251222Y-154255809D01*
X118264627Y-154260417D01*
X118278089Y-154264961D01*
X118291609Y-154269440D01*
X118305186Y-154273854D01*
X118318821Y-154278203D01*
X118332514Y-154282486D01*
X118339382Y-154284603D01*
X118346265Y-154286704D01*
X118353162Y-154288788D01*
X118360074Y-154290856D01*
X118367000Y-154292907D01*
X118373941Y-154294941D01*
X118380897Y-154296959D01*
X118387867Y-154298960D01*
X118394852Y-154300945D01*
X118401851Y-154302912D01*
X118408865Y-154304864D01*
X118415894Y-154306798D01*
X118422938Y-154308715D01*
X118429996Y-154310616D01*
X118437069Y-154312499D01*
X118444156Y-154314366D01*
X118451259Y-154316216D01*
X118458376Y-154318049D01*
X118465508Y-154319865D01*
X118472654Y-154321663D01*
X118479816Y-154323445D01*
X118486992Y-154325210D01*
X118494184Y-154326957D01*
X118501390Y-154328687D01*
X118508610Y-154330400D01*
X118515846Y-154332096D01*
X118523097Y-154333774D01*
X118530363Y-154335436D01*
X118537643Y-154337080D01*
X118544939Y-154338706D01*
X118552249Y-154340315D01*
X118559575Y-154341907D01*
X118566915Y-154343481D01*
X118574271Y-154345037D01*
X118581641Y-154346577D01*
X118589027Y-154348098D01*
X118596428Y-154349602D01*
X118603843Y-154351088D01*
X118611274Y-154352557D01*
X118618720Y-154354008D01*
X118626181Y-154355441D01*
X118633657Y-154356856D01*
X118641149Y-154358254D01*
X118648655Y-154359634D01*
X118656177Y-154360996D01*
X118663714Y-154362340D01*
X118671266Y-154363666D01*
X118678833Y-154364974D01*
X118686416Y-154366264D01*
X118694014Y-154367536D01*
X118701627Y-154368790D01*
X118709255Y-154370026D01*
X118716899Y-154371244D01*
X118724558Y-154372444D01*
X118732232Y-154373625D01*
X118739922Y-154374789D01*
X118747627Y-154375934D01*
X118755348Y-154377060D01*
X118763084Y-154378169D01*
X118770835Y-154379259D01*
X118778602Y-154380330D01*
X118786384Y-154381384D01*
X118794182Y-154382418D01*
X118801995Y-154383435D01*
X118809824Y-154384432D01*
X118817668Y-154385412D01*
X118825528Y-154386372D01*
X118833403Y-154387314D01*
X118841294Y-154388238D01*
X118849200Y-154389142D01*
X118857122Y-154390028D01*
X118865060Y-154390896D01*
X118873013Y-154391744D01*
X118880982Y-154392574D01*
X118888966Y-154393384D01*
X118896966Y-154394176D01*
X118904982Y-154394949D01*
X118913014Y-154395704D01*
X118921061Y-154396439D01*
X118929124Y-154397155D01*
X118937203Y-154397852D01*
X118945297Y-154398530D01*
X118953408Y-154399189D01*
X118961534Y-154399828D01*
X118969676Y-154400449D01*
X118977833Y-154401050D01*
X118986007Y-154401632D01*
X118994196Y-154402195D01*
X119002402Y-154402739D01*
X119010623Y-154403263D01*
X119018860Y-154403768D01*
X119027113Y-154404253D01*
X119035382Y-154404719D01*
X119043667Y-154405166D01*
X119051967Y-154405593D01*
X119060284Y-154406001D01*
X119068617Y-154406389D01*
X119076966Y-154406757D01*
X119085331Y-154407106D01*
X119093712Y-154407435D01*
X119102109Y-154407744D01*
X119110522Y-154408034D01*
X119118951Y-154408304D01*
X119127396Y-154408554D01*
X119135857Y-154408784D01*
X119144335Y-154408995D01*
X119152828Y-154409185D01*
X119161338Y-154409356D01*
X119169864Y-154409507D01*
X119178406Y-154409637D01*
X119186964Y-154409748D01*
X119195539Y-154409839D01*
X119204130Y-154409909D01*
X119212737Y-154409960D01*
X119221360Y-154409990D01*
X119230000Y-154410000D01*
D11*
X127090000Y-144500000D02*
G75*
G02*
X123910000Y-144500000I-1590000J0D01*
G01*
X123910000Y-144500000D02*
G75*
G02*
X127090000Y-144500000I1590000J0D01*
G01*
X155590000Y-144500000D02*
G75*
G02*
X152410000Y-144500000I-1590000J0D01*
G01*
X152410000Y-144500000D02*
G75*
G02*
X155590000Y-144500000I1590000J0D01*
G01*
X160000000Y-154500000D02*
X119230000Y-154410000D01*
D10*
X163126438Y-149302430D02*
X163125661Y-149303718D01*
X163124874Y-149305181D01*
X163124075Y-149306836D01*
X163123265Y-149308700D01*
X163122446Y-149310790D01*
X163121617Y-149313126D01*
X163120780Y-149315728D01*
X163119936Y-149318617D01*
X163119085Y-149321817D01*
X163118229Y-149325352D01*
X163117368Y-149329248D01*
X163116505Y-149333533D01*
X163115639Y-149338237D01*
X163114773Y-149343393D01*
X163113906Y-149349036D01*
X163113041Y-149355205D01*
X163112177Y-149361940D01*
X163111316Y-149369289D01*
X163110458Y-149377303D01*
X163109603Y-149386039D01*
X163108752Y-149395562D01*
X163107905Y-149405947D01*
X163107061Y-149417280D01*
X163106219Y-149429660D01*
X163105378Y-149443209D01*
X163104535Y-149458073D01*
X163103687Y-149474433D01*
X163102829Y-149492522D01*
X163101953Y-149512650D01*
X163101049Y-149535246D01*
X163100099Y-149560947D01*
X163099074Y-149590779D01*
X163097917Y-149626640D01*
X163096494Y-149673011D01*
X163095367Y-149710596D01*
X163093579Y-149770034D01*
X163092626Y-149800989D01*
X163091625Y-149832744D01*
X163090566Y-149865283D01*
X163089442Y-149898590D01*
X163088245Y-149932647D01*
X163086967Y-149967437D01*
X163085600Y-150002945D01*
X163084135Y-150039153D01*
X163083365Y-150057514D01*
X163082566Y-150076043D01*
X163081740Y-150094740D01*
X163080885Y-150113601D01*
X163079999Y-150132624D01*
X163079082Y-150151807D01*
X163078133Y-150171149D01*
X163077151Y-150190647D01*
X163076134Y-150210298D01*
X163075083Y-150230102D01*
X163073995Y-150250055D01*
X163072870Y-150270156D01*
X163071707Y-150290402D01*
X163070505Y-150310792D01*
X163069263Y-150331324D01*
X163067979Y-150351994D01*
X163066654Y-150372802D01*
X163065285Y-150393744D01*
X163063872Y-150414820D01*
X163062415Y-150436027D01*
X163060911Y-150457362D01*
X163059360Y-150478823D01*
X163057761Y-150500410D01*
X163056113Y-150522118D01*
X163054415Y-150543947D01*
X163052666Y-150565895D01*
X163050864Y-150587958D01*
X163049010Y-150610135D01*
X163047102Y-150632424D01*
X163045139Y-150654823D01*
X163043119Y-150677330D01*
X163041043Y-150699942D01*
X163038909Y-150722658D01*
X163036716Y-150745475D01*
X163034462Y-150768391D01*
X163032148Y-150791405D01*
X163029772Y-150814513D01*
X163027333Y-150837715D01*
X163024830Y-150861007D01*
X163022262Y-150884389D01*
X163019628Y-150907856D01*
X163016927Y-150931409D01*
X163014158Y-150955043D01*
X163011321Y-150978758D01*
X163008413Y-151002552D01*
X163005434Y-151026421D01*
X163002384Y-151050365D01*
X162999261Y-151074380D01*
X162996063Y-151098465D01*
X162992791Y-151122618D01*
X162989443Y-151146837D01*
X162986019Y-151171119D01*
X162982516Y-151195462D01*
X162978934Y-151219865D01*
X162975273Y-151244325D01*
X162971531Y-151268840D01*
X162967707Y-151293408D01*
X162963800Y-151318027D01*
X162959810Y-151342695D01*
X162955734Y-151367409D01*
X162951573Y-151392168D01*
X162947325Y-151416969D01*
X162945168Y-151429385D01*
X162942989Y-151441811D01*
X162940788Y-151454247D01*
X162938565Y-151466691D01*
X162936319Y-151479145D01*
X162934050Y-151491608D01*
X162931759Y-151504079D01*
X162929445Y-151516558D01*
X162927108Y-151529045D01*
X162924749Y-151541540D01*
X162922365Y-151554042D01*
X162919959Y-151566552D01*
X162917529Y-151579069D01*
X162915076Y-151591592D01*
X162912599Y-151604121D01*
X162910098Y-151616657D01*
X162907573Y-151629199D01*
X162905024Y-151641746D01*
X162902451Y-151654299D01*
X162899853Y-151666857D01*
X162897232Y-151679419D01*
X162894585Y-151691986D01*
X162891914Y-151704558D01*
X162889218Y-151717133D01*
X162886498Y-151729713D01*
X162883752Y-151742295D01*
X162880981Y-151754881D01*
X162878184Y-151767470D01*
X162875363Y-151780062D01*
X162872516Y-151792656D01*
X162869643Y-151805253D01*
X162866744Y-151817851D01*
X162863819Y-151830451D01*
X162860869Y-151843053D01*
X162857892Y-151855655D01*
X162854889Y-151868259D01*
X162851859Y-151880863D01*
X162848803Y-151893468D01*
X162845720Y-151906072D01*
X162842611Y-151918677D01*
X162839474Y-151931281D01*
X162836311Y-151943884D01*
X162833120Y-151956486D01*
X162829902Y-151969087D01*
X162826657Y-151981687D01*
X162823384Y-151994285D01*
X162820084Y-152006881D01*
X162816756Y-152019475D01*
X162813399Y-152032066D01*
X162810015Y-152044654D01*
X162806603Y-152057239D01*
X162803162Y-152069821D01*
X162799693Y-152082400D01*
X162796196Y-152094974D01*
X162792669Y-152107545D01*
X162789114Y-152120111D01*
X162785531Y-152132672D01*
X162781918Y-152145229D01*
X162778276Y-152157780D01*
X162774604Y-152170326D01*
X162770904Y-152182866D01*
X162767174Y-152195400D01*
X162763414Y-152207928D01*
X162759624Y-152220450D01*
X162755805Y-152232965D01*
X162751955Y-152245473D01*
X162748076Y-152257973D01*
X162744166Y-152270466D01*
X162740225Y-152282952D01*
X162736255Y-152295429D01*
X162732253Y-152307898D01*
X162728221Y-152320358D01*
X162724158Y-152332810D01*
X162720064Y-152345252D01*
X162715939Y-152357685D01*
X162711782Y-152370109D01*
X162707594Y-152382522D01*
X162703375Y-152394925D01*
X162699124Y-152407318D01*
X162694841Y-152419701D01*
X162690527Y-152432072D01*
X162686180Y-152444432D01*
X162681802Y-152456781D01*
X162677391Y-152469117D01*
X162672947Y-152481442D01*
X162668472Y-152493755D01*
X162663963Y-152506055D01*
X162659422Y-152518342D01*
X162654848Y-152530617D01*
X162650241Y-152542878D01*
X162645601Y-152555125D01*
X162640927Y-152567358D01*
X162636221Y-152579578D01*
X162631480Y-152591783D01*
X162626707Y-152603973D01*
X162621899Y-152616149D01*
X162617058Y-152628309D01*
X162612182Y-152640454D01*
X162607273Y-152652584D01*
X162602329Y-152664697D01*
X162597351Y-152676794D01*
X162592338Y-152688875D01*
X162587291Y-152700939D01*
X162582209Y-152712986D01*
X162577092Y-152725016D01*
X162571940Y-152737028D01*
X162566754Y-152749022D01*
X162561532Y-152760999D01*
X162556274Y-152772957D01*
X162550981Y-152784896D01*
X162545653Y-152796817D01*
X162540289Y-152808718D01*
X162534888Y-152820600D01*
X162529452Y-152832463D01*
X162523980Y-152844306D01*
X162518472Y-152856128D01*
X162512927Y-152867930D01*
X162507346Y-152879712D01*
X162501728Y-152891472D01*
X162496074Y-152903212D01*
X162490383Y-152914930D01*
X162484654Y-152926626D01*
X162478889Y-152938300D01*
X162473086Y-152949952D01*
X162467247Y-152961581D01*
X162461369Y-152973188D01*
X162455454Y-152984771D01*
X162449502Y-152996331D01*
X162443511Y-153007868D01*
X162437483Y-153019381D01*
X162431416Y-153030870D01*
X162425312Y-153042334D01*
X162419168Y-153053774D01*
X162412987Y-153065189D01*
X162406767Y-153076578D01*
X162400508Y-153087943D01*
X162394211Y-153099281D01*
X162387874Y-153110594D01*
X162381498Y-153121881D01*
X162375084Y-153133141D01*
X162368630Y-153144374D01*
X162362136Y-153155581D01*
X162355603Y-153166760D01*
X162349030Y-153177911D01*
X162342417Y-153189035D01*
X162335765Y-153200131D01*
X162329072Y-153211198D01*
X162322339Y-153222237D01*
X162315566Y-153233247D01*
X162308753Y-153244228D01*
X162301898Y-153255180D01*
X162295004Y-153266102D01*
X162288068Y-153276994D01*
X162281091Y-153287856D01*
X162274074Y-153298688D01*
X162267015Y-153309489D01*
X162259915Y-153320259D01*
X162252773Y-153330998D01*
X162245590Y-153341705D01*
X162238365Y-153352381D01*
X162231099Y-153363024D01*
X162223790Y-153373636D01*
X162216440Y-153384215D01*
X162209047Y-153394761D01*
X162201612Y-153405274D01*
X162194134Y-153415754D01*
X162186614Y-153426200D01*
X162179052Y-153436612D01*
X162171446Y-153446991D01*
X162163798Y-153457335D01*
X162156106Y-153467644D01*
X162148372Y-153477919D01*
X162140594Y-153488158D01*
X162132772Y-153498362D01*
X162124908Y-153508530D01*
X162116999Y-153518663D01*
X162109047Y-153528759D01*
X162101050Y-153538819D01*
X162093010Y-153548842D01*
X162084926Y-153558828D01*
X162076797Y-153568777D01*
X162068624Y-153578688D01*
X162060406Y-153588561D01*
X162052144Y-153598397D01*
X162043837Y-153608194D01*
X162035485Y-153617953D01*
X162027088Y-153627673D01*
X162018646Y-153637353D01*
X162010158Y-153646995D01*
X162001625Y-153656596D01*
X161993047Y-153666158D01*
X161984423Y-153675680D01*
X161975753Y-153685162D01*
X161967038Y-153694602D01*
X161958276Y-153704002D01*
X161949468Y-153713361D01*
X161940614Y-153722678D01*
X161931713Y-153731953D01*
X161922766Y-153741187D01*
X161913772Y-153750378D01*
X161904732Y-153759527D01*
X161895645Y-153768633D01*
X161886510Y-153777696D01*
X161877329Y-153786716D01*
X161868100Y-153795692D01*
X161858824Y-153804624D01*
X161849500Y-153813512D01*
X161840129Y-153822356D01*
X161830710Y-153831155D01*
X161821243Y-153839910D01*
X161811728Y-153848619D01*
X161802165Y-153857283D01*
X161792553Y-153865901D01*
X161782894Y-153874473D01*
X161773185Y-153883000D01*
X161763429Y-153891479D01*
X161753623Y-153899912D01*
X161743768Y-153908298D01*
X161733865Y-153916637D01*
X161723912Y-153924928D01*
X161713911Y-153933172D01*
X161703859Y-153941367D01*
X161693759Y-153949514D01*
X161683608Y-153957613D01*
X161673408Y-153965663D01*
X161663158Y-153973664D01*
X161652858Y-153981615D01*
X161642508Y-153989517D01*
X161632108Y-153997369D01*
X161621657Y-154005171D01*
X161611156Y-154012922D01*
X161600604Y-154020623D01*
X161590001Y-154028273D01*
X161579348Y-154035872D01*
X161568644Y-154043419D01*
X161557888Y-154050915D01*
X161547081Y-154058358D01*
X161536223Y-154065749D01*
X161525314Y-154073088D01*
X161514353Y-154080374D01*
X161503340Y-154087608D01*
X161492275Y-154094787D01*
X161481158Y-154101914D01*
X161469989Y-154108986D01*
X161458768Y-154116004D01*
X161447495Y-154122969D01*
X161436169Y-154129878D01*
X161424790Y-154136733D01*
X161413359Y-154143532D01*
X161401875Y-154150276D01*
X161390338Y-154156965D01*
X161378748Y-154163597D01*
X161367105Y-154170173D01*
X161355408Y-154176693D01*
X161343658Y-154183157D01*
X161331854Y-154189563D01*
X161319996Y-154195912D01*
X161308085Y-154202203D01*
X161296120Y-154208437D01*
X161284100Y-154214613D01*
X161272027Y-154220730D01*
X161259899Y-154226789D01*
X161247716Y-154232790D01*
X161235479Y-154238731D01*
X161223188Y-154244612D01*
X161210841Y-154250435D01*
X161198440Y-154256197D01*
X161185983Y-154261899D01*
X161173471Y-154267541D01*
X161160904Y-154273122D01*
X161148282Y-154278642D01*
X161135604Y-154284101D01*
X161122870Y-154289499D01*
X161110080Y-154294835D01*
X161097234Y-154300109D01*
X161084333Y-154305321D01*
X161071375Y-154310470D01*
X161058361Y-154315556D01*
X161045290Y-154320580D01*
X161032163Y-154325540D01*
X161018979Y-154330437D01*
X161005738Y-154335270D01*
X160992440Y-154340039D01*
X160979086Y-154344743D01*
X160965674Y-154349383D01*
X160958946Y-154351679D01*
X160952204Y-154353958D01*
X160945448Y-154356221D01*
X160938678Y-154358468D01*
X160931893Y-154360699D01*
X160925093Y-154362913D01*
X160918280Y-154365110D01*
X160911451Y-154367292D01*
X160904609Y-154369456D01*
X160897752Y-154371605D01*
X160890880Y-154373736D01*
X160883994Y-154375852D01*
X160877093Y-154377950D01*
X160870178Y-154380032D01*
X160863248Y-154382097D01*
X160856304Y-154384146D01*
X160849345Y-154386177D01*
X160842372Y-154388192D01*
X160835384Y-154390191D01*
X160828381Y-154392172D01*
X160821364Y-154394137D01*
X160814332Y-154396084D01*
X160807285Y-154398015D01*
X160800224Y-154399928D01*
X160793148Y-154401825D01*
X160786057Y-154403705D01*
X160778952Y-154405567D01*
X160771832Y-154407413D01*
X160764697Y-154409241D01*
X160757547Y-154411052D01*
X160750382Y-154412846D01*
X160743203Y-154414623D01*
X160736009Y-154416383D01*
X160728800Y-154418125D01*
X160721576Y-154419850D01*
X160714337Y-154421557D01*
X160707083Y-154423247D01*
X160699815Y-154424920D01*
X160692531Y-154426575D01*
X160685233Y-154428213D01*
X160677920Y-154429833D01*
X160670591Y-154431436D01*
X160663248Y-154433021D01*
X160655890Y-154434588D01*
X160648516Y-154436138D01*
X160641128Y-154437670D01*
X160633725Y-154439184D01*
X160626306Y-154440681D01*
X160618873Y-154442160D01*
X160611424Y-154443620D01*
X160603961Y-154445064D01*
X160596482Y-154446489D01*
X160588988Y-154447896D01*
X160581479Y-154449285D01*
X160573954Y-154450657D01*
X160566415Y-154452010D01*
X160558860Y-154453345D01*
X160551290Y-154454662D01*
X160543705Y-154455962D01*
X160536105Y-154457242D01*
X160528489Y-154458505D01*
X160520859Y-154459750D01*
X160513212Y-154460976D01*
X160505551Y-154462184D01*
X160497874Y-154463374D01*
X160490182Y-154464545D01*
X160482475Y-154465698D01*
X160474752Y-154466832D01*
X160467013Y-154467948D01*
X160459260Y-154469046D01*
X160451491Y-154470125D01*
X160443706Y-154471185D01*
X160435906Y-154472227D01*
X160428091Y-154473251D01*
X160420260Y-154474255D01*
X160412414Y-154475241D01*
X160404552Y-154476209D01*
X160396674Y-154477157D01*
X160388782Y-154478087D01*
X160380873Y-154478998D01*
X160372949Y-154479890D01*
X160365009Y-154480763D01*
X160357054Y-154481618D01*
X160349083Y-154482453D01*
X160341097Y-154483269D01*
X160333095Y-154484067D01*
X160325077Y-154484845D01*
X160317043Y-154485605D01*
X160308994Y-154486345D01*
X160300929Y-154487066D01*
X160292849Y-154487768D01*
X160284752Y-154488450D01*
X160276640Y-154489114D01*
X160268512Y-154489758D01*
X160260369Y-154490383D01*
X160252209Y-154490988D01*
X160244034Y-154491574D01*
X160235843Y-154492141D01*
X160227636Y-154492689D01*
X160219413Y-154493216D01*
X160211174Y-154493725D01*
X160202920Y-154494214D01*
X160194649Y-154494683D01*
X160186363Y-154495132D01*
X160178060Y-154495563D01*
X160169742Y-154495973D01*
X160161408Y-154496364D01*
X160153057Y-154496734D01*
X160144691Y-154497086D01*
X160136309Y-154497417D01*
X160127910Y-154497729D01*
X160119496Y-154498020D01*
X160111065Y-154498292D01*
X160102619Y-154498544D01*
X160094156Y-154498776D01*
X160085677Y-154498988D01*
X160077183Y-154499180D01*
X160068671Y-154499351D01*
X160060144Y-154499503D01*
X160051601Y-154499635D01*
X160043041Y-154499746D01*
X160034466Y-154499838D01*
X160025874Y-154499909D01*
X160017265Y-154499959D01*
X160008641Y-154499990D01*
X160000000Y-154500000D01*
X164073820Y-142882247D02*
X164033766Y-143147806D01*
X163994842Y-143406011D01*
X163957126Y-143656333D01*
X163920502Y-143899542D01*
X163885048Y-144135112D01*
X163850648Y-144363809D01*
X163817381Y-144585112D01*
X163785130Y-144799781D01*
X163753974Y-145007299D01*
X163723799Y-145208421D01*
X163694679Y-145402634D01*
X163666503Y-145590689D01*
X163639346Y-145772076D01*
X163613096Y-145947541D01*
X163587827Y-146116580D01*
X163563428Y-146279932D01*
X163539973Y-146437096D01*
X163517352Y-146588808D01*
X163495637Y-146734572D01*
X163474720Y-146875116D01*
X163454673Y-147009949D01*
X163435388Y-147139794D01*
X163416935Y-147264166D01*
X163399208Y-147383778D01*
X163382278Y-147498153D01*
X163366038Y-147607997D01*
X163350558Y-147712838D01*
X163335733Y-147813375D01*
X163321631Y-147909141D01*
X163308150Y-148000829D01*
X163295356Y-148087978D01*
X163283148Y-148171271D01*
X163271591Y-148250255D01*
X163260586Y-148325604D01*
X163250197Y-148396873D01*
X163240326Y-148464725D01*
X163231035Y-148528724D01*
X163222229Y-148589521D01*
X163213968Y-148646690D01*
X163206158Y-148700872D01*
X163198860Y-148751647D01*
X163191980Y-148799645D01*
X163185577Y-148844458D01*
X163179561Y-148886700D01*
X163173987Y-148925975D01*
X163168769Y-148962882D01*
X163163960Y-148997037D01*
X163159476Y-149029024D01*
X163155368Y-149058471D01*
X163151554Y-149085944D01*
X163148085Y-149111087D01*
X163144880Y-149134446D01*
X163141988Y-149155680D01*
X163139332Y-149175315D01*
X163136957Y-149193025D01*
X163134792Y-149209315D01*
X163132876Y-149223877D01*
X163131145Y-149237191D01*
X163129632Y-149248968D01*
X163128279Y-149259662D01*
X163127116Y-149269004D01*
X163126089Y-149277419D01*
X163125224Y-149284662D01*
X163124472Y-149291125D01*
X163123856Y-149296587D01*
X163123333Y-149301407D01*
X163122920Y-149305388D01*
X163122580Y-149308854D01*
X163122327Y-149311635D01*
X163122131Y-149314014D01*
X163121999Y-149315852D01*
X163121909Y-149317388D01*
X163121862Y-149318515D01*
X163121845Y-149319426D01*
X163121852Y-149320045D01*
X163121879Y-149320521D01*
X163121915Y-149320807D01*
X163121962Y-149321007D01*
X163122004Y-149321103D01*
X163122052Y-149321155D01*
X163122089Y-149321166D01*
X163122130Y-149321156D01*
X163122225Y-149321065D01*
X163122372Y-149320805D01*
X163122595Y-149320232D01*
X163122924Y-149319160D01*
X163123388Y-149317369D01*
X163124018Y-149314636D01*
X163124823Y-149310811D01*
X163125753Y-149306092D01*
X163126438Y-149302430D01*
D11*
X171269979Y-77000000D02*
G75*
G02*
X168089979Y-77000000I-1590000J0D01*
G01*
X168089979Y-77000000D02*
G75*
G02*
X171269979Y-77000000I1590000J0D01*
G01*
X170000000Y-65185668D02*
G75*
G02*
X179434852Y-75261370I-430800J-9858632D01*
G01*
X170000000Y-67604696D02*
X170000000Y-65185668D01*
D10*
X177000000Y-137000000D02*
X176969462Y-137000010D01*
X176938905Y-137000040D01*
X176908472Y-137000090D01*
X176878022Y-137000160D01*
X176847694Y-137000250D01*
X176817349Y-137000360D01*
X176787126Y-137000490D01*
X176756887Y-137000640D01*
X176726768Y-137000809D01*
X176696633Y-137000999D01*
X176666619Y-137001208D01*
X176636589Y-137001437D01*
X176606678Y-137001685D01*
X176576752Y-137001953D01*
X176546944Y-137002241D01*
X176517122Y-137002548D01*
X176487417Y-137002875D01*
X176457698Y-137003221D01*
X176428096Y-137003587D01*
X176398481Y-137003972D01*
X176368981Y-137004376D01*
X176339468Y-137004801D01*
X176310070Y-137005244D01*
X176280660Y-137005707D01*
X176251363Y-137006188D01*
X176222055Y-137006690D01*
X176192860Y-137007210D01*
X176163654Y-137007750D01*
X176134560Y-137008308D01*
X176105455Y-137008886D01*
X176076462Y-137009482D01*
X176047458Y-137010099D01*
X176018565Y-137010733D01*
X175989663Y-137011387D01*
X175960870Y-137012059D01*
X175932068Y-137012752D01*
X175903375Y-137013461D01*
X175874674Y-137014191D01*
X175846080Y-137014939D01*
X175817479Y-137015707D01*
X175788985Y-137016491D01*
X175760483Y-137017297D01*
X175732088Y-137018119D01*
X175703685Y-137018961D01*
X175675389Y-137019821D01*
X175647086Y-137020700D01*
X175618888Y-137021597D01*
X175590684Y-137022513D01*
X175562584Y-137023447D01*
X175534479Y-137024401D01*
X175506477Y-137025371D01*
X175478470Y-137026361D01*
X175450566Y-137027368D01*
X175422657Y-137028395D01*
X175394850Y-137029439D01*
X175367039Y-137030503D01*
X175339329Y-137031583D01*
X175311616Y-137032683D01*
X175284003Y-137033799D01*
X175256387Y-137034935D01*
X175228871Y-137036088D01*
X175201352Y-137037260D01*
X175173933Y-137038449D01*
X175146510Y-137039657D01*
X175119187Y-137040882D01*
X175091861Y-137042126D01*
X175064634Y-137043386D01*
X175037404Y-137044667D01*
X175010273Y-137045962D01*
X174983139Y-137047278D01*
X174956103Y-137048610D01*
X174929065Y-137049961D01*
X174902124Y-137051328D01*
X174875182Y-137052715D01*
X174848337Y-137054117D01*
X174821490Y-137055539D01*
X174794739Y-137056976D01*
X174767987Y-137058433D01*
X174741330Y-137059905D01*
X174714673Y-137061397D01*
X174688111Y-137062905D01*
X174661549Y-137064432D01*
X174635081Y-137065973D01*
X174608613Y-137067535D01*
X174582239Y-137069112D01*
X174555865Y-137070708D01*
X174529584Y-137072319D01*
X174503304Y-137073950D01*
X174477117Y-137075595D01*
X174450930Y-137077261D01*
X174424836Y-137078940D01*
X174398743Y-137080640D01*
X174372742Y-137082354D01*
X174346743Y-137084088D01*
X174320834Y-137085835D01*
X174294928Y-137087603D01*
X174269112Y-137089385D01*
X174243298Y-137091186D01*
X174217574Y-137093002D01*
X174191853Y-137094837D01*
X174166221Y-137096686D01*
X174140592Y-137098555D01*
X174115052Y-137100437D01*
X174089515Y-137102340D01*
X174064067Y-137104256D01*
X174038621Y-137106192D01*
X174013265Y-137108141D01*
X173987911Y-137110110D01*
X173962645Y-137112092D01*
X173937383Y-137114094D01*
X173912209Y-137116110D01*
X173887037Y-137118145D01*
X173861954Y-137120193D01*
X173836873Y-137122261D01*
X173811880Y-137124342D01*
X173786891Y-137126443D01*
X173761987Y-137128557D01*
X173737088Y-137130690D01*
X173712275Y-137132836D01*
X173687467Y-137135002D01*
X173662744Y-137137181D01*
X173638025Y-137139379D01*
X173613392Y-137141590D01*
X173588763Y-137143820D01*
X173564219Y-137146064D01*
X173539680Y-137148326D01*
X173515225Y-137150601D01*
X173490775Y-137152896D01*
X173466409Y-137155203D01*
X173442049Y-137157530D01*
X173417772Y-137159868D01*
X173393500Y-137162227D01*
X173369312Y-137164597D01*
X173345129Y-137166987D01*
X173321029Y-137169389D01*
X173296935Y-137171811D01*
X173272923Y-137174244D01*
X173248917Y-137176697D01*
X173224993Y-137179162D01*
X173201075Y-137181647D01*
X173177239Y-137184143D01*
X173153409Y-137186658D01*
X173129660Y-137189185D01*
X173105918Y-137191732D01*
X173082257Y-137194290D01*
X173058602Y-137196867D01*
X173035027Y-137199456D01*
X173011460Y-137202064D01*
X172987972Y-137204684D01*
X172964492Y-137207323D01*
X172941091Y-137209973D01*
X172917698Y-137212642D01*
X172894383Y-137215323D01*
X172871076Y-137218023D01*
X172847848Y-137220734D01*
X172824628Y-137223464D01*
X172801486Y-137226206D01*
X172778351Y-137228966D01*
X172755295Y-137231738D01*
X172732247Y-137234528D01*
X172709276Y-137237330D01*
X172686313Y-137240150D01*
X172663428Y-137242982D01*
X172640551Y-137245832D01*
X172617751Y-137248693D01*
X172594959Y-137251574D01*
X172572244Y-137254465D01*
X172549538Y-137257374D01*
X172526907Y-137260295D01*
X172504286Y-137263234D01*
X172481740Y-137266184D01*
X172459203Y-137269153D01*
X172436742Y-137272132D01*
X172414289Y-137275130D01*
X172391912Y-137278138D01*
X172369544Y-137281166D01*
X172347251Y-137284203D01*
X172324967Y-137287260D01*
X172302757Y-137290326D01*
X172280557Y-137293411D01*
X172258431Y-137296507D01*
X172236315Y-137299621D01*
X172214272Y-137302745D01*
X172192239Y-137305888D01*
X172170279Y-137309040D01*
X172148329Y-137312212D01*
X172126453Y-137315393D01*
X172104586Y-137318593D01*
X172082792Y-137321802D01*
X172061008Y-137325031D01*
X172039296Y-137328269D01*
X172017595Y-137331525D01*
X171995966Y-137334791D01*
X171974347Y-137338076D01*
X171952800Y-137341370D01*
X171931263Y-137344683D01*
X171909798Y-137348005D01*
X171888343Y-137351346D01*
X171866959Y-137354696D01*
X171845586Y-137358065D01*
X171824284Y-137361442D01*
X171802992Y-137364839D01*
X171781771Y-137368244D01*
X171760561Y-137371668D01*
X171739421Y-137375101D01*
X171718292Y-137378552D01*
X171697233Y-137382012D01*
X171676185Y-137385491D01*
X171655207Y-137388979D01*
X171634239Y-137392485D01*
X171613341Y-137395999D01*
X171592454Y-137399533D01*
X171571637Y-137403074D01*
X171550830Y-137406635D01*
X171530092Y-137410203D01*
X171509366Y-137413791D01*
X171488708Y-137417386D01*
X171468061Y-137421000D01*
X171447483Y-137424623D01*
X171426916Y-137428264D01*
X171406417Y-137431913D01*
X171385929Y-137435580D01*
X171365510Y-137439256D01*
X171345101Y-137442950D01*
X171324761Y-137446652D01*
X171304432Y-137450372D01*
X171284169Y-137454100D01*
X171263919Y-137457847D01*
X171243736Y-137461602D01*
X171223564Y-137465374D01*
X171203459Y-137469155D01*
X171183366Y-137472954D01*
X171163338Y-137476761D01*
X171143324Y-137480586D01*
X171123374Y-137484418D01*
X171103438Y-137488269D01*
X171083566Y-137492128D01*
X171063707Y-137496004D01*
X171043913Y-137499888D01*
X171024132Y-137503791D01*
X171004415Y-137507700D01*
X170984711Y-137511628D01*
X170965072Y-137515563D01*
X170945445Y-137519517D01*
X170925882Y-137523477D01*
X170906332Y-137527456D01*
X170886847Y-137531442D01*
X170867374Y-137535446D01*
X170847964Y-137539457D01*
X170828568Y-137543486D01*
X170809235Y-137547522D01*
X170789915Y-137551576D01*
X170770658Y-137555637D01*
X170751414Y-137559716D01*
X170732233Y-137563803D01*
X170713065Y-137567906D01*
X170693959Y-137572017D01*
X170674867Y-137576146D01*
X170655837Y-137580281D01*
X170636820Y-137584435D01*
X170617866Y-137588595D01*
X170598925Y-137592773D01*
X170580045Y-137596957D01*
X170561179Y-137601159D01*
X170542374Y-137605368D01*
X170523583Y-137609595D01*
X170504853Y-137613828D01*
X170486136Y-137618079D01*
X170467481Y-137622337D01*
X170448839Y-137626612D01*
X170430258Y-137630893D01*
X170411690Y-137635192D01*
X170393183Y-137639498D01*
X170374689Y-137643821D01*
X170356256Y-137648150D01*
X170337836Y-137652497D01*
X170319476Y-137656850D01*
X170301130Y-137661221D01*
X170282844Y-137665598D01*
X170264572Y-137669992D01*
X170246359Y-137674393D01*
X170228160Y-137678811D01*
X170210020Y-137683235D01*
X170191894Y-137687676D01*
X170173826Y-137692123D01*
X170155773Y-137696588D01*
X170137779Y-137701059D01*
X170119798Y-137705547D01*
X170101876Y-137710041D01*
X170083968Y-137714552D01*
X170066118Y-137719069D01*
X170048283Y-137723604D01*
X170030505Y-137728144D01*
X170012741Y-137732701D01*
X169995035Y-137737264D01*
X169977344Y-137741844D01*
X169959709Y-137746430D01*
X169942089Y-137751033D01*
X169924526Y-137755642D01*
X169906978Y-137760268D01*
X169889486Y-137764899D01*
X169872009Y-137769547D01*
X169854588Y-137774201D01*
X169837182Y-137778872D01*
X169819832Y-137783549D01*
X169802497Y-137788242D01*
X169785218Y-137792941D01*
X169767953Y-137797657D01*
X169750744Y-137802378D01*
X169733550Y-137807116D01*
X169716411Y-137811859D01*
X169699287Y-137816619D01*
X169682219Y-137821385D01*
X169665165Y-137826167D01*
X169648166Y-137830955D01*
X169631182Y-137835759D01*
X169614253Y-137840568D01*
X169597339Y-137845395D01*
X169580479Y-137850226D01*
X169563634Y-137855074D01*
X169546844Y-137859927D01*
X169530068Y-137864797D01*
X169513347Y-137869672D01*
X169496640Y-137874563D01*
X169479988Y-137879459D01*
X169463350Y-137884372D01*
X169446766Y-137889290D01*
X169430197Y-137894225D01*
X169413682Y-137899164D01*
X169397181Y-137904120D01*
X169380734Y-137909081D01*
X169364302Y-137914058D01*
X169347923Y-137919040D01*
X169331558Y-137924038D01*
X169315247Y-137929041D01*
X169298951Y-137934061D01*
X169282707Y-137939085D01*
X169266478Y-137944126D01*
X169250302Y-137949171D01*
X169234141Y-137954232D01*
X169218032Y-137959299D01*
X169201938Y-137964381D01*
X169185896Y-137969468D01*
X169169869Y-137974571D01*
X169153894Y-137979679D01*
X169137934Y-137984803D01*
X169122026Y-137989931D01*
X169106133Y-137995076D01*
X169090291Y-138000225D01*
X169074464Y-138005390D01*
X169058688Y-138010560D01*
X169042928Y-138015746D01*
X169027218Y-138020936D01*
X169011524Y-138026142D01*
X168995880Y-138031352D01*
X168980252Y-138036578D01*
X168964674Y-138041809D01*
X168949111Y-138047056D01*
X168933599Y-138052307D01*
X168918101Y-138057573D01*
X168902654Y-138062844D01*
X168887222Y-138068131D01*
X168871840Y-138073422D01*
X168856474Y-138078729D01*
X168841156Y-138084040D01*
X168825855Y-138089367D01*
X168810602Y-138094698D01*
X168795365Y-138100045D01*
X168780177Y-138105395D01*
X168765005Y-138110762D01*
X168749881Y-138116132D01*
X168734773Y-138121519D01*
X168719713Y-138126909D01*
X168704669Y-138132315D01*
X168689674Y-138137724D01*
X168674694Y-138143150D01*
X168659762Y-138148579D01*
X168644846Y-138154024D01*
X168629978Y-138159473D01*
X168615125Y-138164937D01*
X168600320Y-138170405D01*
X168585531Y-138175889D01*
X168570789Y-138181376D01*
X168556063Y-138186879D01*
X168541385Y-138192386D01*
X168526722Y-138197908D01*
X168512106Y-138203434D01*
X168497505Y-138208975D01*
X168482952Y-138214520D01*
X168468415Y-138220080D01*
X168453924Y-138225644D01*
X168439449Y-138231223D01*
X168425020Y-138236806D01*
X168410607Y-138242405D01*
X168396241Y-138248006D01*
X168381890Y-138253623D01*
X168367585Y-138259244D01*
X168353296Y-138264880D01*
X168339054Y-138270519D01*
X168324826Y-138276174D01*
X168310645Y-138281832D01*
X168296479Y-138287505D01*
X168282359Y-138293181D01*
X168268254Y-138298873D01*
X168254195Y-138304568D01*
X168240152Y-138310279D01*
X168226154Y-138315992D01*
X168212171Y-138321721D01*
X168198234Y-138327453D01*
X168184312Y-138333200D01*
X168170435Y-138338950D01*
X168156574Y-138344716D01*
X168142758Y-138350484D01*
X168128957Y-138356268D01*
X168115201Y-138362055D01*
X168101460Y-138367857D01*
X168087764Y-138373662D01*
X168074083Y-138379482D01*
X168060447Y-138385305D01*
X168046826Y-138391143D01*
X168033249Y-138396984D01*
X168019688Y-138402840D01*
X168006171Y-138408699D01*
X167992669Y-138414573D01*
X167979211Y-138420450D01*
X167965769Y-138426342D01*
X167952370Y-138432237D01*
X167938986Y-138438147D01*
X167925646Y-138444059D01*
X167912322Y-138449987D01*
X167899040Y-138455917D01*
X167885775Y-138461862D01*
X167872552Y-138467810D01*
X167859345Y-138473773D01*
X167846180Y-138479739D01*
X167833031Y-138485719D01*
X167819925Y-138491702D01*
X167806834Y-138497700D01*
X167793786Y-138503701D01*
X167780753Y-138509716D01*
X167767763Y-138515735D01*
X167754788Y-138521767D01*
X167741855Y-138527803D01*
X167728938Y-138533853D01*
X167716062Y-138539906D01*
X167703203Y-138545973D01*
X167690384Y-138552043D01*
X167677582Y-138558128D01*
X167664821Y-138564215D01*
X167652075Y-138570317D01*
X167639371Y-138576422D01*
X167626683Y-138582541D01*
X167614035Y-138588662D01*
X167601404Y-138594799D01*
X167588813Y-138600937D01*
X167576238Y-138607090D01*
X167563703Y-138613246D01*
X167551184Y-138619416D01*
X167538706Y-138625589D01*
X167526243Y-138631776D01*
X167513821Y-138637965D01*
X167501415Y-138644169D01*
X167489048Y-138650376D01*
X167476698Y-138656597D01*
X167464387Y-138662820D01*
X167452092Y-138669057D01*
X167439837Y-138675297D01*
X167427597Y-138681552D01*
X167415397Y-138687808D01*
X167403213Y-138694079D01*
X167391068Y-138700352D01*
X167378939Y-138706640D01*
X167366850Y-138712930D01*
X167354776Y-138719234D01*
X167342741Y-138725541D01*
X167330722Y-138731862D01*
X167318741Y-138738185D01*
X167306777Y-138744522D01*
X167294851Y-138750861D01*
X167282941Y-138757215D01*
X167271069Y-138763571D01*
X167259214Y-138769941D01*
X167247396Y-138776313D01*
X167235595Y-138782700D01*
X167223831Y-138789089D01*
X167212083Y-138795491D01*
X167200374Y-138801896D01*
X167188680Y-138808315D01*
X167177024Y-138814737D01*
X167165384Y-138821172D01*
X167153781Y-138827609D01*
X167142194Y-138834061D01*
X167130645Y-138840515D01*
X167119111Y-138846982D01*
X167107615Y-138853452D01*
X167096135Y-138859936D01*
X167084691Y-138866422D01*
X167073264Y-138872921D01*
X167061874Y-138879423D01*
X167050499Y-138885939D01*
X167039161Y-138892457D01*
X167027839Y-138898989D01*
X167016554Y-138905523D01*
X167005284Y-138912071D01*
X166994051Y-138918621D01*
X166982834Y-138925184D01*
X166971653Y-138931750D01*
X166960488Y-138938330D01*
X166949358Y-138944912D01*
X166938245Y-138951507D01*
X166927168Y-138958105D01*
X166916107Y-138964716D01*
X166905081Y-138971329D01*
X166894071Y-138977956D01*
X166883097Y-138984585D01*
X166872139Y-138991228D01*
X166861216Y-138997873D01*
X166850309Y-139004531D01*
X166839437Y-139011192D01*
X166828581Y-139017866D01*
X166817761Y-139024542D01*
X166806956Y-139031232D01*
X166796186Y-139037924D01*
X166785432Y-139044630D01*
X166774712Y-139051337D01*
X166764009Y-139058058D01*
X166753340Y-139064781D01*
X166742688Y-139071518D01*
X166732069Y-139078256D01*
X166721467Y-139085008D01*
X166710898Y-139091762D01*
X166700346Y-139098530D01*
X166689828Y-139105300D01*
X166679326Y-139112083D01*
X166668857Y-139118868D01*
X166658405Y-139125666D01*
X166647986Y-139132467D01*
X166637584Y-139139281D01*
X166627215Y-139146097D01*
X166616862Y-139152926D01*
X166606542Y-139159757D01*
X166596238Y-139166602D01*
X166585968Y-139173449D01*
X166575714Y-139180309D01*
X166565492Y-139187171D01*
X166555287Y-139194046D01*
X166545115Y-139200923D01*
X166534958Y-139207814D01*
X166524835Y-139214707D01*
X166514727Y-139221613D01*
X166504652Y-139228520D01*
X166494593Y-139235442D01*
X166484567Y-139242365D01*
X166474557Y-139249301D01*
X166464579Y-139256239D01*
X166454617Y-139263191D01*
X166444687Y-139270145D01*
X166434773Y-139277111D01*
X166424891Y-139284080D01*
X166415025Y-139291062D01*
X166405191Y-139298046D01*
X166395373Y-139305043D01*
X166385587Y-139312042D01*
X166375817Y-139319054D01*
X166366079Y-139326068D01*
X166356356Y-139333096D01*
X166346665Y-139340125D01*
X166336990Y-139347167D01*
X166327346Y-139354212D01*
X166317718Y-139361269D01*
X166308122Y-139368329D01*
X166298541Y-139375401D01*
X166288991Y-139382476D01*
X166279458Y-139389563D01*
X166269955Y-139396653D01*
X166260468Y-139403756D01*
X166251012Y-139410860D01*
X166241572Y-139417978D01*
X166232163Y-139425097D01*
X166222770Y-139432230D01*
X166213407Y-139439365D01*
X166204060Y-139446512D01*
X166194743Y-139453662D01*
X166185442Y-139460825D01*
X166176172Y-139467989D01*
X166166917Y-139475167D01*
X166157693Y-139482347D01*
X166148484Y-139489539D01*
X166139306Y-139496734D01*
X166130143Y-139503941D01*
X166121011Y-139511151D01*
X166111894Y-139518373D01*
X166102807Y-139525598D01*
X166093735Y-139532835D01*
X166084694Y-139540075D01*
X166075668Y-139547327D01*
X166066672Y-139554581D01*
X166057691Y-139561849D01*
X166048740Y-139569118D01*
X166039805Y-139576400D01*
X166030899Y-139583684D01*
X166022009Y-139590981D01*
X166013147Y-139598281D01*
X166004302Y-139605593D01*
X165995486Y-139612907D01*
X165986685Y-139620234D01*
X165977914Y-139627563D01*
X165969158Y-139634904D01*
X165960431Y-139642248D01*
X165951720Y-139649605D01*
X165943037Y-139656964D01*
X165934370Y-139664335D01*
X165925732Y-139671709D01*
X165917109Y-139679096D01*
X165908515Y-139686484D01*
X165899936Y-139693886D01*
X165891386Y-139701289D01*
X165882852Y-139708705D01*
X165874345Y-139716124D01*
X165865855Y-139723555D01*
X165857392Y-139730988D01*
X165848945Y-139738435D01*
X165840526Y-139745883D01*
X165832123Y-139753344D01*
X165823748Y-139760807D01*
X165815388Y-139768283D01*
X165807056Y-139775761D01*
X165798740Y-139783252D01*
X165790451Y-139790745D01*
X165782178Y-139798251D01*
X165773932Y-139805759D01*
X165765703Y-139813279D01*
X165757500Y-139820802D01*
X165749313Y-139828338D01*
X165741153Y-139835875D01*
X165733009Y-139843426D01*
X165724892Y-139850979D01*
X165716791Y-139858544D01*
X165708717Y-139866112D01*
X165700658Y-139873692D01*
X165692626Y-139881275D01*
X165684610Y-139888870D01*
X165676621Y-139896468D01*
X165668647Y-139904078D01*
X165660700Y-139911691D01*
X165652769Y-139919316D01*
X165644864Y-139926944D01*
X165636975Y-139934584D01*
X165629112Y-139942227D01*
X165621265Y-139949882D01*
X165613444Y-139957540D01*
X165605639Y-139965210D01*
X165597859Y-139972883D01*
X165590096Y-139980568D01*
X165582359Y-139988256D01*
X165574637Y-139995956D01*
X165566941Y-140003659D01*
X165559261Y-140011374D01*
X165551607Y-140019092D01*
X165543968Y-140026822D01*
X165536355Y-140034555D01*
X165528758Y-140042301D01*
X165521187Y-140050049D01*
X165513631Y-140057810D01*
X165506100Y-140065573D01*
X165498586Y-140073348D01*
X165491096Y-140081127D01*
X165483622Y-140088918D01*
X165476174Y-140096711D01*
X165468741Y-140104517D01*
X165461333Y-140112326D01*
X165453941Y-140120147D01*
X165446574Y-140127971D01*
X165439223Y-140135807D01*
X165431897Y-140143646D01*
X165424586Y-140151498D01*
X165417300Y-140159352D01*
X165410030Y-140167219D01*
X165402785Y-140175088D01*
X165395555Y-140182970D01*
X165388350Y-140190855D01*
X165381161Y-140198752D01*
X165373996Y-140206653D01*
X165366847Y-140214565D01*
X165359722Y-140222481D01*
X165352613Y-140230409D01*
X165345528Y-140238340D01*
X165338459Y-140246283D01*
X165331414Y-140254229D01*
X165324385Y-140262188D01*
X165317380Y-140270149D01*
X165310391Y-140278123D01*
X165303425Y-140286100D01*
X165296476Y-140294090D01*
X165289550Y-140302082D01*
X165282640Y-140310087D01*
X165275754Y-140318095D01*
X165268884Y-140326115D01*
X165262037Y-140334139D01*
X165255206Y-140342175D01*
X165248398Y-140350214D01*
X165241606Y-140358265D01*
X165234838Y-140366320D01*
X165228086Y-140374387D01*
X165221357Y-140382457D01*
X165214643Y-140390540D01*
X165207953Y-140398626D01*
X165201279Y-140406724D01*
X165194628Y-140414825D01*
X165187993Y-140422939D01*
X165181380Y-140431057D01*
X165174784Y-140439186D01*
X165168211Y-140447319D01*
X165161653Y-140455464D01*
X165155118Y-140463613D01*
X165148599Y-140471774D01*
X165142103Y-140479939D01*
X165135623Y-140488115D01*
X165129165Y-140496296D01*
X165122723Y-140504488D01*
X165116304Y-140512685D01*
X165109901Y-140520893D01*
X165103520Y-140529106D01*
X165097155Y-140537330D01*
X165090813Y-140545558D01*
X165084486Y-140553798D01*
X165078182Y-140562043D01*
X165071893Y-140570299D01*
X165065627Y-140578559D01*
X165059377Y-140586831D01*
X165053148Y-140595108D01*
X165046936Y-140603396D01*
X165040746Y-140611688D01*
X165034571Y-140619993D01*
X165028419Y-140628301D01*
X165022283Y-140636622D01*
X165016168Y-140644947D01*
X165010069Y-140653283D01*
X165003992Y-140661624D01*
X164997931Y-140669977D01*
X164991892Y-140678335D01*
X164985869Y-140686704D01*
X164979867Y-140695077D01*
X164973882Y-140703463D01*
X164967917Y-140711853D01*
X164961969Y-140720255D01*
X164956042Y-140728661D01*
X164950132Y-140737079D01*
X164944242Y-140745502D01*
X164938369Y-140753937D01*
X164932517Y-140762376D01*
X164926681Y-140770827D01*
X164920866Y-140779283D01*
X164915067Y-140787751D01*
X164909289Y-140796223D01*
X164903528Y-140804708D01*
X164897787Y-140813197D01*
X164892062Y-140821698D01*
X164886359Y-140830204D01*
X164880671Y-140838721D01*
X164875005Y-140847244D01*
X164869354Y-140855778D01*
X164863724Y-140864317D01*
X164858110Y-140872868D01*
X164852517Y-140881425D01*
X164846941Y-140889993D01*
X164841384Y-140898566D01*
X164835844Y-140907150D01*
X164830325Y-140915740D01*
X164824821Y-140924342D01*
X164819339Y-140932949D01*
X164813872Y-140941568D01*
X164808426Y-140950192D01*
X164802995Y-140958828D01*
X164797586Y-140967469D01*
X164792192Y-140976122D01*
X164786819Y-140984780D01*
X164781462Y-140993450D01*
X164776125Y-141002125D01*
X164770804Y-141010813D01*
X164765504Y-141019505D01*
X164760219Y-141028210D01*
X164754955Y-141036920D01*
X164749707Y-141045642D01*
X164744479Y-141054369D01*
X164739267Y-141063108D01*
X164734076Y-141071853D01*
X164728900Y-141080610D01*
X164723745Y-141089372D01*
X164718605Y-141098146D01*
X164713486Y-141106926D01*
X164708383Y-141115718D01*
X164703299Y-141124515D01*
X164698232Y-141133325D01*
X164693184Y-141142140D01*
X164688153Y-141150967D01*
X164683142Y-141159799D01*
X164678147Y-141168644D01*
X164673171Y-141177495D01*
X164668212Y-141186357D01*
X164663272Y-141195226D01*
X164658349Y-141204106D01*
X164653445Y-141212992D01*
X164648557Y-141221891D01*
X164643689Y-141230795D01*
X164638838Y-141239711D01*
X164634005Y-141248634D01*
X164629189Y-141257568D01*
X164624393Y-141266508D01*
X164619612Y-141275461D01*
X164614851Y-141284419D01*
X164610107Y-141293390D01*
X164605382Y-141302367D01*
X164600673Y-141311356D01*
X164595983Y-141320351D01*
X164591310Y-141329358D01*
X164586655Y-141338371D01*
X164582018Y-141347397D01*
X164577399Y-141356429D01*
X164572797Y-141365473D01*
X164568214Y-141374523D01*
X164563647Y-141383586D01*
X164559099Y-141392655D01*
X164554568Y-141401735D01*
X164550056Y-141410823D01*
X164545560Y-141419923D01*
X164541083Y-141429029D01*
X164536622Y-141438147D01*
X164532181Y-141447272D01*
X164527756Y-141456409D01*
X164523350Y-141465553D01*
X164518960Y-141474709D01*
X164514589Y-141483872D01*
X164510235Y-141493047D01*
X164505899Y-141502229D01*
X164501580Y-141511423D01*
X164497280Y-141520624D01*
X164492996Y-141529836D01*
X164488731Y-141539057D01*
X164484482Y-141548288D01*
X164480253Y-141557528D01*
X164476039Y-141566779D01*
X164471845Y-141576037D01*
X164467667Y-141585308D01*
X164463507Y-141594586D01*
X164459364Y-141603876D01*
X164455240Y-141613173D01*
X164451132Y-141622482D01*
X164447043Y-141631799D01*
X164442970Y-141641128D01*
X164438916Y-141650464D01*
X164434879Y-141659812D01*
X164430860Y-141669168D01*
X164426857Y-141678536D01*
X164422873Y-141687912D01*
X164418906Y-141697300D01*
X164414957Y-141706695D01*
X164411025Y-141716103D01*
X164407111Y-141725518D01*
X164403214Y-141734945D01*
X164399335Y-141744381D01*
X164395473Y-141753828D01*
X164391630Y-141763284D01*
X164387803Y-141772751D01*
X164383994Y-141782226D01*
X164380202Y-141791714D01*
X164376428Y-141801210D01*
X164372672Y-141810717D01*
X164368933Y-141820233D01*
X164365211Y-141829761D01*
X164361507Y-141839298D01*
X164357821Y-141848846D01*
X164354152Y-141858403D01*
X164350500Y-141867971D01*
X164346867Y-141877549D01*
X164343250Y-141887138D01*
X164339651Y-141896736D01*
X164336069Y-141906346D01*
X164332506Y-141915964D01*
X164328959Y-141925595D01*
X164325430Y-141935234D01*
X164321918Y-141944885D01*
X164318425Y-141954546D01*
X164314948Y-141964218D01*
X164311489Y-141973899D01*
X164308048Y-141983592D01*
X164304624Y-141993294D01*
X164301217Y-142003008D01*
X164297829Y-142012732D01*
X164294457Y-142022467D01*
X164291103Y-142032211D01*
X164287766Y-142041968D01*
X164284448Y-142051733D01*
X164281146Y-142061511D01*
X164277862Y-142071298D01*
X164274596Y-142081097D01*
X164271347Y-142090906D01*
X164268116Y-142100726D01*
X164264902Y-142110556D01*
X164261706Y-142120398D01*
X164258527Y-142130250D01*
X164255366Y-142140113D01*
X164252222Y-142149987D01*
X164249096Y-142159872D01*
X164245987Y-142169767D01*
X164242896Y-142179674D01*
X164239823Y-142189591D01*
X164236767Y-142199520D01*
X164233728Y-142209459D01*
X164230707Y-142219410D01*
X164227704Y-142229371D01*
X164224718Y-142239345D01*
X164221750Y-142249328D01*
X164218799Y-142259323D01*
X164215867Y-142269328D01*
X164212951Y-142279346D01*
X164210053Y-142289374D01*
X164207173Y-142299413D01*
X164204310Y-142309464D01*
X164201465Y-142319526D01*
X164198638Y-142329599D01*
X164195828Y-142339683D01*
X164193036Y-142349779D01*
X164190261Y-142359886D01*
X164187504Y-142370004D01*
X164184765Y-142380134D01*
X164182044Y-142390275D01*
X164179339Y-142400428D01*
X164176653Y-142410591D01*
X164173984Y-142420767D01*
X164171334Y-142430954D01*
X164168700Y-142441153D01*
X164166085Y-142451362D01*
X164163487Y-142461584D01*
X164160906Y-142471817D01*
X164158344Y-142482062D01*
X164155799Y-142492318D01*
X164153272Y-142502587D01*
X164150763Y-142512866D01*
X164148271Y-142523158D01*
X164145797Y-142533461D01*
X164143341Y-142543776D01*
X164140903Y-142554102D01*
X164138482Y-142564441D01*
X164136079Y-142574791D01*
X164133694Y-142585153D01*
X164131327Y-142595527D01*
X164128978Y-142605913D01*
X164126646Y-142616311D01*
X164124332Y-142626721D01*
X164122036Y-142637142D01*
X164119758Y-142647576D01*
X164117498Y-142658022D01*
X164115256Y-142668480D01*
X164113031Y-142678950D01*
X164110825Y-142689432D01*
X164108636Y-142699926D01*
X164106465Y-142710432D01*
X164104312Y-142720950D01*
X164102178Y-142731481D01*
X164100061Y-142742023D01*
X164097962Y-142752579D01*
X164095880Y-142763146D01*
X164093817Y-142773725D01*
X164091772Y-142784317D01*
X164089745Y-142794921D01*
X164087736Y-142805538D01*
X164085745Y-142816167D01*
X164083772Y-142826808D01*
X164081817Y-142837462D01*
X164079880Y-142848129D01*
X164077961Y-142858807D01*
X164076060Y-142869499D01*
X164074177Y-142880202D01*
X164073820Y-142882247D01*
X179300000Y-129300000D02*
X179300000Y-132500000D01*
X179300000Y-132500000D02*
X179300038Y-132561136D01*
X179300156Y-132625907D01*
X179300360Y-132695436D01*
X179300658Y-132771612D01*
X179301071Y-132858139D01*
X179301647Y-132964591D01*
X179301952Y-133018251D01*
X179302542Y-133123450D01*
X179302818Y-133175753D01*
X179303074Y-133227855D01*
X179303302Y-133279751D01*
X179303495Y-133331438D01*
X179303647Y-133382913D01*
X179303752Y-133434172D01*
X179303802Y-133485211D01*
X179303790Y-133536028D01*
X179303712Y-133586619D01*
X179303558Y-133636981D01*
X179303451Y-133662074D01*
X179303324Y-133687109D01*
X179303174Y-133712085D01*
X179303001Y-133737001D01*
X179302805Y-133761857D01*
X179302584Y-133786653D01*
X179302339Y-133811388D01*
X179302066Y-133836061D01*
X179301767Y-133860673D01*
X179301441Y-133885223D01*
X179301085Y-133909710D01*
X179300700Y-133934134D01*
X179300285Y-133958495D01*
X179299839Y-133982792D01*
X179299361Y-134007024D01*
X179298850Y-134031192D01*
X179298305Y-134055295D01*
X179297726Y-134079332D01*
X179297112Y-134103303D01*
X179296461Y-134127208D01*
X179295774Y-134151046D01*
X179295048Y-134174816D01*
X179294284Y-134198519D01*
X179293481Y-134222153D01*
X179292637Y-134245719D01*
X179291753Y-134269216D01*
X179290826Y-134292643D01*
X179289856Y-134316001D01*
X179288843Y-134339288D01*
X179287785Y-134362504D01*
X179286683Y-134385650D01*
X179285533Y-134408723D01*
X179284337Y-134431725D01*
X179283094Y-134454654D01*
X179281801Y-134477510D01*
X179280459Y-134500292D01*
X179279067Y-134523001D01*
X179277624Y-134545636D01*
X179276128Y-134568196D01*
X179274580Y-134590681D01*
X179272978Y-134613091D01*
X179271322Y-134635424D01*
X179269610Y-134657681D01*
X179267843Y-134679862D01*
X179266018Y-134701965D01*
X179264136Y-134723990D01*
X179262194Y-134745938D01*
X179260194Y-134767806D01*
X179258133Y-134789596D01*
X179256011Y-134811307D01*
X179253827Y-134832937D01*
X179251580Y-134854488D01*
X179249270Y-134875957D01*
X179246895Y-134897346D01*
X179244455Y-134918653D01*
X179241948Y-134939878D01*
X179239375Y-134961021D01*
X179236734Y-134982081D01*
X179234024Y-135003057D01*
X179232643Y-135013514D01*
X179231245Y-135023950D01*
X179229829Y-135034365D01*
X179228395Y-135044759D01*
X179226944Y-135055131D01*
X179225474Y-135065483D01*
X179223987Y-135075813D01*
X179222481Y-135086122D01*
X179220958Y-135096410D01*
X179219416Y-135106676D01*
X179217856Y-135116920D01*
X179216277Y-135127144D01*
X179214679Y-135137345D01*
X179213063Y-135147525D01*
X179211428Y-135157683D01*
X179209774Y-135167820D01*
X179208101Y-135177935D01*
X179206409Y-135188028D01*
X179204698Y-135198099D01*
X179202967Y-135208148D01*
X179201217Y-135218175D01*
X179199447Y-135228180D01*
X179197657Y-135238163D01*
X179195848Y-135248123D01*
X179194019Y-135258062D01*
X179192170Y-135267978D01*
X179190301Y-135277872D01*
X179188412Y-135287744D01*
X179186502Y-135297593D01*
X179184572Y-135307419D01*
X179182622Y-135317223D01*
X179180651Y-135327005D01*
X179178659Y-135336764D01*
X179176646Y-135346500D01*
X179174613Y-135356213D01*
X179172558Y-135365904D01*
X179170483Y-135375571D01*
X179168386Y-135385216D01*
X179166268Y-135394838D01*
X179164128Y-135404436D01*
X179161967Y-135414012D01*
X179159784Y-135423565D01*
X179157580Y-135433094D01*
X179155353Y-135442600D01*
X179153105Y-135452083D01*
X179150834Y-135461542D01*
X179148542Y-135470978D01*
X179146227Y-135480391D01*
X179143890Y-135489780D01*
X179141530Y-135499145D01*
X179139148Y-135508487D01*
X179136743Y-135517805D01*
X179134315Y-135527100D01*
X179131865Y-135536371D01*
X179129391Y-135545617D01*
X179126894Y-135554840D01*
X179124374Y-135564039D01*
X179121831Y-135573214D01*
X179119264Y-135582365D01*
X179116674Y-135591492D01*
X179114060Y-135600595D01*
X179111423Y-135609673D01*
X179108761Y-135618728D01*
X179106076Y-135627757D01*
X179103367Y-135636763D01*
X179100633Y-135645744D01*
X179097875Y-135654701D01*
X179095093Y-135663633D01*
X179092287Y-135672540D01*
X179089456Y-135681423D01*
X179086600Y-135690281D01*
X179083719Y-135699114D01*
X179080814Y-135707923D01*
X179077884Y-135716707D01*
X179074928Y-135725465D01*
X179071947Y-135734199D01*
X179068941Y-135742908D01*
X179065910Y-135751592D01*
X179062853Y-135760250D01*
X179059771Y-135768884D01*
X179056663Y-135777492D01*
X179053529Y-135786075D01*
X179050369Y-135794632D01*
X179047183Y-135803164D01*
X179043971Y-135811671D01*
X179040733Y-135820152D01*
X179037468Y-135828608D01*
X179034177Y-135837038D01*
X179030859Y-135845442D01*
X179027515Y-135853820D01*
X179024144Y-135862173D01*
X179020746Y-135870500D01*
X179017321Y-135878801D01*
X179013870Y-135887076D01*
X179010391Y-135895326D01*
X179006884Y-135903549D01*
X179003351Y-135911746D01*
X178999790Y-135919916D01*
X178996201Y-135928061D01*
X178992584Y-135936179D01*
X178988940Y-135944271D01*
X178985268Y-135952337D01*
X178981568Y-135960376D01*
X178977840Y-135968389D01*
X178974083Y-135976375D01*
X178970299Y-135984335D01*
X178966485Y-135992268D01*
X178962644Y-136000174D01*
X178958774Y-136008054D01*
X178954875Y-136015907D01*
X178950947Y-136023733D01*
X178946990Y-136031532D01*
X178943004Y-136039304D01*
X178938989Y-136047049D01*
X178934945Y-136054767D01*
X178930871Y-136062457D01*
X178926768Y-136070121D01*
X178922636Y-136077758D01*
X178918473Y-136085367D01*
X178914281Y-136092948D01*
X178910059Y-136100503D01*
X178905807Y-136108030D01*
X178901525Y-136115529D01*
X178897213Y-136123001D01*
X178892871Y-136130445D01*
X178888498Y-136137862D01*
X178884094Y-136145251D01*
X178879660Y-136152612D01*
X178875196Y-136159945D01*
X178870700Y-136167251D01*
X178866174Y-136174528D01*
X178861616Y-136181778D01*
X178857028Y-136188999D01*
X178852408Y-136196192D01*
X178847757Y-136203357D01*
X178843074Y-136210494D01*
X178838360Y-136217603D01*
X178833614Y-136224684D01*
X178828837Y-136231736D01*
X178824027Y-136238759D01*
X178819186Y-136245754D01*
X178814313Y-136252721D01*
X178809407Y-136259659D01*
X178804469Y-136266569D01*
X178799499Y-136273449D01*
X178794496Y-136280301D01*
X178789461Y-136287124D01*
X178784393Y-136293919D01*
X178779292Y-136300684D01*
X178774158Y-136307421D01*
X178768992Y-136314128D01*
X178763792Y-136320806D01*
X178758559Y-136327456D01*
X178753293Y-136334076D01*
X178747993Y-136340667D01*
X178742659Y-136347228D01*
X178737293Y-136353761D01*
X178731892Y-136360263D01*
X178726457Y-136366737D01*
X178720989Y-136373181D01*
X178715487Y-136379595D01*
X178709950Y-136385980D01*
X178704379Y-136392335D01*
X178698774Y-136398660D01*
X178693134Y-136404956D01*
X178687460Y-136411222D01*
X178681751Y-136417458D01*
X178676007Y-136423664D01*
X178670229Y-136429840D01*
X178664415Y-136435986D01*
X178658567Y-136442102D01*
X178652683Y-136448187D01*
X178646764Y-136454243D01*
X178640809Y-136460268D01*
X178634819Y-136466263D01*
X178628793Y-136472228D01*
X178622732Y-136478162D01*
X178616635Y-136484066D01*
X178610502Y-136489939D01*
X178604332Y-136495781D01*
X178598127Y-136501594D01*
X178591886Y-136507375D01*
X178585608Y-136513125D01*
X178579294Y-136518845D01*
X178572943Y-136524534D01*
X178566555Y-136530192D01*
X178560131Y-136535819D01*
X178553670Y-136541415D01*
X178547172Y-136546980D01*
X178540637Y-136552514D01*
X178534065Y-136558017D01*
X178527455Y-136563489D01*
X178520808Y-136568929D01*
X178514124Y-136574338D01*
X178507402Y-136579715D01*
X178500642Y-136585061D01*
X178493844Y-136590376D01*
X178487009Y-136595659D01*
X178480135Y-136600910D01*
X178473224Y-136606130D01*
X178466274Y-136611318D01*
X178459286Y-136616475D01*
X178452260Y-136621599D01*
X178445195Y-136626692D01*
X178438091Y-136631753D01*
X178430949Y-136636781D01*
X178423767Y-136641778D01*
X178416547Y-136646743D01*
X178409288Y-136651675D01*
X178401990Y-136656575D01*
X178394652Y-136661443D01*
X178387275Y-136666279D01*
X178379858Y-136671083D01*
X178372402Y-136675854D01*
X178364907Y-136680592D01*
X178357371Y-136685298D01*
X178349796Y-136689972D01*
X178342181Y-136694612D01*
X178334525Y-136699220D01*
X178326829Y-136703796D01*
X178319094Y-136708338D01*
X178311317Y-136712848D01*
X178303500Y-136717325D01*
X178295643Y-136721769D01*
X178287745Y-136726180D01*
X178279806Y-136730558D01*
X178271826Y-136734903D01*
X178263805Y-136739214D01*
X178255743Y-136743493D01*
X178247639Y-136747738D01*
X178239495Y-136751949D01*
X178231309Y-136756128D01*
X178223081Y-136760273D01*
X178214812Y-136764384D01*
X178206501Y-136768462D01*
X178198148Y-136772507D01*
X178189753Y-136776517D01*
X178181316Y-136780494D01*
X178172837Y-136784437D01*
X178164315Y-136788347D01*
X178155752Y-136792222D01*
X178147145Y-136796064D01*
X178138496Y-136799872D01*
X178129805Y-136803645D01*
X178121070Y-136807385D01*
X178112293Y-136811090D01*
X178103473Y-136814762D01*
X178094609Y-136818399D01*
X178085703Y-136822001D01*
X178076753Y-136825570D01*
X178067759Y-136829104D01*
X178058723Y-136832603D01*
X178049642Y-136836068D01*
X178040518Y-136839499D01*
X178031350Y-136842894D01*
X178022138Y-136846255D01*
X178012881Y-136849582D01*
X178003581Y-136852873D01*
X177994237Y-136856130D01*
X177984848Y-136859352D01*
X177975414Y-136862539D01*
X177965936Y-136865691D01*
X177956414Y-136868808D01*
X177946846Y-136871890D01*
X177937234Y-136874936D01*
X177927577Y-136877948D01*
X177917875Y-136880924D01*
X177908127Y-136883865D01*
X177898334Y-136886770D01*
X177888496Y-136889640D01*
X177878612Y-136892475D01*
X177868683Y-136895274D01*
X177858708Y-136898037D01*
X177848687Y-136900765D01*
X177838620Y-136903457D01*
X177828507Y-136906113D01*
X177818348Y-136908734D01*
X177808143Y-136911319D01*
X177797891Y-136913867D01*
X177787593Y-136916380D01*
X177777248Y-136918857D01*
X177766857Y-136921298D01*
X177756419Y-136923702D01*
X177745934Y-136926071D01*
X177735402Y-136928403D01*
X177724823Y-136930699D01*
X177714197Y-136932958D01*
X177703524Y-136935181D01*
X177692803Y-136937368D01*
X177682035Y-136939518D01*
X177671219Y-136941632D01*
X177660355Y-136943709D01*
X177649444Y-136945749D01*
X177638485Y-136947753D01*
X177627477Y-136949719D01*
X177616422Y-136951649D01*
X177605318Y-136953543D01*
X177594166Y-136955399D01*
X177582966Y-136957218D01*
X177571717Y-136959000D01*
X177560419Y-136960745D01*
X177549073Y-136962453D01*
X177537678Y-136964124D01*
X177526234Y-136965757D01*
X177514741Y-136967353D01*
X177503198Y-136968912D01*
X177491607Y-136970433D01*
X177479966Y-136971917D01*
X177468276Y-136973363D01*
X177456536Y-136974772D01*
X177444746Y-136976143D01*
X177432906Y-136977477D01*
X177421017Y-136978772D01*
X177409078Y-136980030D01*
X177397088Y-136981250D01*
X177385049Y-136982432D01*
X177372959Y-136983576D01*
X177360819Y-136984682D01*
X177348628Y-136985750D01*
X177336386Y-136986780D01*
X177324094Y-136987772D01*
X177311751Y-136988725D01*
X177299357Y-136989641D01*
X177286912Y-136990518D01*
X177274416Y-136991356D01*
X177261869Y-136992156D01*
X177249270Y-136992918D01*
X177236620Y-136993641D01*
X177223918Y-136994325D01*
X177211165Y-136994971D01*
X177198360Y-136995578D01*
X177185503Y-136996146D01*
X177172594Y-136996675D01*
X177159633Y-136997166D01*
X177146619Y-136997617D01*
X177133554Y-136998030D01*
X177120436Y-136998404D01*
X177107265Y-136998738D01*
X177094042Y-136999033D01*
X177080767Y-136999290D01*
X177067438Y-136999506D01*
X177054057Y-136999684D01*
X177040622Y-136999822D01*
X177027135Y-136999921D01*
X177013594Y-136999980D01*
X177000000Y-137000000D01*
D11*
X179434866Y-75261370D02*
X179300000Y-129300000D01*
M02*
